<?xml version="1.0" encoding="UTF-8"?>
<!DOCTYPE svg PUBLIC "-//W3C//DTD SVG 1.0//EN" "http://www.w3.org/TR/2001/REC-SVG-20010904/DTD/svg10.dtd">
<svg xmlns="http://www.w3.org/2000/svg" xmlns:xlink="http://www.w3.org/1999/xlink" height="297mm" version="1.1" width="210mm">
    <defs>
        <style type="text/css"><![CDATA[
            /* default */
            svg { fill: none; stroke: #000000; stroke-width: 0.5; }
            text { font-family: serif; font-size: 36pt; fill: black; stroke: none; }
            #grid { stroke: #777777; }
            #axes, #reference-lines, .box { stroke: #111111; fill: transparent; }
            #plots { stroke-width: 1.0; stroke-dasharray: 5.0, 5.0; }
            #plot-1 { stroke-dasharray: none; }
            #plot-2 { stroke-dasharray: 1.0, 3.0; }
            #overlays { stroke: none; stroke-dasharray: none; fill: transparent; }
            .poi_symbol { stroke: black; stroke-dasharray: none; stroke-width:0.75;  fill: black; }
            .poi_symbol_bg { stroke: white; stroke-dasharray: none; stroke-width:3.0;  fill: transparent; stroke-linecap: round; }
            .integral { stroke: white; stroke-dasharray: none; stroke-width:3.0; }
            .integral-1 { fill: url(#diagonal_line1_PD); }
            .integral-2 { fill: white; }
            @media print{
            text { font-family: 'Braille DE Computer'; font-size: 36pt; fill: black; stroke: none; }
             }
            
        ]]></style>
    </defs>
    <title>example 2</title>
    <rect height="100%" id="background" width="100%" x="0" y="0"/>
    <text id="title" x="10mm" y="30mm">example 2</text>
    <svg viewBox="0 0 210 297">
        <defs>
            <clipPath id="plot-area">
                <rect height="217" width="160" x="20" y="60"/>
            </clipPath>
        </defs>
        <g id="grid">
            <g id="x-grid" stroke-dasharray="0.5, 2.083">
                <line x1="20" x2="20" y1="59.75" y2="277.25"/>
                <line x1="33.333" x2="33.333" y1="59.75" y2="277.25"/>
                <line x1="46.667" x2="46.667" y1="59.75" y2="277.25"/>
                <line x1="60" x2="60" y1="59.75" y2="277.25"/>
                <line x1="86.667" x2="86.667" y1="59.75" y2="277.25"/>
                <line x1="100" x2="100" y1="59.75" y2="277.25"/>
                <line x1="113.333" x2="113.333" y1="59.75" y2="277.25"/>
                <line x1="126.667" x2="126.667" y1="59.75" y2="277.25"/>
                <line x1="140" x2="140" y1="59.75" y2="277.25"/>
                <line x1="153.333" x2="153.333" y1="59.75" y2="277.25"/>
                <line x1="166.667" x2="166.667" y1="59.75" y2="277.25"/>
                <line x1="180" x2="180" y1="59.75" y2="277.25"/>
            </g>
            <g id="y-grid" stroke-dasharray="0.5, 2.167">
                <line x1="19.75" x2="180.25" y1="277" y2="277"/>
                <line x1="19.75" x2="180.25" y1="258.917" y2="258.917"/>
                <line x1="19.75" x2="180.25" y1="240.833" y2="240.833"/>
                <line x1="19.75" x2="180.25" y1="222.75" y2="222.75"/>
                <line x1="19.75" x2="180.25" y1="204.667" y2="204.667"/>
                <line x1="19.75" x2="180.25" y1="186.583" y2="186.583"/>
                <line x1="19.75" x2="180.25" y1="150.417" y2="150.417"/>
                <line x1="19.75" x2="180.25" y1="132.333" y2="132.333"/>
                <line x1="19.75" x2="180.25" y1="114.25" y2="114.25"/>
                <line x1="19.75" x2="180.25" y1="96.167" y2="96.167"/>
                <line x1="19.75" x2="180.25" y1="78.083" y2="78.083"/>
                <line x1="19.75" x2="180.25" y1="60" y2="60"/>
            </g>
        </g>
        <g id="axes">
            <g class="poi_symbol_bg" id="axes_spacer">
                <line id="x-axis" x1="5" x2="190" y1="168.5" y2="168.5"/>
                <polyline id="x-axis-arrow" points="190,165.5 195.2,168.5 190,171.5">
                    <title>X-Achse</title>
                </polyline>
                <line id="y-axis" x1="73.333" x2="73.333" y1="292" y2="50"/>
                <polyline id="y-axis-arrow" points="70.333,50 73.333,44.8 76.333,50">
                    <title>Y-Achse</title>
                </polyline>
                <g id="x-tics">
                    <line x1="20" x2="20" y1="162.5" y2="174.5"/>
                    <line x1="46.667" x2="46.667" y1="162.5" y2="174.5"/>
                    <line x1="100" x2="100" y1="162.5" y2="174.5"/>
                    <line x1="126.667" x2="126.667" y1="162.5" y2="174.5"/>
                    <line x1="153.333" x2="153.333" y1="162.5" y2="174.5"/>
                    <line x1="180" x2="180" y1="162.5" y2="174.5"/>
                </g>
                <g id="y-tics">
                    <line x1="67.333" x2="79.333" y1="277" y2="277"/>
                    <line x1="67.333" x2="79.333" y1="240.833" y2="240.833"/>
                    <line x1="67.333" x2="79.333" y1="204.667" y2="204.667"/>
                    <line x1="67.333" x2="79.333" y1="132.333" y2="132.333"/>
                    <line x1="67.333" x2="79.333" y1="96.167" y2="96.167"/>
                    <line x1="67.333" x2="79.333" y1="60" y2="60"/>
                </g>
            </g>
            <line id="x-axis" x1="5" x2="190" y1="168.5" y2="168.5"/>
            <polyline id="x-axis-arrow" points="190,165.5 195.2,168.5 190,171.5">
                <title>X-Achse</title>
            </polyline>
            <line id="y-axis" x1="73.333" x2="73.333" y1="292" y2="50"/>
            <polyline id="y-axis-arrow" points="70.333,50 73.333,44.8 76.333,50">
                <title>Y-Achse</title>
            </polyline>
            <g id="x-tics">
                <line x1="20" x2="20" y1="162.5" y2="174.5"/>
                <line x1="46.667" x2="46.667" y1="162.5" y2="174.5"/>
                <line x1="100" x2="100" y1="162.5" y2="174.5"/>
                <line x1="126.667" x2="126.667" y1="162.5" y2="174.5"/>
                <line x1="153.333" x2="153.333" y1="162.5" y2="174.5"/>
                <line x1="180" x2="180" y1="162.5" y2="174.5"/>
            </g>
            <g id="y-tics">
                <line x1="67.333" x2="79.333" y1="277" y2="277"/>
                <line x1="67.333" x2="79.333" y1="240.833" y2="240.833"/>
                <line x1="67.333" x2="79.333" y1="204.667" y2="204.667"/>
                <line x1="67.333" x2="79.333" y1="132.333" y2="132.333"/>
                <line x1="67.333" x2="79.333" y1="96.167" y2="96.167"/>
                <line x1="67.333" x2="79.333" y1="60" y2="60"/>
            </g>
        </g>
        <g id="plots">
            <g id="plot-1">
                <path clip-path="url(#plot-area)" d="M40.939,278.175 L41.062,274.53 L41.185,270.929 L41.309,267.372 L41.432,263.858 L41.555,260.388 L41.678,256.96 L41.801,253.574 L41.925,250.23 L42.048,246.929 L42.171,243.668 L42.294,240.449 L42.417,237.27 L42.54,234.132 L42.664,231.035 L42.787,227.977 L42.91,224.959 L43.033,221.98 L43.156,219.04 L43.279,216.139 L43.403,213.276 L43.526,210.452 L43.649,207.665 L43.772,204.915 L43.895,202.204 L44.019,199.528 L44.142,196.89 L44.265,194.288 L44.388,191.722 L44.511,189.192 L44.634,186.697 L44.757,184.238 L44.881,181.814 L45.004,179.424 L45.127,177.068 L45.25,174.747 L45.373,172.46 L45.497,170.206 L45.62,167.985 L45.743,165.798 L45.866,163.643 L45.989,161.521 L46.112,159.431 L46.236,157.372 L46.359,155.346 L46.482,153.351 L46.605,151.387 L46.728,149.454 L46.851,147.552 L46.975,145.68 L47.098,143.838 L47.221,142.025 L47.344,140.243 L47.467,138.49 L47.59,136.766 L47.714,135.07 L47.837,133.404 L47.96,131.766 L48.083,130.155 L48.206,128.573 L48.329,127.018 L48.453,125.49 L48.576,123.99 L48.699,122.516 L48.822,121.069 L48.945,119.649 L49.069,118.254 L49.192,116.886 L49.315,115.543 L49.438,114.225 L49.561,112.933 L49.684,111.666 L49.808,110.423 L49.931,109.205 L50.054,108.011 L50.177,106.841 L50.3,105.695 L50.423,104.573 L50.547,103.474 L50.67,102.398 L50.793,101.345 L50.916,100.314 L51.039,99.306 L51.162,98.321 L51.286,97.357 L51.409,96.415 L51.532,95.495 L51.655,94.596 L51.778,93.718 L51.901,92.862 L52.025,92.026 L52.148,91.21 L52.271,90.415 L52.394,89.64 L52.517,88.885 L52.641,88.149 L52.764,87.434 L52.887,86.737 L53.01,86.059 L53.133,85.401 L53.256,84.761 L53.379,84.139 L53.503,83.536 L53.626,82.951 L53.749,82.384 L53.872,81.834 L53.995,81.302 L54.119,80.788 L54.242,80.29 L54.365,79.81 L54.488,79.346 L54.611,78.898 L54.734,78.468 L54.858,78.053 L54.981,77.654 L55.104,77.271 L55.227,76.904 L55.35,76.552 L55.473,76.216 L55.597,75.894 L55.72,75.588 L55.843,75.296 L55.966,75.019 L56.089,74.756 L56.213,74.507 L56.336,74.273 L56.459,74.052 L56.582,73.845 L56.705,73.651 L56.828,73.471 L56.951,73.304 L57.075,73.15 L57.198,73.009 L57.321,72.881 L57.444,72.765 L57.567,72.661 L57.691,72.57 L57.814,72.491 L57.937,72.424 L58.06,72.368 L58.183,72.324 L58.306,72.291 L58.43,72.27 L58.553,72.259 L58.676,72.26 L58.799,72.271 L58.922,72.293 L59.045,72.326 L59.169,72.369 L59.292,72.422 L59.415,72.485 L59.538,72.558 L59.661,72.64 L59.784,72.732 L59.908,72.834 L60.031,72.945 L60.154,73.066 L60.277,73.195 L60.4,73.333 L60.523,73.48 L60.647,73.635 L60.77,73.799 L60.893,73.972 L61.016,74.152 L61.139,74.34 L61.263,74.537 L61.386,74.741 L61.509,74.953 L61.632,75.173 L61.755,75.4 L61.878,75.634 L62.002,75.875 L62.125,76.123 L62.248,76.379 L62.371,76.641 L62.494,76.909 L62.617,77.184 L62.741,77.466 L62.864,77.754 L62.987,78.048 L63.11,78.348 L63.233,78.654 L63.356,78.966 L63.48,79.283 L63.603,79.606 L63.726,79.935 L63.849,80.268 L63.972,80.607 L64.095,80.951 L64.219,81.3 L64.342,81.654 L64.465,82.013 L64.588,82.376 L64.711,82.744 L64.834,83.117 L64.958,83.494 L65.081,83.875 L65.204,84.26 L65.327,84.649 L65.45,85.042 L65.574,85.439 L65.697,85.84 L65.82,86.244 L65.943,86.652 L66.066,87.063 L66.189,87.477 L66.313,87.895 L66.436,88.316 L66.559,88.74 L66.682,89.166 L66.805,89.596 L66.928,90.028 L67.052,90.464 L67.175,90.901 L67.298,91.341 L67.421,91.784 L67.544,92.228 L67.667,92.675 L67.791,93.125 L67.914,93.576 L68.037,94.029 L68.16,94.483 L68.283,94.94 L68.406,95.398 L68.53,95.859 L68.653,96.32 L68.776,96.783 L68.899,97.247 L69.022,97.713 L69.145,98.18 L69.269,98.648 L69.392,99.116 L69.515,99.586 L69.638,100.057 L69.761,100.529 L69.885,101.001 L70.008,101.474 L70.131,101.948 L70.254,102.422 L70.377,102.897 L70.5,103.372 L70.624,103.847 L70.747,104.322 L70.87,104.798 L70.993,105.274 L71.116,105.75 L71.239,106.226 L71.363,106.701 L71.486,107.177 L71.609,107.652 L71.732,108.128 L71.855,108.602 L71.978,109.077 L72.102,109.551 L72.225,110.024 L72.348,110.497 L72.471,110.969 L72.594,111.44 L72.717,111.911 L72.841,112.38 L72.964,112.849 L73.087,113.317 L73.21,113.784 L73.333,114.25 L73.457,114.715 L73.58,115.178 L73.703,115.641 L73.826,116.102 L73.949,116.562 L74.072,117.02 L74.196,117.478 L74.319,117.933 L74.442,118.387 L74.565,118.84 L74.688,119.291 L74.811,119.74 L74.935,120.188 L75.058,120.634 L75.181,121.078 L75.304,121.52 L75.427,121.96 L75.55,122.399 L75.674,122.835 L75.797,123.27 L75.92,123.702 L76.043,124.133 L76.166,124.561 L76.289,124.987 L76.413,125.411 L76.536,125.833 L76.659,126.252 L76.782,126.669 L76.905,127.084 L77.028,127.496 L77.152,127.907 L77.275,128.314 L77.398,128.719 L77.521,129.122 L77.644,129.522 L77.768,129.919 L77.891,130.314 L78.014,130.706 L78.137,131.096 L78.26,131.482 L78.383,131.866 L78.507,132.248 L78.63,132.626 L78.753,133.002 L78.876,133.375 L78.999,133.745 L79.122,134.112 L79.246,134.476 L79.369,134.838 L79.492,135.196 L79.615,135.551 L79.738,135.904 L79.861,136.253 L79.985,136.599 L80.108,136.942 L80.231,137.283 L80.354,137.619 L80.477,137.953 L80.6,138.284 L80.724,138.612 L80.847,138.936 L80.97,139.257 L81.093,139.575 L81.216,139.89 L81.339,140.201 L81.463,140.51 L81.586,140.814 L81.709,141.116 L81.832,141.414 L81.955,141.709 L82.079,142.001 L82.202,142.289 L82.325,142.574 L82.448,142.856 L82.571,143.134 L82.694,143.409 L82.818,143.68 L82.941,143.948 L83.064,144.213 L83.187,144.474 L83.31,144.732 L83.433,144.986 L83.557,145.237 L83.68,145.484 L83.803,145.728 L83.926,145.969 L84.049,146.206 L84.172,146.439 L84.296,146.669 L84.419,146.896 L84.542,147.119 L84.665,147.339 L84.788,147.555 L84.911,147.767 L85.035,147.976 L85.158,148.182 L85.281,148.384 L85.404,148.582 L85.527,148.778 L85.651,148.969 L85.774,149.157 L85.897,149.342 L86.02,149.523 L86.143,149.701 L86.266,149.875 L86.39,150.045 L86.513,150.213 L86.636,150.376 L86.759,150.537 L86.882,150.693 L87.005,150.847 L87.129,150.996 L87.252,151.143 L87.375,151.286 L87.498,151.425 L87.621,151.561 L87.744,151.694 L87.868,151.823 L87.991,151.949 L88.114,152.071 L88.237,152.19 L88.36,152.306 L88.483,152.418 L88.607,152.527 L88.73,152.633 L88.853,152.735 L88.976,152.834 L89.099,152.929 L89.223,153.021 L89.346,153.11 L89.469,153.196 L89.592,153.278 L89.715,153.358 L89.838,153.434 L89.961,153.506 L90.085,153.576 L90.208,153.642 L90.331,153.705 L90.454,153.765 L90.577,153.822 L90.701,153.875 L90.824,153.926 L90.947,153.973 L91.07,154.017 L91.193,154.058 L91.316,154.096 L91.44,154.132 L91.563,154.164 L91.686,154.193 L91.809,154.219 L91.932,154.242 L92.055,154.262 L92.179,154.279 L92.302,154.293 L92.425,154.305 L92.548,154.313 L92.671,154.319 L92.794,154.322 L92.918,154.322 L93.041,154.319 L93.164,154.314 L93.287,154.306 L93.41,154.295 L93.533,154.281 L93.657,154.265 L93.78,154.246 L93.903,154.224 L94.026,154.2 L94.149,154.173 L94.273,154.143 L94.396,154.112 L94.519,154.077 L94.642,154.04 L94.765,154.001 L94.888,153.959 L95.012,153.915 L95.135,153.868 L95.258,153.819 L95.381,153.768 L95.504,153.714 L95.627,153.658 L95.751,153.6 L95.874,153.539 L95.997,153.477 L96.12,153.412 L96.243,153.345 L96.366,153.276 L96.49,153.205 L96.613,153.131 L96.736,153.056 L96.859,152.979 L96.982,152.899 L97.105,152.818 L97.229,152.735 L97.352,152.65 L97.475,152.563 L97.598,152.474 L97.721,152.383 L97.845,152.291 L97.968,152.197 L98.091,152.101 L98.214,152.003 L98.337,151.904 L98.46,151.803 L98.583,151.701 L98.707,151.597 L98.83,151.491 L98.953,151.384 L99.076,151.275 L99.199,151.165 L99.323,151.054 L99.446,150.941 L99.569,150.827 L99.692,150.711 L99.815,150.594 L99.938,150.476 L100.062,150.357 L100.185,150.236 L100.308,150.115 L100.431,149.992 L100.554,149.868 L100.677,149.743 L100.801,149.617 L100.924,149.49 L101.047,149.362 L101.17,149.233 L101.293,149.103 L101.417,148.973 L101.54,148.841 L101.663,148.709 L101.786,148.576 L101.909,148.442 L102.032,148.307 L102.155,148.172 L102.279,148.036 L102.402,147.9 L102.525,147.763 L102.648,147.625 L102.771,147.487 L102.895,147.348 L103.018,147.209 L103.141,147.07 L103.264,146.93 L103.387,146.79 L103.51,146.65 L103.634,146.509 L103.757,146.369 L103.88,146.227 L104.003,146.086 L104.126,145.945 L104.249,145.804 L104.373,145.662 L104.496,145.521 L104.619,145.379 L104.742,145.238 L104.865,145.096 L104.988,144.955 L105.112,144.814 L105.235,144.673 L105.358,144.533 L105.481,144.392 L105.604,144.252 L105.727,144.112 L105.851,143.973 L105.974,143.834 L106.097,143.695 L106.22,143.557 L106.343,143.419 L106.467,143.282 L106.59,143.145 L106.713,143.009 L106.836,142.874 L106.959,142.739 L107.082,142.605 L107.206,142.472 L107.329,142.34 L107.452,142.208 L107.575,142.077 L107.698,141.947 L107.821,141.818 L107.945,141.69 L108.068,141.563 L108.191,141.436 L108.314,141.312 L108.437,141.187 L108.56,141.065 L108.684,140.943 L108.807,140.822 L108.93,140.703 L109.053,140.585 L109.176,140.468 L109.299,140.352 L109.423,140.238 L109.546,140.125 L109.669,140.014 L109.792,139.904 L109.915,139.795 L110.039,139.688 L110.162,139.583 L110.285,139.479 L110.408,139.377 L110.531,139.276 L110.654,139.177 L110.777,139.08 L110.901,138.984 L111.024,138.891 L111.147,138.799 L111.27,138.709 L111.393,138.62 L111.517,138.534 L111.64,138.449 L111.763,138.367 L111.886,138.287 L112.009,138.208 L112.132,138.132 L112.256,138.057 L112.379,137.985 L112.502,137.915 L112.625,137.847 L112.748,137.781 L112.871,137.718 L112.995,137.657 L113.118,137.598 L113.241,137.541 L113.364,137.487 L113.487,137.435 L113.611,137.385 L113.734,137.338 L113.857,137.294 L113.98,137.251 L114.103,137.212 L114.226,137.175 L114.349,137.14 L114.473,137.108 L114.596,137.079 L114.719,137.053 L114.842,137.029 L114.965,137.008 L115.089,136.989 L115.212,136.974 L115.335,136.961 L115.458,136.951 L115.581,136.943 L115.704,136.939 L115.828,136.938 L115.951,136.939 L116.074,136.943 L116.197,136.951 L116.32,136.961 L116.443,136.974 L116.567,136.991 L116.69,137.01 L116.813,137.033 L116.936,137.059 L117.059,137.087 L117.182,137.119 L117.306,137.155 L117.429,137.193 L117.552,137.235 L117.675,137.279 L117.798,137.328 L117.921,137.379 L118.045,137.434 L118.168,137.492 L118.291,137.553 L118.414,137.618 L118.537,137.686 L118.661,137.758 L118.784,137.832 L118.907,137.911 L119.03,137.993 L119.153,138.078 L119.276,138.167 L119.4,138.26 L119.523,138.356 L119.646,138.455 L119.769,138.558 L119.892,138.665 L120.015,138.775 L120.139,138.889 L120.262,139.007 L120.385,139.128 L120.508,139.253 L120.631,139.382 L120.754,139.514 L120.878,139.65 L121.001,139.79 L121.124,139.933 L121.247,140.081 L121.37,140.232 L121.493,140.386 L121.617,140.545 L121.74,140.707 L121.863,140.874 L121.986,141.044 L122.109,141.217 L122.233,141.395 L122.356,141.577 L122.479,141.762 L122.602,141.952 L122.725,142.145 L122.848,142.342 L122.971,142.543 L123.095,142.748 L123.218,142.957 L123.341,143.17 L123.464,143.387 L123.587,143.607 L123.711,143.832 L123.834,144.061 L123.957,144.293 L124.08,144.53 L124.203,144.77 L124.326,145.014 L124.45,145.263 L124.573,145.515 L124.696,145.772 L124.819,146.032 L124.942,146.297 L125.065,146.565 L125.189,146.837 L125.312,147.114 L125.435,147.394 L125.558,147.678 L125.681,147.967 L125.804,148.259 L125.928,148.555 L126.051,148.856 L126.174,149.16 L126.297,149.468 L126.42,149.78 L126.543,150.096 L126.667,150.417 L126.79,150.741 L126.913,151.069 L127.036,151.401 L127.159,151.737 L127.283,152.077 L127.406,152.421 L127.529,152.769 L127.652,153.121 L127.775,153.476 L127.898,153.836 L128.022,154.199 L128.145,154.567 L128.268,154.938 L128.391,155.313 L128.514,155.692 L128.637,156.075 L128.761,156.462 L128.884,156.852 L129.007,157.246 L129.13,157.645 L129.253,158.046 L129.376,158.452 L129.5,158.861 L129.623,159.275 L129.746,159.692 L129.869,160.112 L129.992,160.536 L130.115,160.964 L130.239,161.396 L130.362,161.831 L130.485,162.27 L130.608,162.712 L130.731,163.158 L130.855,163.608 L130.978,164.061 L131.101,164.518 L131.224,164.978 L131.347,165.441 L131.47,165.908 L131.594,166.379 L131.717,166.853 L131.84,167.33 L131.963,167.81 L132.086,168.294 L132.209,168.781 L132.333,169.272 L132.456,169.766 L132.579,170.262 L132.702,170.762 L132.825,171.266 L132.948,171.772 L133.072,172.281 L133.195,172.794 L133.318,173.309 L133.441,173.828 L133.564,174.349 L133.687,174.874 L133.811,175.401 L133.934,175.931 L134.057,176.464 L134.18,177 L134.303,177.538 L134.427,178.08 L134.55,178.623 L134.673,179.17 L134.796,179.719 L134.919,180.271 L135.042,180.825 L135.165,181.382 L135.289,181.941 L135.412,182.502 L135.535,183.066 L135.658,183.632 L135.781,184.201 L135.905,184.771 L136.028,185.344 L136.151,185.919 L136.274,186.496 L136.397,187.075 L136.52,187.656 L136.644,188.239 L136.767,188.824 L136.89,189.41 L137.013,189.999 L137.136,190.589 L137.259,191.181 L137.383,191.774 L137.506,192.369 L137.629,192.966 L137.752,193.564 L137.875,194.164 L137.998,194.764 L138.122,195.366 L138.245,195.97 L138.368,196.574 L138.491,197.18 L138.614,197.787 L138.737,198.394 L138.861,199.003 L138.984,199.613 L139.107,200.223 L139.23,200.834 L139.353,201.446 L139.477,202.058 L139.6,202.671 L139.723,203.285 L139.846,203.899 L139.969,204.513 L140.092,205.128 L140.216,205.742 L140.339,206.357 L140.462,206.972 L140.585,207.587 L140.708,208.203 L140.831,208.817 L140.955,209.432 L141.078,210.046 L141.201,210.66 L141.324,211.274 L141.447,211.887 L141.57,212.499 L141.694,213.111 L141.817,213.722 L141.94,214.333 L142.063,214.942 L142.186,215.55 L142.309,216.158 L142.433,216.764 L142.556,217.369 L142.679,217.973 L142.802,218.575 L142.925,219.176 L143.049,219.775 L143.172,220.372 L143.295,220.968 L143.418,221.562 L143.541,222.154 L143.664,222.744 L143.787,223.332 L143.911,223.918 L144.034,224.501 L144.157,225.082 L144.28,225.661 L144.403,226.237 L144.527,226.81 L144.65,227.381 L144.773,227.948 L144.896,228.513 L145.019,229.075 L145.142,229.633 L145.266,230.189 L145.389,230.74 L145.512,231.289 L145.635,231.834 L145.758,232.375 L145.881,232.912 L146.005,233.446 L146.128,233.975 L146.251,234.501 L146.374,235.022 L146.497,235.539 L146.621,236.051 L146.744,236.559 L146.867,237.062 L146.99,237.56 L147.113,238.054 L147.236,238.542 L147.359,239.026 L147.483,239.504 L147.606,239.977 L147.729,240.444 L147.852,240.906 L147.975,241.362 L148.099,241.812 L148.222,242.256 L148.345,242.695 L148.468,243.127 L148.591,243.552 L148.714,243.972 L148.838,244.384 L148.961,244.79 L149.084,245.189 L149.207,245.581 L149.33,245.966 L149.453,246.344 L149.577,246.715 L149.7,247.078 L149.823,247.433 L149.946,247.781 L150.069,248.12 L150.192,248.452 L150.316,248.776 L150.439,249.091 L150.562,249.397 L150.685,249.696 L150.808,249.985 L150.931,250.265 L151.055,250.537 L151.178,250.799 L151.301,251.052 L151.424,251.296 L151.547,251.53 L151.671,251.754 L151.794,251.969 L151.917,252.173 L152.04,252.367 L152.163,252.551 L152.286,252.724 L152.41,252.886 L152.533,253.038 L152.656,253.179 L152.779,253.309 L152.902,253.427 L153.025,253.534 L153.149,253.629 L153.272,253.713 L153.395,253.784 L153.518,253.844 L153.641,253.891 L153.764,253.926 L153.888,253.948 L154.011,253.957 L154.134,253.954 L154.257,253.937 L154.38,253.908 L154.503,253.864 L154.627,253.807 L154.75,253.737 L154.873,253.652 L154.996,253.553 L155.119,253.44 L155.243,253.312 L155.366,253.17 L155.489,253.013 L155.612,252.841 L155.735,252.654 L155.858,252.451 L155.981,252.233 L156.105,251.998 L156.228,251.748 L156.351,251.482 L156.474,251.199 L156.597,250.901 L156.721,250.585 L156.844,250.252 L156.967,249.902 L157.09,249.535 L157.213,249.151 L157.336,248.748 L157.46,248.328 L157.583,247.89 L157.706,247.434 L157.829,246.959 L157.952,246.465 L158.075,245.953 L158.199,245.421 L158.322,244.87 L158.445,244.3 L158.568,243.71 L158.691,243.1 L158.815,242.47 L158.938,241.819 L159.061,241.148 L159.184,240.456 L159.307,239.744 L159.43,239.01 L159.553,238.254 L159.677,237.478 L159.8,236.679 L159.923,235.858 L160.046,235.015 L160.169,234.149 L160.293,233.261 L160.416,232.35 L160.539,231.415 L160.662,230.457 L160.785,229.476 L160.908,228.471 L161.032,227.441 L161.155,226.387 L161.278,225.309 L161.401,224.206 L161.524,223.078 L161.647,221.925 L161.771,220.746 L161.894,219.541 L162.017,218.311 L162.14,217.054 L162.263,215.771 L162.386,214.461 L162.51,213.124 L162.633,211.76 L162.756,210.368 L162.879,208.949 L163.002,207.502 L163.125,206.027 L163.249,204.523 L163.372,202.991 L163.495,201.429 L163.618,199.839 L163.741,198.219 L163.865,196.569 L163.988,194.889 L164.111,193.179 L164.234,191.439 L164.357,189.667 L164.48,187.865 L164.604,186.032 L164.727,184.167 L164.85,182.27 L164.973,180.341 L165.096,178.379 L165.219,176.385 L165.343,174.358 L165.466,172.298 L165.589,170.205 L165.712,168.078 L165.835,165.916 L165.958,163.721 L166.082,161.491 L166.205,159.226 L166.328,156.926 L166.451,154.59 L166.574,152.219 L166.697,149.811 L166.821,147.368 L166.944,144.888 L167.067,142.371 L167.19,139.817 L167.313,137.225 L167.437,134.596 L167.56,131.928 L167.683,129.223 L167.806,126.478 L167.929,123.695 L168.052,120.873 L168.175,118.011 L168.299,115.109 L168.422,112.167 L168.545,109.184 L168.668,106.161 L168.791,103.097 L168.915,99.991 L169.038,96.844 L169.161,93.654 L169.284,90.422 L169.407,87.148 L169.53,83.831 L169.654,80.47 L169.777,77.066 L169.9,73.617 L170.023,70.125 L170.146,66.588 L170.269,63.006 L170.393,59.379 "/>
            </g>
            <g id="plot-2">
                <path clip-path="url(#plot-area)" d="M33.303,59.958 L33.426,60.125 L33.549,60.292 L33.672,60.459 L33.795,60.626 L33.918,60.793 L34.042,60.961 L34.165,61.128 L34.288,61.295 L34.411,61.462 L34.534,61.629 L34.657,61.796 L34.781,61.963 L34.904,62.13 L35.027,62.297 L35.15,62.464 L35.273,62.631 L35.396,62.798 L35.52,62.965 L35.643,63.132 L35.766,63.299 L35.889,63.466 L36.012,63.633 L36.135,63.8 L36.259,63.967 L36.382,64.135 L36.505,64.302 L36.628,64.469 L36.751,64.636 L36.875,64.803 L36.998,64.97 L37.121,65.137 L37.244,65.304 L37.367,65.471 L37.49,65.638 L37.614,65.805 L37.737,65.972 L37.86,66.139 L37.983,66.306 L38.106,66.473 L38.229,66.64 L38.353,66.807 L38.476,66.974 L38.599,67.141 L38.722,67.309 L38.845,67.475 L38.968,67.643 L39.092,67.81 L39.215,67.977 L39.338,68.144 L39.461,68.311 L39.584,68.478 L39.707,68.645 L39.831,68.812 L39.954,68.979 L40.077,69.146 L40.2,69.313 L40.323,69.48 L40.447,69.647 L40.57,69.814 L40.693,69.981 L40.816,70.148 L40.939,70.315 L41.062,70.483 L41.185,70.649 L41.309,70.817 L41.432,70.984 L41.555,71.151 L41.678,71.318 L41.801,71.485 L41.925,71.652 L42.048,71.819 L42.171,71.986 L42.294,72.153 L42.417,72.32 L42.54,72.487 L42.664,72.654 L42.787,72.821 L42.91,72.988 L43.033,73.155 L43.156,73.322 L43.279,73.489 L43.403,73.657 L43.526,73.823 L43.649,73.991 L43.772,74.158 L43.895,74.325 L44.019,74.492 L44.142,74.659 L44.265,74.826 L44.388,74.993 L44.511,75.16 L44.634,75.327 L44.757,75.494 L44.881,75.661 L45.004,75.828 L45.127,75.995 L45.25,76.162 L45.373,76.329 L45.497,76.496 L45.62,76.663 L45.743,76.831 L45.866,76.997 L45.989,77.165 L46.112,77.332 L46.236,77.499 L46.359,77.666 L46.482,77.833 L46.605,78 L46.728,78.167 L46.851,78.334 L46.975,78.501 L47.098,78.668 L47.221,78.835 L47.344,79.002 L47.467,79.169 L47.59,79.336 L47.714,79.503 L47.837,79.67 L47.96,79.837 L48.083,80.005 L48.206,80.171 L48.329,80.339 L48.453,80.506 L48.576,80.673 L48.699,80.84 L48.822,81.007 L48.945,81.174 L49.069,81.341 L49.192,81.508 L49.315,81.675 L49.438,81.842 L49.561,82.009 L49.684,82.176 L49.808,82.343 L49.931,82.51 L50.054,82.677 L50.177,82.844 L50.3,83.011 L50.423,83.178 L50.547,83.345 L50.67,83.512 L50.793,83.68 L50.916,83.847 L51.039,84.014 L51.162,84.181 L51.286,84.348 L51.409,84.515 L51.532,84.682 L51.655,84.849 L51.778,85.016 L51.901,85.183 L52.025,85.35 L52.148,85.517 L52.271,85.684 L52.394,85.851 L52.517,86.018 L52.641,86.185 L52.764,86.352 L52.887,86.519 L53.01,86.686 L53.133,86.854 L53.256,87.021 L53.379,87.188 L53.503,87.355 L53.626,87.522 L53.749,87.689 L53.872,87.856 L53.995,88.023 L54.119,88.19 L54.242,88.357 L54.365,88.524 L54.488,88.691 L54.611,88.858 L54.734,89.025 L54.858,89.192 L54.981,89.359 L55.104,89.526 L55.227,89.693 L55.35,89.86 L55.473,90.028 L55.597,90.195 L55.72,90.362 L55.843,90.529 L55.966,90.696 L56.089,90.863 L56.213,91.03 L56.336,91.197 L56.459,91.364 L56.582,91.531 L56.705,91.698 L56.828,91.865 L56.951,92.032 L57.075,92.199 L57.198,92.366 L57.321,92.533 L57.444,92.7 L57.567,92.867 L57.691,93.034 L57.814,93.202 L57.937,93.369 L58.06,93.536 L58.183,93.703 L58.306,93.87 L58.43,94.037 L58.553,94.204 L58.676,94.371 L58.799,94.538 L58.922,94.705 L59.045,94.872 L59.169,95.039 L59.292,95.206 L59.415,95.373 L59.538,95.54 L59.661,95.707 L59.784,95.874 L59.908,96.041 L60.031,96.208 L60.154,96.376 L60.277,96.543 L60.4,96.71 L60.523,96.877 L60.647,97.044 L60.77,97.211 L60.893,97.378 L61.016,97.545 L61.139,97.712 L61.263,97.879 L61.386,98.046 L61.509,98.213 L61.632,98.38 L61.755,98.547 L61.878,98.714 L62.002,98.881 L62.125,99.048 L62.248,99.215 L62.371,99.382 L62.494,99.55 L62.617,99.716 L62.741,99.884 L62.864,100.051 L62.987,100.218 L63.11,100.385 L63.233,100.552 L63.356,100.719 L63.48,100.886 L63.603,101.053 L63.726,101.22 L63.849,101.387 L63.972,101.554 L64.095,101.721 L64.219,101.888 L64.342,102.055 L64.465,102.222 L64.588,102.389 L64.711,102.556 L64.834,102.724 L64.958,102.89 L65.081,103.058 L65.204,103.225 L65.327,103.392 L65.45,103.559 L65.574,103.726 L65.697,103.893 L65.82,104.06 L65.943,104.227 L66.066,104.394 L66.189,104.561 L66.313,104.728 L66.436,104.895 L66.559,105.062 L66.682,105.229 L66.805,105.396 L66.928,105.563 L67.052,105.73 L67.175,105.897 L67.298,106.064 L67.421,106.231 L67.544,106.399 L67.667,106.566 L67.791,106.733 L67.914,106.9 L68.037,107.067 L68.16,107.234 L68.283,107.401 L68.406,107.568 L68.53,107.735 L68.653,107.902 L68.776,108.069 L68.899,108.236 L69.022,108.403 L69.145,108.57 L69.269,108.737 L69.392,108.904 L69.515,109.071 L69.638,109.238 L69.761,109.405 L69.885,109.573 L70.008,109.74 L70.131,109.907 L70.254,110.074 L70.377,110.241 L70.5,110.408 L70.624,110.575 L70.747,110.742 L70.87,110.909 L70.993,111.076 L71.116,111.243 L71.239,111.41 L71.363,111.577 L71.486,111.744 L71.609,111.911 L71.732,112.078 L71.855,112.245 L71.978,112.412 L72.102,112.579 L72.225,112.747 L72.348,112.914 L72.471,113.081 L72.594,113.248 L72.717,113.415 L72.841,113.582 L72.964,113.749 L73.087,113.916 L73.21,114.083 L73.333,114.25 L73.457,114.417 L73.58,114.584 L73.703,114.751 L73.826,114.918 L73.949,115.085 L74.072,115.252 L74.196,115.419 L74.319,115.586 L74.442,115.753 L74.565,115.921 L74.688,116.088 L74.811,116.255 L74.935,116.422 L75.058,116.589 L75.181,116.756 L75.304,116.923 L75.427,117.09 L75.55,117.257 L75.674,117.424 L75.797,117.591 L75.92,117.758 L76.043,117.925 L76.166,118.092 L76.289,118.259 L76.413,118.426 L76.536,118.593 L76.659,118.76 L76.782,118.927 L76.905,119.095 L77.028,119.262 L77.152,119.429 L77.275,119.596 L77.398,119.763 L77.521,119.93 L77.644,120.097 L77.768,120.264 L77.891,120.431 L78.014,120.598 L78.137,120.765 L78.26,120.932 L78.383,121.099 L78.507,121.266 L78.63,121.433 L78.753,121.6 L78.876,121.767 L78.999,121.934 L79.122,122.101 L79.246,122.269 L79.369,122.436 L79.492,122.603 L79.615,122.77 L79.738,122.937 L79.861,123.104 L79.985,123.271 L80.108,123.438 L80.231,123.605 L80.354,123.772 L80.477,123.939 L80.6,124.106 L80.724,124.273 L80.847,124.44 L80.97,124.607 L81.093,124.774 L81.216,124.941 L81.339,125.108 L81.463,125.275 L81.586,125.442 L81.709,125.61 L81.832,125.776 L81.955,125.944 L82.079,126.111 L82.202,126.278 L82.325,126.445 L82.448,126.612 L82.571,126.779 L82.694,126.946 L82.818,127.113 L82.941,127.28 L83.064,127.447 L83.187,127.614 L83.31,127.781 L83.433,127.948 L83.557,128.115 L83.68,128.282 L83.803,128.449 L83.926,128.616 L84.049,128.784 L84.172,128.95 L84.296,129.118 L84.419,129.285 L84.542,129.452 L84.665,129.619 L84.788,129.786 L84.911,129.953 L85.035,130.12 L85.158,130.287 L85.281,130.454 L85.404,130.621 L85.527,130.788 L85.651,130.955 L85.774,131.122 L85.897,131.289 L86.02,131.456 L86.143,131.623 L86.266,131.79 L86.39,131.957 L86.513,132.124 L86.636,132.292 L86.759,132.459 L86.882,132.626 L87.005,132.793 L87.129,132.96 L87.252,133.127 L87.375,133.294 L87.498,133.461 L87.621,133.628 L87.744,133.795 L87.868,133.962 L87.991,134.129 L88.114,134.296 L88.237,134.463 L88.36,134.63 L88.483,134.797 L88.607,134.964 L88.73,135.131 L88.853,135.298 L88.976,135.466 L89.099,135.633 L89.223,135.8 L89.346,135.967 L89.469,136.134 L89.592,136.301 L89.715,136.468 L89.838,136.635 L89.961,136.802 L90.085,136.969 L90.208,137.136 L90.331,137.303 L90.454,137.47 L90.577,137.637 L90.701,137.804 L90.824,137.971 L90.947,138.138 L91.07,138.305 L91.193,138.472 L91.316,138.64 L91.44,138.807 L91.563,138.974 L91.686,139.141 L91.809,139.308 L91.932,139.475 L92.055,139.642 L92.179,139.809 L92.302,139.976 L92.425,140.143 L92.548,140.31 L92.671,140.477 L92.794,140.644 L92.918,140.811 L93.041,140.978 L93.164,141.145 L93.287,141.312 L93.41,141.479 L93.533,141.646 L93.657,141.814 L93.78,141.981 L93.903,142.148 L94.026,142.315 L94.149,142.482 L94.273,142.649 L94.396,142.816 L94.519,142.983 L94.642,143.15 L94.765,143.317 L94.888,143.484 L95.012,143.651 L95.135,143.818 L95.258,143.985 L95.381,144.152 L95.504,144.319 L95.627,144.486 L95.751,144.653 L95.874,144.82 L95.997,144.988 L96.12,145.155 L96.243,145.322 L96.366,145.489 L96.49,145.656 L96.613,145.823 L96.736,145.99 L96.859,146.157 L96.982,146.324 L97.105,146.491 L97.229,146.658 L97.352,146.825 L97.475,146.992 L97.598,147.159 L97.721,147.326 L97.845,147.493 L97.968,147.66 L98.091,147.827 L98.214,147.994 L98.337,148.161 L98.46,148.329 L98.583,148.495 L98.707,148.663 L98.83,148.83 L98.953,148.997 L99.076,149.164 L99.199,149.331 L99.323,149.498 L99.446,149.665 L99.569,149.832 L99.692,149.999 L99.815,150.166 L99.938,150.333 L100.062,150.5 L100.185,150.667 L100.308,150.834 L100.431,151.001 L100.554,151.168 L100.677,151.335 L100.801,151.502 L100.924,151.67 L101.047,151.837 L101.17,152.004 L101.293,152.171 L101.417,152.338 L101.54,152.505 L101.663,152.672 L101.786,152.839 L101.909,153.006 L102.032,153.173 L102.155,153.34 L102.279,153.507 L102.402,153.674 L102.525,153.841 L102.648,154.008 L102.771,154.175 L102.895,154.342 L103.018,154.509 L103.141,154.676 L103.264,154.844 L103.387,155.011 L103.51,155.178 L103.634,155.345 L103.757,155.512 L103.88,155.679 L104.003,155.846 L104.126,156.013 L104.249,156.18 L104.373,156.347 L104.496,156.514 L104.619,156.681 L104.742,156.848 L104.865,157.015 L104.988,157.182 L105.112,157.349 L105.235,157.516 L105.358,157.683 L105.481,157.85 L105.604,158.018 L105.727,158.185 L105.851,158.352 L105.974,158.519 L106.097,158.686 L106.22,158.853 L106.343,159.02 L106.467,159.187 L106.59,159.354 L106.713,159.521 L106.836,159.688 L106.959,159.855 L107.082,160.022 L107.206,160.189 L107.329,160.356 L107.452,160.523 L107.575,160.69 L107.698,160.857 L107.821,161.024 L107.945,161.191 L108.068,161.359 L108.191,161.526 L108.314,161.693 L108.437,161.86 L108.56,162.027 L108.684,162.194 L108.807,162.361 L108.93,162.528 L109.053,162.695 L109.176,162.862 L109.299,163.029 L109.423,163.196 L109.546,163.363 L109.669,163.53 L109.792,163.697 L109.915,163.864 L110.039,164.031 L110.162,164.198 L110.285,164.365 L110.408,164.533 L110.531,164.7 L110.654,164.867 L110.777,165.034 L110.901,165.201 L111.024,165.368 L111.147,165.535 L111.27,165.702 L111.393,165.869 L111.517,166.036 L111.64,166.203 L111.763,166.37 L111.886,166.537 L112.009,166.704 L112.132,166.871 L112.256,167.038 L112.379,167.205 L112.502,167.372 L112.625,167.539 L112.748,167.707 L112.871,167.874 L112.995,168.041 L113.118,168.208 L113.241,168.375 L113.364,168.542 L113.487,168.709 L113.611,168.876 L113.734,169.043 L113.857,169.21 L113.98,169.377 L114.103,169.544 L114.226,169.711 L114.349,169.878 L114.473,170.045 L114.596,170.212 L114.719,170.379 L114.842,170.546 L114.965,170.713 L115.089,170.88 L115.212,171.048 L115.335,171.215 L115.458,171.382 L115.581,171.549 L115.704,171.716 L115.828,171.883 L115.951,172.05 L116.074,172.217 L116.197,172.384 L116.32,172.551 L116.443,172.718 L116.567,172.885 L116.69,173.052 L116.813,173.219 L116.936,173.386 L117.059,173.553 L117.182,173.72 L117.306,173.887 L117.429,174.054 L117.552,174.222 L117.675,174.389 L117.798,174.556 L117.921,174.723 L118.045,174.89 L118.168,175.057 L118.291,175.224 L118.414,175.391 L118.537,175.558 L118.661,175.725 L118.784,175.892 L118.907,176.059 L119.03,176.226 L119.153,176.393 L119.276,176.56 L119.4,176.727 L119.523,176.894 L119.646,177.061 L119.769,177.228 L119.892,177.395 L120.015,177.563 L120.139,177.73 L120.262,177.897 L120.385,178.064 L120.508,178.231 L120.631,178.398 L120.754,178.565 L120.878,178.732 L121.001,178.899 L121.124,179.066 L121.247,179.233 L121.37,179.4 L121.493,179.567 L121.617,179.734 L121.74,179.901 L121.863,180.068 L121.986,180.235 L122.109,180.402 L122.233,180.569 L122.356,180.737 L122.479,180.904 L122.602,181.071 L122.725,181.238 L122.848,181.405 L122.971,181.572 L123.095,181.739 L123.218,181.906 L123.341,182.073 L123.464,182.24 L123.587,182.407 L123.711,182.574 L123.834,182.741 L123.957,182.908 L124.08,183.075 L124.203,183.242 L124.326,183.409 L124.45,183.576 L124.573,183.743 L124.696,183.911 L124.819,184.078 L124.942,184.245 L125.065,184.412 L125.189,184.579 L125.312,184.746 L125.435,184.913 L125.558,185.08 L125.681,185.247 L125.804,185.414 L125.928,185.581 L126.051,185.748 L126.174,185.915 L126.297,186.082 L126.42,186.249 L126.543,186.416 L126.667,186.583 L126.79,186.75 L126.913,186.918 L127.036,187.084 L127.159,187.252 L127.283,187.419 L127.406,187.586 L127.529,187.753 L127.652,187.92 L127.775,188.087 L127.898,188.254 L128.022,188.421 L128.145,188.588 L128.268,188.755 L128.391,188.922 L128.514,189.089 L128.637,189.256 L128.761,189.423 L128.884,189.59 L129.007,189.757 L129.13,189.924 L129.253,190.092 L129.376,190.258 L129.5,190.425 L129.623,190.593 L129.746,190.76 L129.869,190.927 L129.992,191.094 L130.115,191.261 L130.239,191.428 L130.362,191.595 L130.485,191.762 L130.608,191.929 L130.731,192.096 L130.855,192.263 L130.978,192.43 L131.101,192.597 L131.224,192.764 L131.347,192.931 L131.47,193.098 L131.594,193.265 L131.717,193.432 L131.84,193.599 L131.963,193.767 L132.086,193.934 L132.209,194.101 L132.333,194.268 L132.456,194.435 L132.579,194.602 L132.702,194.769 L132.825,194.936 L132.948,195.103 L133.072,195.27 L133.195,195.437 L133.318,195.604 L133.441,195.771 L133.564,195.938 L133.687,196.105 L133.811,196.272 L133.934,196.439 L134.057,196.606 L134.18,196.773 L134.303,196.941 L134.427,197.108 L134.55,197.275 L134.673,197.442 L134.796,197.609 L134.919,197.776 L135.042,197.943 L135.165,198.11 L135.289,198.277 L135.412,198.444 L135.535,198.611 L135.658,198.778 L135.781,198.945 L135.905,199.112 L136.028,199.279 L136.151,199.446 L136.274,199.613 L136.397,199.78 L136.52,199.947 L136.644,200.115 L136.767,200.282 L136.89,200.449 L137.013,200.616 L137.136,200.783 L137.259,200.95 L137.383,201.117 L137.506,201.284 L137.629,201.451 L137.752,201.618 L137.875,201.785 L137.998,201.952 L138.122,202.119 L138.245,202.286 L138.368,202.453 L138.491,202.62 L138.614,202.787 L138.737,202.954 L138.861,203.121 L138.984,203.289 L139.107,203.456 L139.23,203.623 L139.353,203.79 L139.477,203.957 L139.6,204.124 L139.723,204.291 L139.846,204.458 L139.969,204.625 L140.092,204.792 L140.216,204.959 L140.339,205.126 L140.462,205.293 L140.585,205.46 L140.708,205.627 L140.831,205.794 L140.955,205.961 L141.078,206.128 L141.201,206.295 L141.324,206.463 L141.447,206.63 L141.57,206.797 L141.694,206.964 L141.817,207.131 L141.94,207.298 L142.063,207.465 L142.186,207.632 L142.309,207.799 L142.433,207.966 L142.556,208.133 L142.679,208.3 L142.802,208.467 L142.925,208.634 L143.049,208.801 L143.172,208.968 L143.295,209.135 L143.418,209.302 L143.541,209.469 L143.664,209.637 L143.787,209.803 L143.911,209.971 L144.034,210.138 L144.157,210.305 L144.28,210.472 L144.403,210.639 L144.527,210.806 L144.65,210.973 L144.773,211.14 L144.896,211.307 L145.019,211.474 L145.142,211.641 L145.266,211.808 L145.389,211.975 L145.512,212.142 L145.635,212.309 L145.758,212.476 L145.881,212.643 L146.005,212.81 L146.128,212.977 L146.251,213.144 L146.374,213.312 L146.497,213.479 L146.621,213.646 L146.744,213.813 L146.867,213.98 L146.99,214.147 L147.113,214.314 L147.236,214.481 L147.359,214.648 L147.483,214.815 L147.606,214.982 L147.729,215.149 L147.852,215.316 L147.975,215.483 L148.099,215.65 L148.222,215.817 L148.345,215.984 L148.468,216.151 L148.591,216.318 L148.714,216.486 L148.838,216.653 L148.961,216.82 L149.084,216.987 L149.207,217.154 L149.33,217.321 L149.453,217.488 L149.577,217.655 L149.7,217.822 L149.823,217.989 L149.946,218.156 L150.069,218.323 L150.192,218.49 L150.316,218.657 L150.439,218.824 L150.562,218.991 L150.685,219.158 L150.808,219.325 L150.931,219.492 L151.055,219.66 L151.178,219.827 L151.301,219.994 L151.424,220.161 L151.547,220.328 L151.671,220.495 L151.794,220.662 L151.917,220.829 L152.04,220.996 L152.163,221.163 L152.286,221.33 L152.41,221.497 L152.533,221.664 L152.656,221.831 L152.779,221.998 L152.902,222.165 L153.025,222.332 L153.149,222.499 L153.272,222.666 L153.395,222.834 L153.518,223.001 L153.641,223.168 L153.764,223.335 L153.888,223.502 L154.011,223.669 L154.134,223.836 L154.257,224.003 L154.38,224.17 L154.503,224.337 L154.627,224.504 L154.75,224.671 L154.873,224.838 L154.996,225.005 L155.119,225.172 L155.243,225.339 L155.366,225.506 L155.489,225.673 L155.612,225.84 L155.735,226.008 L155.858,226.175 L155.981,226.342 L156.105,226.509 L156.228,226.676 L156.351,226.843 L156.474,227.01 L156.597,227.177 L156.721,227.344 L156.844,227.511 L156.967,227.678 L157.09,227.845 L157.213,228.012 L157.336,228.179 L157.46,228.346 L157.583,228.513 L157.706,228.68 L157.829,228.847 L157.952,229.014 L158.075,229.182 L158.199,229.349 L158.322,229.516 L158.445,229.683 L158.568,229.85 L158.691,230.017 L158.815,230.184 L158.938,230.351 L159.061,230.518 L159.184,230.685 L159.307,230.852 L159.43,231.019 L159.553,231.186 L159.677,231.353 L159.8,231.52 L159.923,231.687 L160.046,231.854 L160.169,232.021 L160.293,232.188 L160.416,232.356 L160.539,232.523 L160.662,232.69 L160.785,232.857 L160.908,233.024 L161.032,233.191 L161.155,233.358 L161.278,233.525 L161.401,233.692 L161.524,233.859 L161.647,234.026 L161.771,234.193 L161.894,234.36 L162.017,234.527 L162.14,234.694 L162.263,234.861 L162.386,235.028 L162.51,235.195 L162.633,235.362 L162.756,235.529 L162.879,235.697 L163.002,235.863 L163.125,236.031 L163.249,236.198 L163.372,236.365 L163.495,236.532 L163.618,236.699 L163.741,236.866 L163.865,237.033 L163.988,237.2 L164.111,237.367 L164.234,237.534 L164.357,237.701 L164.48,237.868 L164.604,238.035 L164.727,238.202 L164.85,238.369 L164.973,238.536 L165.096,238.703 L165.219,238.87 L165.343,239.037 L165.466,239.205 L165.589,239.372 L165.712,239.539 L165.835,239.706 L165.958,239.873 L166.082,240.04 L166.205,240.207 L166.328,240.374 L166.451,240.541 L166.574,240.708 L166.697,240.875 L166.821,241.042 L166.944,241.209 L167.067,241.376 L167.19,241.543 L167.313,241.71 L167.437,241.877 L167.56,242.044 L167.683,242.211 L167.806,242.379 L167.929,242.546 L168.052,242.713 L168.175,242.88 L168.299,243.047 L168.422,243.214 L168.545,243.381 L168.668,243.548 L168.791,243.715 L168.915,243.882 L169.038,244.049 L169.161,244.216 L169.284,244.383 L169.407,244.55 L169.53,244.717 L169.654,244.884 L169.777,245.051 L169.9,245.218 L170.023,245.385 L170.146,245.553 L170.269,245.72 L170.393,245.887 L170.516,246.054 L170.639,246.221 L170.762,246.388 L170.885,246.555 L171.009,246.722 L171.132,246.889 L171.255,247.056 L171.378,247.223 L171.501,247.39 L171.624,247.557 L171.747,247.724 L171.871,247.891 L171.994,248.058 L172.117,248.225 L172.24,248.392 L172.363,248.559 L172.487,248.727 L172.61,248.894 L172.733,249.061 L172.856,249.228 L172.979,249.395 L173.102,249.562 L173.226,249.729 L173.349,249.896 L173.472,250.063 L173.595,250.23 L173.718,250.397 L173.841,250.564 L173.965,250.731 L174.088,250.898 L174.211,251.065 L174.334,251.232 L174.457,251.399 L174.58,251.566 L174.704,251.733 L174.827,251.901 L174.95,252.068 L175.073,252.235 L175.196,252.402 L175.319,252.569 L175.443,252.736 L175.566,252.903 L175.689,253.07 L175.812,253.237 L175.935,253.404 L176.059,253.571 L176.182,253.738 L176.305,253.905 L176.428,254.072 L176.551,254.239 L176.674,254.406 L176.798,254.573 L176.921,254.74 L177.044,254.907 L177.167,255.075 L177.29,255.242 L177.413,255.408 L177.537,255.576 L177.66,255.743 L177.783,255.91 L177.906,256.077 L178.029,256.244 L178.152,256.411 L178.276,256.578 L178.399,256.745 L178.522,256.912 L178.645,257.079 L178.768,257.246 L178.891,257.413 L179.015,257.58 L179.138,257.747 L179.261,257.914 L179.384,258.081 L179.507,258.248 L179.631,258.416 L179.754,258.582 L179.877,258.75 L180,258.917 "/>
            </g>
            <g id="plot-3">
                <path clip-path="url(#plot-area)" d="M59.908,277.753 L60.031,276.75 L60.154,275.75 L60.277,274.753 L60.4,273.759 L60.523,272.768 L60.647,271.78 L60.77,270.796 L60.893,269.814 L61.016,268.836 L61.139,267.861 L61.263,266.889 L61.386,265.919 L61.509,264.953 L61.632,263.99 L61.755,263.03 L61.878,262.074 L62.002,261.12 L62.125,260.169 L62.248,259.222 L62.371,258.277 L62.494,257.336 L62.617,256.398 L62.741,255.463 L62.864,254.531 L62.987,253.601 L63.11,252.676 L63.233,251.753 L63.356,250.833 L63.48,249.916 L63.603,249.003 L63.726,248.092 L63.849,247.185 L63.972,246.281 L64.095,245.379 L64.219,244.481 L64.342,243.586 L64.465,242.694 L64.588,241.805 L64.711,240.919 L64.834,240.037 L64.958,239.157 L65.081,238.281 L65.204,237.407 L65.327,236.537 L65.45,235.669 L65.574,234.805 L65.697,233.944 L65.82,233.086 L65.943,232.231 L66.066,231.379 L66.189,230.531 L66.313,229.685 L66.436,228.842 L66.559,228.003 L66.682,227.166 L66.805,226.333 L66.928,225.503 L67.052,224.676 L67.175,223.852 L67.298,223.031 L67.421,222.213 L67.544,221.398 L67.667,220.586 L67.791,219.778 L67.914,218.972 L68.037,218.17 L68.16,217.37 L68.283,216.574 L68.406,215.781 L68.53,214.991 L68.653,214.204 L68.776,213.42 L68.899,212.639 L69.022,211.861 L69.145,211.086 L69.269,210.315 L69.392,209.546 L69.515,208.781 L69.638,208.018 L69.761,207.259 L69.885,206.503 L70.008,205.75 L70.131,205 L70.254,204.253 L70.377,203.509 L70.5,202.768 L70.624,202.031 L70.747,201.296 L70.87,200.565 L70.993,199.836 L71.116,199.111 L71.239,198.389 L71.363,197.67 L71.486,196.954 L71.609,196.241 L71.732,195.531 L71.855,194.824 L71.978,194.12 L72.102,193.42 L72.225,192.722 L72.348,192.028 L72.471,191.336 L72.594,190.648 L72.717,189.963 L72.841,189.281 L72.964,188.602 L73.087,187.926 L73.21,187.253 L73.333,186.583 L73.457,185.917 L73.58,185.253 L73.703,184.593 L73.826,183.935 L73.949,183.281 L74.072,182.63 L74.196,181.982 L74.319,181.336 L74.442,180.694 L74.565,180.056 L74.688,179.42 L74.811,178.787 L74.935,178.157 L75.058,177.531 L75.181,176.907 L75.304,176.287 L75.427,175.67 L75.55,175.056 L75.674,174.445 L75.797,173.836 L75.92,173.232 L76.043,172.63 L76.166,172.031 L76.289,171.435 L76.413,170.843 L76.536,170.253 L76.659,169.667 L76.782,169.083 L76.905,168.503 L77.028,167.926 L77.152,167.352 L77.275,166.781 L77.398,166.213 L77.521,165.648 L77.644,165.087 L77.768,164.528 L77.891,163.972 L78.014,163.42 L78.137,162.87 L78.26,162.324 L78.383,161.781 L78.507,161.241 L78.63,160.704 L78.753,160.17 L78.876,159.639 L78.999,159.111 L79.122,158.587 L79.246,158.065 L79.369,157.546 L79.492,157.031 L79.615,156.519 L79.738,156.009 L79.861,155.503 L79.985,155 L80.108,154.5 L80.231,154.003 L80.354,153.509 L80.477,153.019 L80.6,152.531 L80.724,152.046 L80.847,151.565 L80.97,151.087 L81.093,150.611 L81.216,150.139 L81.339,149.67 L81.463,149.204 L81.586,148.741 L81.709,148.281 L81.832,147.824 L81.955,147.371 L82.079,146.92 L82.202,146.473 L82.325,146.028 L82.448,145.587 L82.571,145.148 L82.694,144.713 L82.818,144.281 L82.941,143.852 L83.064,143.426 L83.187,143.003 L83.31,142.584 L83.433,142.167 L83.557,141.753 L83.68,141.343 L83.803,140.935 L83.926,140.531 L84.049,140.13 L84.172,139.732 L84.296,139.337 L84.419,138.945 L84.542,138.556 L84.665,138.17 L84.788,137.787 L84.911,137.408 L85.035,137.031 L85.158,136.658 L85.281,136.287 L85.404,135.92 L85.527,135.556 L85.651,135.195 L85.774,134.837 L85.897,134.482 L86.02,134.13 L86.143,133.781 L86.266,133.436 L86.39,133.093 L86.513,132.753 L86.636,132.417 L86.759,132.084 L86.882,131.753 L87.005,131.426 L87.129,131.102 L87.252,130.781 L87.375,130.463 L87.498,130.149 L87.621,129.837 L87.744,129.528 L87.868,129.222 L87.991,128.92 L88.114,128.621 L88.237,128.324 L88.36,128.031 L88.483,127.741 L88.607,127.454 L88.73,127.17 L88.853,126.889 L88.976,126.611 L89.099,126.337 L89.223,126.065 L89.346,125.797 L89.469,125.531 L89.592,125.269 L89.715,125.01 L89.838,124.753 L89.961,124.5 L90.085,124.25 L90.208,124.003 L90.331,123.76 L90.454,123.519 L90.577,123.281 L90.701,123.047 L90.824,122.815 L90.947,122.587 L91.07,122.361 L91.193,122.139 L91.316,121.92 L91.44,121.704 L91.563,121.491 L91.686,121.281 L91.809,121.074 L91.932,120.871 L92.055,120.67 L92.179,120.473 L92.302,120.278 L92.425,120.087 L92.548,119.899 L92.671,119.713 L92.794,119.531 L92.918,119.352 L93.041,119.176 L93.164,119.003 L93.287,118.834 L93.41,118.667 L93.533,118.503 L93.657,118.343 L93.78,118.185 L93.903,118.031 L94.026,117.88 L94.149,117.732 L94.273,117.587 L94.396,117.445 L94.519,117.306 L94.642,117.17 L94.765,117.037 L94.888,116.908 L95.012,116.781 L95.135,116.658 L95.258,116.537 L95.381,116.42 L95.504,116.306 L95.627,116.195 L95.751,116.087 L95.874,115.982 L95.997,115.88 L96.12,115.781 L96.243,115.686 L96.366,115.593 L96.49,115.504 L96.613,115.417 L96.736,115.334 L96.859,115.253 L96.982,115.176 L97.105,115.102 L97.229,115.031 L97.352,114.963 L97.475,114.898 L97.598,114.837 L97.721,114.778 L97.845,114.723 L97.968,114.67 L98.091,114.621 L98.214,114.574 L98.337,114.531 L98.46,114.491 L98.583,114.454 L98.707,114.42 L98.83,114.389 L98.953,114.362 L99.076,114.337 L99.199,114.315 L99.323,114.297 L99.446,114.281 L99.569,114.269 L99.692,114.26 L99.815,114.253 L99.938,114.25 L100.062,114.25 L100.185,114.253 L100.308,114.26 L100.431,114.269 L100.554,114.281 L100.677,114.297 L100.801,114.315 L100.924,114.337 L101.047,114.362 L101.17,114.389 L101.293,114.42 L101.417,114.454 L101.54,114.491 L101.663,114.531 L101.786,114.574 L101.909,114.621 L102.032,114.67 L102.155,114.723 L102.279,114.778 L102.402,114.837 L102.525,114.898 L102.648,114.963 L102.771,115.031 L102.895,115.102 L103.018,115.176 L103.141,115.253 L103.264,115.334 L103.387,115.417 L103.51,115.504 L103.634,115.593 L103.757,115.686 L103.88,115.781 L104.003,115.88 L104.126,115.982 L104.249,116.087 L104.373,116.195 L104.496,116.306 L104.619,116.42 L104.742,116.537 L104.865,116.658 L104.988,116.781 L105.112,116.908 L105.235,117.037 L105.358,117.17 L105.481,117.306 L105.604,117.445 L105.727,117.587 L105.851,117.732 L105.974,117.88 L106.097,118.031 L106.22,118.185 L106.343,118.343 L106.467,118.503 L106.59,118.667 L106.713,118.834 L106.836,119.003 L106.959,119.176 L107.082,119.352 L107.206,119.531 L107.329,119.713 L107.452,119.899 L107.575,120.087 L107.698,120.278 L107.821,120.473 L107.945,120.67 L108.068,120.871 L108.191,121.074 L108.314,121.281 L108.437,121.491 L108.56,121.704 L108.684,121.92 L108.807,122.139 L108.93,122.361 L109.053,122.587 L109.176,122.815 L109.299,123.047 L109.423,123.281 L109.546,123.519 L109.669,123.76 L109.792,124.003 L109.915,124.25 L110.039,124.5 L110.162,124.753 L110.285,125.01 L110.408,125.269 L110.531,125.531 L110.654,125.797 L110.777,126.065 L110.901,126.337 L111.024,126.611 L111.147,126.889 L111.27,127.17 L111.393,127.454 L111.517,127.741 L111.64,128.031 L111.763,128.324 L111.886,128.621 L112.009,128.92 L112.132,129.222 L112.256,129.528 L112.379,129.837 L112.502,130.149 L112.625,130.463 L112.748,130.781 L112.871,131.102 L112.995,131.426 L113.118,131.753 L113.241,132.084 L113.364,132.417 L113.487,132.753 L113.611,133.093 L113.734,133.436 L113.857,133.781 L113.98,134.13 L114.103,134.482 L114.226,134.837 L114.349,135.195 L114.473,135.556 L114.596,135.92 L114.719,136.287 L114.842,136.658 L114.965,137.031 L115.089,137.408 L115.212,137.787 L115.335,138.17 L115.458,138.556 L115.581,138.945 L115.704,139.337 L115.828,139.732 L115.951,140.13 L116.074,140.531 L116.197,140.935 L116.32,141.343 L116.443,141.753 L116.567,142.167 L116.69,142.584 L116.813,143.003 L116.936,143.426 L117.059,143.852 L117.182,144.281 L117.306,144.713 L117.429,145.148 L117.552,145.587 L117.675,146.028 L117.798,146.473 L117.921,146.92 L118.045,147.371 L118.168,147.824 L118.291,148.281 L118.414,148.741 L118.537,149.204 L118.661,149.67 L118.784,150.139 L118.907,150.611 L119.03,151.087 L119.153,151.565 L119.276,152.046 L119.4,152.531 L119.523,153.019 L119.646,153.509 L119.769,154.003 L119.892,154.5 L120.015,155 L120.139,155.503 L120.262,156.009 L120.385,156.519 L120.508,157.031 L120.631,157.546 L120.754,158.065 L120.878,158.587 L121.001,159.111 L121.124,159.639 L121.247,160.17 L121.37,160.704 L121.493,161.241 L121.617,161.781 L121.74,162.324 L121.863,162.87 L121.986,163.42 L122.109,163.972 L122.233,164.528 L122.356,165.087 L122.479,165.648 L122.602,166.213 L122.725,166.781 L122.848,167.352 L122.971,167.926 L123.095,168.503 L123.218,169.083 L123.341,169.667 L123.464,170.253 L123.587,170.843 L123.711,171.435 L123.834,172.031 L123.957,172.63 L124.08,173.232 L124.203,173.836 L124.326,174.445 L124.45,175.056 L124.573,175.67 L124.696,176.287 L124.819,176.907 L124.942,177.531 L125.065,178.157 L125.189,178.787 L125.312,179.42 L125.435,180.056 L125.558,180.694 L125.681,181.336 L125.804,181.982 L125.928,182.63 L126.051,183.281 L126.174,183.935 L126.297,184.593 L126.42,185.253 L126.543,185.917 L126.667,186.583 L126.79,187.253 L126.913,187.926 L127.036,188.602 L127.159,189.281 L127.283,189.963 L127.406,190.648 L127.529,191.336 L127.652,192.028 L127.775,192.722 L127.898,193.42 L128.022,194.12 L128.145,194.824 L128.268,195.531 L128.391,196.241 L128.514,196.954 L128.637,197.67 L128.761,198.389 L128.884,199.111 L129.007,199.836 L129.13,200.565 L129.253,201.296 L129.376,202.031 L129.5,202.768 L129.623,203.509 L129.746,204.253 L129.869,205 L129.992,205.75 L130.115,206.503 L130.239,207.259 L130.362,208.018 L130.485,208.781 L130.608,209.546 L130.731,210.315 L130.855,211.086 L130.978,211.861 L131.101,212.639 L131.224,213.42 L131.347,214.204 L131.47,214.991 L131.594,215.781 L131.717,216.574 L131.84,217.37 L131.963,218.17 L132.086,218.972 L132.209,219.778 L132.333,220.586 L132.456,221.398 L132.579,222.213 L132.702,223.031 L132.825,223.852 L132.948,224.676 L133.072,225.503 L133.195,226.333 L133.318,227.166 L133.441,228.003 L133.564,228.842 L133.687,229.685 L133.811,230.531 L133.934,231.379 L134.057,232.231 L134.18,233.086 L134.303,233.944 L134.427,234.805 L134.55,235.669 L134.673,236.537 L134.796,237.407 L134.919,238.281 L135.042,239.157 L135.165,240.037 L135.289,240.919 L135.412,241.805 L135.535,242.694 L135.658,243.586 L135.781,244.481 L135.905,245.379 L136.028,246.281 L136.151,247.185 L136.274,248.092 L136.397,249.003 L136.52,249.916 L136.644,250.833 L136.767,251.753 L136.89,252.676 L137.013,253.601 L137.136,254.531 L137.259,255.463 L137.383,256.398 L137.506,257.336 L137.629,258.277 L137.752,259.222 L137.875,260.169 L137.998,261.12 L138.122,262.074 L138.245,263.03 L138.368,263.99 L138.491,264.953 L138.614,265.919 L138.737,266.889 L138.861,267.861 L138.984,268.836 L139.107,269.814 L139.23,270.796 L139.353,271.78 L139.477,272.768 L139.6,273.759 L139.723,274.753 L139.846,275.75 L139.969,276.75 L140.092,277.753 "/>
            </g>
        </g>
        <g id="overlays">
            <circle cx="41.062" cy="274.53" r="2.9">
                <title>-2,42 / -5,86</title>
                <desc>(x^5-12x^4+35x^3+20x^2-156x+168)/56</desc>
            </circle>
            <circle cx="41.309" cy="267.372" r="2.9">
                <title>-2,4 / -5,47</title>
                <desc>(x^5-12x^4+35x^3+20x^2-156x+168)/56</desc>
            </circle>
            <circle cx="41.555" cy="260.388" r="2.9">
                <title>-2,38 / -5,08</title>
                <desc>(x^5-12x^4+35x^3+20x^2-156x+168)/56</desc>
            </circle>
            <circle cx="42.048" cy="246.929" r="2.9">
                <title>-2,35 / -4,34</title>
                <desc>(x^5-12x^4+35x^3+20x^2-156x+168)/56</desc>
            </circle>
            <circle cx="42.294" cy="240.449" r="2.9">
                <title>-2,33 / -3,98</title>
                <desc>(x^5-12x^4+35x^3+20x^2-156x+168)/56</desc>
            </circle>
            <circle cx="42.664" cy="231.035" r="2.9">
                <title>-2,3 / -3,46</title>
                <desc>(x^5-12x^4+35x^3+20x^2-156x+168)/56</desc>
            </circle>
            <circle cx="42.91" cy="224.959" r="2.9">
                <title>-2,28 / -3,12</title>
                <desc>(x^5-12x^4+35x^3+20x^2-156x+168)/56</desc>
            </circle>
            <circle cx="43.279" cy="216.139" r="2.9">
                <title>-2,25 / -2,63</title>
                <desc>(x^5-12x^4+35x^3+20x^2-156x+168)/56</desc>
            </circle>
            <circle cx="43.649" cy="207.665" r="2.9">
                <title>-2,23 / -2,17</title>
                <desc>(x^5-12x^4+35x^3+20x^2-156x+168)/56</desc>
            </circle>
            <circle cx="44.019" cy="199.528" r="2.9">
                <title>-2,2 / -1,72</title>
                <desc>(x^5-12x^4+35x^3+20x^2-156x+168)/56</desc>
            </circle>
            <circle cx="44.634" cy="186.697" r="2.9">
                <title>-2,15 / -1,01</title>
                <desc>(x^5-12x^4+35x^3+20x^2-156x+168)/56</desc>
            </circle>
            <circle cx="45.127" cy="177.068" r="2.9">
                <title>-2,12 / -0,47</title>
                <desc>(x^5-12x^4+35x^3+20x^2-156x+168)/56</desc>
            </circle>
            <circle cx="45.62" cy="167.985" r="2.9">
                <title>-2,08 / 0,03</title>
                <desc>(x^5-12x^4+35x^3+20x^2-156x+168)/56</desc>
            </circle>
            <circle cx="45.989" cy="161.521" r="2.9">
                <title>-2,05 / 0,39</title>
                <desc>(x^5-12x^4+35x^3+20x^2-156x+168)/56</desc>
            </circle>
            <circle cx="46.359" cy="155.346" r="2.9">
                <title>-2,02 / 0,73</title>
                <desc>(x^5-12x^4+35x^3+20x^2-156x+168)/56</desc>
            </circle>
            <circle cx="46.728" cy="149.454" r="2.9">
                <title>-2 / 1,05</title>
                <desc>(x^5-12x^4+35x^3+20x^2-156x+168)/56</desc>
            </circle>
            <circle cx="47.344" cy="140.243" r="2.9">
                <title>-1,95 / 1,56</title>
                <desc>(x^5-12x^4+35x^3+20x^2-156x+168)/56</desc>
            </circle>
            <circle cx="47.96" cy="131.766" r="2.9">
                <title>-1,9 / 2,03</title>
                <desc>(x^5-12x^4+35x^3+20x^2-156x+168)/56</desc>
            </circle>
            <circle cx="48.699" cy="122.516" r="2.9">
                <title>-1,85 / 2,54</title>
                <desc>(x^5-12x^4+35x^3+20x^2-156x+168)/56</desc>
            </circle>
            <circle cx="49.315" cy="115.543" r="2.9">
                <title>-1,8 / 2,93</title>
                <desc>(x^5-12x^4+35x^3+20x^2-156x+168)/56</desc>
            </circle>
            <circle cx="50.67" cy="102.398" r="2.9">
                <title>-1,7 / 3,66</title>
                <desc>(x^5-12x^4+35x^3+20x^2-156x+168)/56</desc>
            </circle>
            <circle cx="51.409" cy="96.415" r="2.9">
                <title>-1,64 / 3,99</title>
                <desc>(x^5-12x^4+35x^3+20x^2-156x+168)/56</desc>
            </circle>
            <circle cx="52.887" cy="86.737" r="2.9">
                <title>-1,53 / 4,52</title>
                <desc>(x^5-12x^4+35x^3+20x^2-156x+168)/56</desc>
            </circle>
            <circle cx="54.611" cy="78.898" r="2.9">
                <title>-1,4 / 4,95</title>
                <desc>(x^5-12x^4+35x^3+20x^2-156x+168)/56</desc>
            </circle>
            <circle cx="58.553" cy="72.259" r="2.9">
                <title>-1,11 / 5,32</title>
                <desc>(x^5-12x^4+35x^3+20x^2-156x+168)/56</desc>
            </circle>
            <circle cx="62.617" cy="77.184" r="2.9">
                <title>-0,8 / 5,05</title>
                <desc>(x^5-12x^4+35x^3+20x^2-156x+168)/56</desc>
            </circle>
            <circle cx="64.711" cy="82.744" r="2.9">
                <title>-0,65 / 4,74</title>
                <desc>(x^5-12x^4+35x^3+20x^2-156x+168)/56</desc>
            </circle>
            <circle cx="66.682" cy="89.166" r="2.9">
                <title>-0,5 / 4,39</title>
                <desc>(x^5-12x^4+35x^3+20x^2-156x+168)/56</desc>
            </circle>
            <circle cx="69.392" cy="99.116" r="2.9">
                <title>-0,3 / 3,84</title>
                <desc>(x^5-12x^4+35x^3+20x^2-156x+168)/56</desc>
            </circle>
            <circle cx="71.732" cy="108.128" r="2.9">
                <title>-0,12 / 3,34</title>
                <desc>(x^5-12x^4+35x^3+20x^2-156x+168)/56</desc>
            </circle>
            <circle cx="73.333" cy="114.25" r="2.9">
                <title>0 / 3</title>
                <desc>(x^5-12x^4+35x^3+20x^2-156x+168)/56</desc>
            </circle>
            <circle cx="74.935" cy="120.188" r="2.9">
                <title>0,12 / 2,67</title>
                <desc>(x^5-12x^4+35x^3+20x^2-156x+168)/56</desc>
            </circle>
            <circle cx="78.014" cy="130.706" r="2.9">
                <title>0,35 / 2,09</title>
                <desc>(x^5-12x^4+35x^3+20x^2-156x+168)/56</desc>
            </circle>
            <circle cx="79.985" cy="136.599" r="2.9">
                <title>0,5 / 1,76</title>
                <desc>(x^5-12x^4+35x^3+20x^2-156x+168)/56</desc>
            </circle>
            <circle cx="82.941" cy="143.948" r="2.9">
                <title>0,72 / 1,36</title>
                <desc>(x^5-12x^4+35x^3+20x^2-156x+168)/56</desc>
            </circle>
            <circle cx="86.636" cy="150.376" r="2.9">
                <title>1 / 1</title>
                <desc>(x^5-12x^4+35x^3+20x^2-156x+168)/56</desc>
            </circle>
            <circle cx="92.918" cy="154.322" r="2.9">
                <title>1,47 / 0,78</title>
                <desc>(x^5-12x^4+35x^3+20x^2-156x+168)/56</desc>
            </circle>
            <circle cx="99.938" cy="150.476" r="2.9">
                <title>2 / 1</title>
                <desc>(x^5-12x^4+35x^3+20x^2-156x+168)/56</desc>
            </circle>
            <circle cx="106.713" cy="143.009" r="2.9">
                <title>2,5 / 1,41</title>
                <desc>(x^5-12x^4+35x^3+20x^2-156x+168)/56</desc>
            </circle>
            <circle cx="114.965" cy="137.008" r="2.9">
                <title>3,12 / 1,74</title>
                <desc>(x^5-12x^4+35x^3+20x^2-156x+168)/56</desc>
            </circle>
            <circle cx="121.37" cy="140.232" r="2.9">
                <title>3,6 / 1,56</title>
                <desc>(x^5-12x^4+35x^3+20x^2-156x+168)/56</desc>
            </circle>
            <circle cx="126.667" cy="150.417" r="2.9">
                <title>4 / 1</title>
                <desc>(x^5-12x^4+35x^3+20x^2-156x+168)/56</desc>
            </circle>
            <circle cx="129.376" cy="158.452" r="2.9">
                <title>4,2 / 0,56</title>
                <desc>(x^5-12x^4+35x^3+20x^2-156x+168)/56</desc>
            </circle>
            <circle cx="132.086" cy="168.294" r="2.9">
                <title>4,41 / 0,01</title>
                <desc>(x^5-12x^4+35x^3+20x^2-156x+168)/56</desc>
            </circle>
            <circle cx="134.673" cy="179.17" r="2.9">
                <title>4,6 / -0,59</title>
                <desc>(x^5-12x^4+35x^3+20x^2-156x+168)/56</desc>
            </circle>
            <circle cx="136.028" cy="185.344" r="2.9">
                <title>4,7 / -0,93</title>
                <desc>(x^5-12x^4+35x^3+20x^2-156x+168)/56</desc>
            </circle>
            <circle cx="137.259" cy="191.181" r="2.9">
                <title>4,79 / -1,25</title>
                <desc>(x^5-12x^4+35x^3+20x^2-156x+168)/56</desc>
            </circle>
            <circle cx="139.969" cy="204.513" r="2.9">
                <title>5 / -1,99</title>
                <desc>(x^5-12x^4+35x^3+20x^2-156x+168)/56</desc>
            </circle>
            <circle cx="141.324" cy="211.274" r="2.9">
                <title>5,1 / -2,37</title>
                <desc>(x^5-12x^4+35x^3+20x^2-156x+168)/56</desc>
            </circle>
            <circle cx="142.679" cy="217.973" r="2.9">
                <title>5,2 / -2,74</title>
                <desc>(x^5-12x^4+35x^3+20x^2-156x+168)/56</desc>
            </circle>
            <circle cx="144.034" cy="224.501" r="2.9">
                <title>5,3 / -3,1</title>
                <desc>(x^5-12x^4+35x^3+20x^2-156x+168)/56</desc>
            </circle>
            <circle cx="146.621" cy="236.051" r="2.9">
                <title>5,5 / -3,74</title>
                <desc>(x^5-12x^4+35x^3+20x^2-156x+168)/56</desc>
            </circle>
            <circle cx="149.33" cy="245.966" r="2.9">
                <title>5,7 / -4,28</title>
                <desc>(x^5-12x^4+35x^3+20x^2-156x+168)/56</desc>
            </circle>
            <circle cx="154.011" cy="253.957" r="2.9">
                <title>6,05 / -4,73</title>
                <desc>(x^5-12x^4+35x^3+20x^2-156x+168)/56</desc>
            </circle>
            <circle cx="157.336" cy="248.748" r="2.9">
                <title>6,3 / -4,44</title>
                <desc>(x^5-12x^4+35x^3+20x^2-156x+168)/56</desc>
            </circle>
            <circle cx="158.691" cy="243.1" r="2.9">
                <title>6,4 / -4,13</title>
                <desc>(x^5-12x^4+35x^3+20x^2-156x+168)/56</desc>
            </circle>
            <circle cx="160.416" cy="232.35" r="2.9">
                <title>6,53 / -3,53</title>
                <desc>(x^5-12x^4+35x^3+20x^2-156x+168)/56</desc>
            </circle>
            <circle cx="161.278" cy="225.309" r="2.9">
                <title>6,6 / -3,14</title>
                <desc>(x^5-12x^4+35x^3+20x^2-156x+168)/56</desc>
            </circle>
            <circle cx="162.017" cy="218.311" r="2.9">
                <title>6,65 / -2,75</title>
                <desc>(x^5-12x^4+35x^3+20x^2-156x+168)/56</desc>
            </circle>
            <circle cx="162.633" cy="211.76" r="2.9">
                <title>6,7 / -2,39</title>
                <desc>(x^5-12x^4+35x^3+20x^2-156x+168)/56</desc>
            </circle>
            <circle cx="163.372" cy="202.991" r="2.9">
                <title>6,75 / -1,91</title>
                <desc>(x^5-12x^4+35x^3+20x^2-156x+168)/56</desc>
            </circle>
            <circle cx="163.988" cy="194.889" r="2.9">
                <title>6,8 / -1,46</title>
                <desc>(x^5-12x^4+35x^3+20x^2-156x+168)/56</desc>
            </circle>
            <circle cx="164.727" cy="184.167" r="2.9">
                <title>6,85 / -0,87</title>
                <desc>(x^5-12x^4+35x^3+20x^2-156x+168)/56</desc>
            </circle>
            <circle cx="165.343" cy="174.358" r="2.9">
                <title>6,9 / -0,32</title>
                <desc>(x^5-12x^4+35x^3+20x^2-156x+168)/56</desc>
            </circle>
            <circle cx="165.712" cy="168.078" r="2.9">
                <title>6,93 / 0,02</title>
                <desc>(x^5-12x^4+35x^3+20x^2-156x+168)/56</desc>
            </circle>
            <circle cx="166.082" cy="161.491" r="2.9">
                <title>6,96 / 0,39</title>
                <desc>(x^5-12x^4+35x^3+20x^2-156x+168)/56</desc>
            </circle>
            <circle cx="166.697" cy="149.811" r="2.9">
                <title>7 / 1,03</title>
                <desc>(x^5-12x^4+35x^3+20x^2-156x+168)/56</desc>
            </circle>
            <circle cx="167.313" cy="137.225" r="2.9">
                <title>7,05 / 1,73</title>
                <desc>(x^5-12x^4+35x^3+20x^2-156x+168)/56</desc>
            </circle>
            <circle cx="167.683" cy="129.223" r="2.9">
                <title>7,08 / 2,17</title>
                <desc>(x^5-12x^4+35x^3+20x^2-156x+168)/56</desc>
            </circle>
            <circle cx="168.052" cy="120.873" r="2.9">
                <title>7,1 / 2,63</title>
                <desc>(x^5-12x^4+35x^3+20x^2-156x+168)/56</desc>
            </circle>
            <circle cx="168.422" cy="112.167" r="2.9">
                <title>7,13 / 3,12</title>
                <desc>(x^5-12x^4+35x^3+20x^2-156x+168)/56</desc>
            </circle>
            <circle cx="168.668" cy="106.161" r="2.9">
                <title>7,15 / 3,45</title>
                <desc>(x^5-12x^4+35x^3+20x^2-156x+168)/56</desc>
            </circle>
            <circle cx="168.915" cy="99.991" r="2.9">
                <title>7,17 / 3,79</title>
                <desc>(x^5-12x^4+35x^3+20x^2-156x+168)/56</desc>
            </circle>
            <circle cx="169.284" cy="90.422" r="2.9">
                <title>7,2 / 4,32</title>
                <desc>(x^5-12x^4+35x^3+20x^2-156x+168)/56</desc>
            </circle>
            <circle cx="169.654" cy="80.47" r="2.9">
                <title>7,22 / 4,87</title>
                <desc>(x^5-12x^4+35x^3+20x^2-156x+168)/56</desc>
            </circle>
            <circle cx="170.023" cy="70.125" r="2.9">
                <title>7,25 / 5,44</title>
                <desc>(x^5-12x^4+35x^3+20x^2-156x+168)/56</desc>
            </circle>
            <circle cx="170.269" cy="63.006" r="2.9">
                <title>7,27 / 5,83</title>
                <desc>(x^5-12x^4+35x^3+20x^2-156x+168)/56</desc>
            </circle>
            <circle cx="34.657" cy="61.796" r="2.9">
                <title>-2,9 / 5,9</title>
                <desc>-x+3</desc>
            </circle>
            <circle cx="39.954" cy="68.979" r="2.9">
                <title>-2,5 / 5,5</title>
                <desc>-x+3</desc>
            </circle>
            <circle cx="46.728" cy="78.167" r="2.9">
                <title>-2 / 5</title>
                <desc>-x+3</desc>
            </circle>
            <circle cx="56.459" cy="91.364" r="2.9">
                <title>-1,27 / 4,27</title>
                <desc>-x+3</desc>
            </circle>
            <circle cx="60.031" cy="96.208" r="2.9">
                <title>-1 / 4</title>
                <desc>-x+3</desc>
            </circle>
            <circle cx="66.682" cy="105.229" r="2.9">
                <title>-0,5 / 3,5</title>
                <desc>-x+3</desc>
            </circle>
            <circle cx="79.985" cy="123.271" r="2.9">
                <title>0,5 / 2,5</title>
                <desc>-x+3</desc>
            </circle>
            <circle cx="86.636" cy="132.292" r="2.9">
                <title>1 / 2</title>
                <desc>-x+3</desc>
            </circle>
            <circle cx="93.287" cy="141.312" r="2.9">
                <title>1,5 / 1,5</title>
                <desc>-x+3</desc>
            </circle>
            <circle cx="106.713" cy="159.521" r="2.9">
                <title>2,5 / 0,5</title>
                <desc>-x+3</desc>
            </circle>
            <circle cx="113.364" cy="168.542" r="2.9">
                <title>3 / 0</title>
                <desc>-x+3</desc>
            </circle>
            <circle cx="120.015" cy="177.563" r="2.9">
                <title>3,5 / -0,5</title>
                <desc>-x+3</desc>
            </circle>
            <circle cx="126.667" cy="186.583" r="2.9">
                <title>4 / -1</title>
                <desc>-x+3</desc>
            </circle>
            <circle cx="133.318" cy="195.604" r="2.9">
                <title>4,5 / -1,5</title>
                <desc>-x+3</desc>
            </circle>
            <circle cx="146.621" cy="213.646" r="2.9">
                <title>5,5 / -2,5</title>
                <desc>-x+3</desc>
            </circle>
            <circle cx="153.395" cy="222.834" r="2.9">
                <title>6 / -3</title>
                <desc>-x+3</desc>
            </circle>
            <circle cx="166.697" cy="240.875" r="2.9">
                <title>7 / -4</title>
                <desc>-x+3</desc>
            </circle>
            <circle cx="173.349" cy="249.896" r="2.9">
                <title>7,5 / -4,5</title>
                <desc>-x+3</desc>
            </circle>
            <circle cx="180" cy="258.917" r="2.9">
                <title>8 / -5</title>
                <desc>-x+3</desc>
            </circle>
            <circle cx="60.031" cy="276.75" r="2.9">
                <title>-1 / -5,99</title>
                <desc>-(x-2)^2+3</desc>
            </circle>
            <circle cx="61.386" cy="265.919" r="2.9">
                <title>-0,9 / -5,39</title>
                <desc>-(x-2)^2+3</desc>
            </circle>
            <circle cx="62.617" cy="256.398" r="2.9">
                <title>-0,8 / -4,86</title>
                <desc>-(x-2)^2+3</desc>
            </circle>
            <circle cx="63.972" cy="246.281" r="2.9">
                <title>-0,7 / -4,3</title>
                <desc>-(x-2)^2+3</desc>
            </circle>
            <circle cx="65.327" cy="236.537" r="2.9">
                <title>-0,6 / -3,76</title>
                <desc>-(x-2)^2+3</desc>
            </circle>
            <circle cx="66.682" cy="227.166" r="2.9">
                <title>-0,5 / -3,24</title>
                <desc>-(x-2)^2+3</desc>
            </circle>
            <circle cx="68.037" cy="218.17" r="2.9">
                <title>-0,4 / -2,75</title>
                <desc>-(x-2)^2+3</desc>
            </circle>
            <circle cx="69.392" cy="209.546" r="2.9">
                <title>-0,3 / -2,27</title>
                <desc>-(x-2)^2+3</desc>
            </circle>
            <circle cx="70.624" cy="202.031" r="2.9">
                <title>-0,2 / -1,85</title>
                <desc>-(x-2)^2+3</desc>
            </circle>
            <circle cx="71.978" cy="194.12" r="2.9">
                <title>-0,1 / -1,42</title>
                <desc>-(x-2)^2+3</desc>
            </circle>
            <circle cx="73.333" cy="186.583" r="2.9">
                <title>0 / -1</title>
                <desc>-(x-2)^2+3</desc>
            </circle>
            <circle cx="74.688" cy="179.42" r="2.9">
                <title>0,1 / -0,6</title>
                <desc>-(x-2)^2+3</desc>
            </circle>
            <circle cx="76.905" cy="168.503" r="2.9">
                <title>0,27 / 0</title>
                <desc>-(x-2)^2+3</desc>
            </circle>
            <circle cx="78.63" cy="160.704" r="2.9">
                <title>0,4 / 0,43</title>
                <desc>-(x-2)^2+3</desc>
            </circle>
            <circle cx="79.985" cy="155" r="2.9">
                <title>0,5 / 0,75</title>
                <desc>-(x-2)^2+3</desc>
            </circle>
            <circle cx="89.346" cy="125.797" r="2.9">
                <title>1,2 / 2,36</title>
                <desc>-(x-2)^2+3</desc>
            </circle>
            <circle cx="93.287" cy="118.834" r="2.9">
                <title>1,5 / 2,75</title>
                <desc>-(x-2)^2+3</desc>
            </circle>
            <circle cx="100.062" cy="114.25" r="2.9">
                <title>2 / 3</title>
                <desc>-(x-2)^2+3</desc>
            </circle>
            <circle cx="106.713" cy="118.834" r="2.9">
                <title>2,5 / 2,75</title>
                <desc>-(x-2)^2+3</desc>
            </circle>
            <circle cx="110.654" cy="125.797" r="2.9">
                <title>2,8 / 2,36</title>
                <desc>-(x-2)^2+3</desc>
            </circle>
            <circle cx="112.995" cy="131.426" r="2.9">
                <title>2,97 / 2,05</title>
                <desc>-(x-2)^2+3</desc>
            </circle>
            <circle cx="117.306" cy="144.713" r="2.9">
                <title>3,3 / 1,32</title>
                <desc>-(x-2)^2+3</desc>
            </circle>
            <circle cx="120.015" cy="155" r="2.9">
                <title>3,5 / 0,75</title>
                <desc>-(x-2)^2+3</desc>
            </circle>
            <circle cx="121.37" cy="160.704" r="2.9">
                <title>3,6 / 0,43</title>
                <desc>-(x-2)^2+3</desc>
            </circle>
            <circle cx="123.095" cy="168.503" r="2.9">
                <title>3,73 / 0</title>
                <desc>-(x-2)^2+3</desc>
            </circle>
            <circle cx="125.435" cy="180.056" r="2.9">
                <title>3,91 / -0,64</title>
                <desc>-(x-2)^2+3</desc>
            </circle>
            <circle cx="127.775" cy="192.722" r="2.9">
                <title>4,08 / -1,34</title>
                <desc>-(x-2)^2+3</desc>
            </circle>
            <circle cx="129.376" cy="202.031" r="2.9">
                <title>4,2 / -1,85</title>
                <desc>-(x-2)^2+3</desc>
            </circle>
            <circle cx="130.608" cy="209.546" r="2.9">
                <title>4,3 / -2,27</title>
                <desc>-(x-2)^2+3</desc>
            </circle>
            <circle cx="131.963" cy="218.17" r="2.9">
                <title>4,4 / -2,75</title>
                <desc>-(x-2)^2+3</desc>
            </circle>
            <circle cx="133.318" cy="227.166" r="2.9">
                <title>4,5 / -3,24</title>
                <desc>-(x-2)^2+3</desc>
            </circle>
            <circle cx="134.673" cy="236.537" r="2.9">
                <title>4,6 / -3,76</title>
                <desc>-(x-2)^2+3</desc>
            </circle>
            <circle cx="136.028" cy="246.281" r="2.9">
                <title>4,7 / -4,3</title>
                <desc>-(x-2)^2+3</desc>
            </circle>
            <circle cx="137.383" cy="256.398" r="2.9">
                <title>4,8 / -4,86</title>
                <desc>-(x-2)^2+3</desc>
            </circle>
            <circle cx="138.614" cy="265.919" r="2.9">
                <title>4,9 / -5,39</title>
                <desc>-(x-2)^2+3</desc>
            </circle>
            <circle cx="139.969" cy="276.75" r="2.9">
                <title>5 / -5,99</title>
                <desc>-(x-2)^2+3</desc>
            </circle>
            <circle cx="20" cy="168.5" r="2.9">
                <title>-4 / 0</title>
            </circle>
            <circle cx="73.333" cy="277" r="2.9">
                <title>0 / -6</title>
            </circle>
            <circle cx="73.333" cy="240.833" r="2.9">
                <title>0 / -4</title>
            </circle>
            <circle cx="73.333" cy="60" r="2.9">
                <title>0 / 6</title>
            </circle>
            <circle cx="100" cy="168.5" r="2.9">
                <title>2 / 0</title>
            </circle>
            <circle cx="153.333" cy="168.5" r="2.9">
                <title>6 / 0</title>
            </circle>
            <circle cx="180" cy="168.5" r="2.9">
                <title>8 / 0</title>
            </circle>
        </g>
    </svg>
    <text class="label" id="x_label" x="190mm" y="184.5mm">x</text>
    <text class="label" id="y_label" x="61.333mm" y="50mm">y</text>
</svg>
