<?xml version="1.0" encoding="UTF-8"?>
<!DOCTYPE svg PUBLIC "-//W3C//DTD SVG 1.0//EN" "http://www.w3.org/TR/2001/REC-SVG-20010904/DTD/svg10.dtd">
<svg xmlns="http://www.w3.org/2000/svg" xmlns:xlink="http://www.w3.org/1999/xlink" height="297mm" version="1.1" width="210mm">
    <defs>
        <style type="text/css"><![CDATA[
            /* default */
            svg { fill: none; stroke: #000000; stroke-width: 0.5; }
            text { font-family: serif; font-size: 36pt; fill: black; stroke: none; }
            #grid { stroke: #777777; }
            #axes, #reference-lines, .box { stroke: #111111; fill: transparent; }
            #plots { stroke-width: 1.0; stroke-dasharray: 5.0, 5.0; }
            #plot-1 { stroke-dasharray: none; }
            #plot-2 { stroke-dasharray: 1.0, 3.0; }
            #overlays { stroke: none; stroke-dasharray: none; fill: transparent; }
            .poi_symbol { stroke: black; stroke-dasharray: none; stroke-width:0.75;  fill: black; }
            .poi_symbol_bg { stroke: white; stroke-dasharray: none; stroke-width:3.0;  fill: transparent; stroke-linecap: round; }
            .integral { stroke: white; stroke-dasharray: none; stroke-width:3.0; }
            .integral-1 { fill: url(#diagonal_line1_PD); }
            .integral-2 { fill: white; }
            @media print{
            text { font-family: 'Braille DE Computer'; font-size: 36pt; fill: black; stroke: none; }
             }
            
        ]]></style>
    </defs>
    <title>example 1</title>
    <rect height="100%" id="background" width="100%" x="0" y="0"/>
    <text id="title" x="10mm" y="30mm">example 1</text>
    <svg viewBox="0 0 210 297">
        <defs>
            <clipPath id="plot-area">
                <rect height="217" width="160" x="20" y="60"/>
            </clipPath>
        </defs>
        <g id="grid">
            <g id="x-grid" stroke-dasharray="0.5, 2.212">
                <line x1="20" x2="20" y1="59.75" y2="277.25"/>
                <line x1="30" x2="30" y1="59.75" y2="277.25"/>
                <line x1="40" x2="40" y1="59.75" y2="277.25"/>
                <line x1="50" x2="50" y1="59.75" y2="277.25"/>
                <line x1="60" x2="60" y1="59.75" y2="277.25"/>
                <line x1="70" x2="70" y1="59.75" y2="277.25"/>
                <line x1="80" x2="80" y1="59.75" y2="277.25"/>
                <line x1="90" x2="90" y1="59.75" y2="277.25"/>
                <line x1="110" x2="110" y1="59.75" y2="277.25"/>
                <line x1="120" x2="120" y1="59.75" y2="277.25"/>
                <line x1="130" x2="130" y1="59.75" y2="277.25"/>
                <line x1="140" x2="140" y1="59.75" y2="277.25"/>
                <line x1="150" x2="150" y1="59.75" y2="277.25"/>
                <line x1="160" x2="160" y1="59.75" y2="277.25"/>
                <line x1="170" x2="170" y1="59.75" y2="277.25"/>
                <line x1="180" x2="180" y1="59.75" y2="277.25"/>
            </g>
            <g id="y-grid" stroke-dasharray="0.5, 2">
                <line x1="19.75" x2="180.25" y1="277" y2="277"/>
                <line x1="19.75" x2="180.25" y1="263.438" y2="263.438"/>
                <line x1="19.75" x2="180.25" y1="249.875" y2="249.875"/>
                <line x1="19.75" x2="180.25" y1="236.312" y2="236.312"/>
                <line x1="19.75" x2="180.25" y1="222.75" y2="222.75"/>
                <line x1="19.75" x2="180.25" y1="209.188" y2="209.188"/>
                <line x1="19.75" x2="180.25" y1="195.625" y2="195.625"/>
                <line x1="19.75" x2="180.25" y1="182.062" y2="182.062"/>
                <line x1="19.75" x2="180.25" y1="154.938" y2="154.938"/>
                <line x1="19.75" x2="180.25" y1="141.375" y2="141.375"/>
                <line x1="19.75" x2="180.25" y1="127.812" y2="127.812"/>
                <line x1="19.75" x2="180.25" y1="114.25" y2="114.25"/>
                <line x1="19.75" x2="180.25" y1="100.688" y2="100.688"/>
                <line x1="19.75" x2="180.25" y1="87.125" y2="87.125"/>
                <line x1="19.75" x2="180.25" y1="73.562" y2="73.562"/>
                <line x1="19.75" x2="180.25" y1="60" y2="60"/>
            </g>
        </g>
        <g id="axes">
            <g class="poi_symbol_bg" id="axes_spacer">
                <line id="x-axis" x1="5" x2="190" y1="168.5" y2="168.5"/>
                <polyline id="x-axis-arrow" points="190,165.5 195.2,168.5 190,171.5">
                    <title>X-Achse</title>
                </polyline>
                <line id="y-axis" x1="100" x2="100" y1="292" y2="50"/>
                <polyline id="y-axis-arrow" points="97,50 100,44.8 103,50">
                    <title>Y-Achse</title>
                </polyline>
                <g id="x-tics">
                    <line x1="20" x2="20" y1="162.5" y2="174.5"/>
                    <line x1="40" x2="40" y1="162.5" y2="174.5"/>
                    <line x1="60" x2="60" y1="162.5" y2="174.5"/>
                    <line x1="80" x2="80" y1="162.5" y2="174.5"/>
                    <line x1="120" x2="120" y1="162.5" y2="174.5"/>
                    <line x1="140" x2="140" y1="162.5" y2="174.5"/>
                    <line x1="160" x2="160" y1="162.5" y2="174.5"/>
                    <line x1="180" x2="180" y1="162.5" y2="174.5"/>
                </g>
                <g id="y-tics">
                    <line x1="94" x2="106" y1="277" y2="277"/>
                    <line x1="94" x2="106" y1="249.875" y2="249.875"/>
                    <line x1="94" x2="106" y1="222.75" y2="222.75"/>
                    <line x1="94" x2="106" y1="195.625" y2="195.625"/>
                    <line x1="94" x2="106" y1="141.375" y2="141.375"/>
                    <line x1="94" x2="106" y1="114.25" y2="114.25"/>
                    <line x1="94" x2="106" y1="87.125" y2="87.125"/>
                    <line x1="94" x2="106" y1="60" y2="60"/>
                </g>
            </g>
            <line id="x-axis" x1="5" x2="190" y1="168.5" y2="168.5"/>
            <polyline id="x-axis-arrow" points="190,165.5 195.2,168.5 190,171.5">
                <title>X-Achse</title>
            </polyline>
            <line id="y-axis" x1="100" x2="100" y1="292" y2="50"/>
            <polyline id="y-axis-arrow" points="97,50 100,44.8 103,50">
                <title>Y-Achse</title>
            </polyline>
            <g id="x-tics">
                <line x1="20" x2="20" y1="162.5" y2="174.5"/>
                <line x1="40" x2="40" y1="162.5" y2="174.5"/>
                <line x1="60" x2="60" y1="162.5" y2="174.5"/>
                <line x1="80" x2="80" y1="162.5" y2="174.5"/>
                <line x1="120" x2="120" y1="162.5" y2="174.5"/>
                <line x1="140" x2="140" y1="162.5" y2="174.5"/>
                <line x1="160" x2="160" y1="162.5" y2="174.5"/>
                <line x1="180" x2="180" y1="162.5" y2="174.5"/>
            </g>
            <g id="y-tics">
                <line x1="94" x2="106" y1="277" y2="277"/>
                <line x1="94" x2="106" y1="249.875" y2="249.875"/>
                <line x1="94" x2="106" y1="222.75" y2="222.75"/>
                <line x1="94" x2="106" y1="195.625" y2="195.625"/>
                <line x1="94" x2="106" y1="141.375" y2="141.375"/>
                <line x1="94" x2="106" y1="114.25" y2="114.25"/>
                <line x1="94" x2="106" y1="87.125" y2="87.125"/>
                <line x1="94" x2="106" y1="60" y2="60"/>
            </g>
        </g>
        <g id="plots">
            <g id="plot-1">
                <path clip-path="url(#plot-area)" d="M62.002,277.414 L62.125,275.857 L62.248,274.309 L62.371,272.772 L62.494,271.244 L62.617,269.726 L62.741,268.217 L62.864,266.718 L62.987,265.229 L63.11,263.75 L63.233,262.28 L63.356,260.82 L63.48,259.37 L63.603,257.929 L63.726,256.498 L63.849,255.076 L63.972,253.663 L64.095,252.261 L64.219,250.867 L64.342,249.483 L64.465,248.109 L64.588,246.743 L64.711,245.387 L64.834,244.041 L64.958,242.704 L65.081,241.376 L65.204,240.057 L65.327,238.747 L65.45,237.447 L65.574,236.156 L65.697,234.874 L65.82,233.601 L65.943,232.337 L66.066,231.082 L66.189,229.836 L66.312,228.6 L66.436,227.372 L66.559,226.153 L66.682,224.943 L66.805,223.743 L66.928,222.55 L67.052,221.367 L67.175,220.193 L67.298,219.028 L67.421,217.871 L67.544,216.723 L67.667,215.583 L67.791,214.453 L67.914,213.331 L68.037,212.218 L68.16,211.113 L68.283,210.018 L68.406,208.93 L68.53,207.851 L68.653,206.781 L68.776,205.719 L68.899,204.666 L69.022,203.621 L69.146,202.585 L69.269,201.557 L69.392,200.537 L69.515,199.526 L69.638,198.523 L69.761,197.528 L69.884,196.542 L70.008,195.564 L70.131,194.594 L70.254,193.633 L70.377,192.679 L70.5,191.734 L70.624,190.797 L70.747,189.868 L70.87,188.947 L70.993,188.034 L71.116,187.129 L71.239,186.232 L71.363,185.343 L71.486,184.462 L71.609,183.589 L71.732,182.724 L71.855,181.866 L71.978,181.017 L72.102,180.175 L72.225,179.341 L72.348,178.515 L72.471,177.697 L72.594,176.886 L72.718,176.084 L72.841,175.288 L72.964,174.501 L73.087,173.721 L73.21,172.948 L73.333,172.184 L73.456,171.426 L73.58,170.677 L73.703,169.934 L73.826,169.2 L73.949,168.472 L74.072,167.752 L74.196,167.04 L74.319,166.335 L74.442,165.637 L74.565,164.947 L74.688,164.263 L74.811,163.587 L74.935,162.919 L75.058,162.257 L75.181,161.603 L75.304,160.956 L75.427,160.316 L75.55,159.683 L75.674,159.057 L75.797,158.439 L75.92,157.827 L76.043,157.222 L76.166,156.624 L76.29,156.034 L76.413,155.45 L76.536,154.873 L76.659,154.303 L76.782,153.74 L76.905,153.184 L77.028,152.634 L77.152,152.092 L77.275,151.556 L77.398,151.026 L77.521,150.504 L77.644,149.988 L77.768,149.479 L77.891,148.977 L78.014,148.481 L78.137,147.991 L78.26,147.508 L78.383,147.032 L78.506,146.562 L78.63,146.099 L78.753,145.642 L78.876,145.192 L78.999,144.748 L79.122,144.31 L79.246,143.879 L79.369,143.454 L79.492,143.036 L79.615,142.623 L79.738,142.217 L79.861,141.817 L79.985,141.424 L80.108,141.036 L80.231,140.655 L80.354,140.28 L80.477,139.911 L80.601,139.548 L80.724,139.191 L80.847,138.84 L80.97,138.495 L81.093,138.156 L81.216,137.823 L81.34,137.496 L81.463,137.174 L81.586,136.859 L81.709,136.55 L81.832,136.246 L81.955,135.948 L82.078,135.656 L82.202,135.37 L82.325,135.089 L82.448,134.814 L82.571,134.545 L82.694,134.281 L82.818,134.023 L82.941,133.771 L83.064,133.524 L83.187,133.283 L83.31,133.047 L83.433,132.816 L83.557,132.592 L83.68,132.372 L83.803,132.158 L83.926,131.95 L84.049,131.746 L84.172,131.548 L84.296,131.356 L84.419,131.169 L84.542,130.987 L84.665,130.81 L84.788,130.638 L84.912,130.472 L85.035,130.311 L85.158,130.155 L85.281,130.004 L85.404,129.858 L85.527,129.717 L85.651,129.581 L85.774,129.45 L85.897,129.325 L86.02,129.204 L86.143,129.088 L86.266,128.977 L86.39,128.871 L86.513,128.769 L86.636,128.673 L86.759,128.581 L86.882,128.495 L87.005,128.413 L87.129,128.335 L87.252,128.263 L87.375,128.195 L87.498,128.131 L87.621,128.073 L87.744,128.019 L87.868,127.969 L87.991,127.924 L88.114,127.884 L88.237,127.848 L88.36,127.816 L88.483,127.789 L88.607,127.767 L88.73,127.749 L88.853,127.735 L88.976,127.726 L89.099,127.721 L89.222,127.72 L89.346,127.723 L89.469,127.731 L89.592,127.743 L89.715,127.759 L89.838,127.78 L89.962,127.804 L90.085,127.833 L90.208,127.865 L90.331,127.902 L90.454,127.943 L90.577,127.988 L90.701,128.037 L90.824,128.089 L90.947,128.146 L91.07,128.207 L91.193,128.271 L91.316,128.34 L91.44,128.412 L91.563,128.488 L91.686,128.568 L91.809,128.652 L91.932,128.739 L92.055,128.831 L92.179,128.925 L92.302,129.024 L92.425,129.126 L92.548,129.232 L92.671,129.341 L92.794,129.454 L92.918,129.57 L93.041,129.69 L93.164,129.814 L93.287,129.941 L93.41,130.071 L93.533,130.205 L93.657,130.342 L93.78,130.483 L93.903,130.626 L94.026,130.774 L94.149,130.924 L94.273,131.078 L94.396,131.235 L94.519,131.395 L94.642,131.558 L94.765,131.725 L94.888,131.894 L95.012,132.067 L95.135,132.243 L95.258,132.422 L95.381,132.604 L95.504,132.789 L95.627,132.977 L95.751,133.168 L95.874,133.361 L95.997,133.558 L96.12,133.758 L96.243,133.96 L96.366,134.165 L96.49,134.373 L96.613,134.584 L96.736,134.798 L96.859,135.014 L96.982,135.233 L97.105,135.455 L97.229,135.68 L97.352,135.906 L97.475,136.136 L97.598,136.368 L97.721,136.603 L97.844,136.84 L97.968,137.08 L98.091,137.322 L98.214,137.567 L98.337,137.814 L98.46,138.064 L98.584,138.316 L98.707,138.57 L98.83,138.826 L98.953,139.085 L99.076,139.346 L99.199,139.61 L99.323,139.876 L99.446,140.143 L99.569,140.413 L99.692,140.685 L99.815,140.96 L99.938,141.236 L100.062,141.514 L100.185,141.795 L100.308,142.077 L100.431,142.362 L100.554,142.648 L100.677,142.937 L100.801,143.227 L100.924,143.519 L101.047,143.813 L101.17,144.109 L101.293,144.407 L101.416,144.706 L101.54,145.008 L101.663,145.311 L101.786,145.615 L101.909,145.922 L102.032,146.23 L102.156,146.54 L102.279,146.851 L102.402,147.164 L102.525,147.479 L102.648,147.795 L102.771,148.112 L102.895,148.431 L103.018,148.752 L103.141,149.074 L103.264,149.397 L103.387,149.722 L103.51,150.048 L103.634,150.375 L103.757,150.704 L103.88,151.034 L104.003,151.365 L104.126,151.698 L104.249,152.032 L104.373,152.366 L104.496,152.703 L104.619,153.04 L104.742,153.378 L104.865,153.717 L104.988,154.058 L105.112,154.399 L105.235,154.742 L105.358,155.085 L105.481,155.43 L105.604,155.775 L105.727,156.121 L105.851,156.468 L105.974,156.816 L106.097,157.165 L106.22,157.515 L106.343,157.865 L106.467,158.216 L106.59,158.568 L106.713,158.921 L106.836,159.274 L106.959,159.628 L107.082,159.983 L107.206,160.338 L107.329,160.693 L107.452,161.05 L107.575,161.406 L107.698,161.764 L107.821,162.121 L107.945,162.48 L108.068,162.838 L108.191,163.197 L108.314,163.557 L108.437,163.916 L108.56,164.277 L108.684,164.637 L108.807,164.997 L108.93,165.358 L109.053,165.719 L109.176,166.081 L109.299,166.442 L109.423,166.804 L109.546,167.166 L109.669,167.527 L109.792,167.889 L109.915,168.251 L110.038,168.613 L110.162,168.975 L110.285,169.337 L110.408,169.699 L110.531,170.061 L110.654,170.422 L110.778,170.784 L110.901,171.145 L111.024,171.506 L111.147,171.867 L111.27,172.228 L111.393,172.588 L111.517,172.949 L111.64,173.308 L111.763,173.668 L111.886,174.027 L112.009,174.386 L112.132,174.744 L112.256,175.102 L112.379,175.46 L112.502,175.817 L112.625,176.173 L112.748,176.529 L112.871,176.884 L112.995,177.239 L113.118,177.593 L113.241,177.947 L113.364,178.3 L113.487,178.652 L113.61,179.003 L113.734,179.354 L113.857,179.704 L113.98,180.053 L114.103,180.401 L114.226,180.749 L114.35,181.095 L114.473,181.441 L114.596,181.786 L114.719,182.129 L114.842,182.472 L114.965,182.814 L115.089,183.155 L115.212,183.495 L115.335,183.833 L115.458,184.171 L115.581,184.508 L115.704,184.843 L115.828,185.177 L115.951,185.51 L116.074,185.842 L116.197,186.172 L116.32,186.502 L116.443,186.83 L116.567,187.156 L116.69,187.481 L116.813,187.805 L116.936,188.128 L117.059,188.449 L117.182,188.768 L117.306,189.087 L117.429,189.403 L117.552,189.718 L117.675,190.032 L117.798,190.344 L117.922,190.654 L118.045,190.963 L118.168,191.27 L118.291,191.575 L118.414,191.879 L118.537,192.181 L118.66,192.481 L118.784,192.779 L118.907,193.076 L119.03,193.371 L119.153,193.664 L119.276,193.955 L119.399,194.244 L119.523,194.531 L119.646,194.816 L119.769,195.099 L119.892,195.381 L120.015,195.66 L120.139,195.937 L120.262,196.212 L120.385,196.485 L120.508,196.756 L120.631,197.024 L120.754,197.291 L120.878,197.555 L121.001,197.817 L121.124,198.077 L121.247,198.334 L121.37,198.589 L121.494,198.842 L121.617,199.093 L121.74,199.34 L121.863,199.586 L121.986,199.829 L122.109,200.07 L122.232,200.308 L122.356,200.544 L122.479,200.777 L122.602,201.008 L122.725,201.236 L122.848,201.461 L122.972,201.684 L123.095,201.904 L123.218,202.121 L123.341,202.336 L123.464,202.548 L123.587,202.757 L123.71,202.963 L123.834,203.167 L123.957,203.367 L124.08,203.565 L124.203,203.76 L124.326,203.952 L124.45,204.141 L124.573,204.327 L124.696,204.51 L124.819,204.69 L124.942,204.867 L125.065,205.041 L125.189,205.212 L125.312,205.38 L125.435,205.544 L125.558,205.706 L125.681,205.864 L125.804,206.019 L125.928,206.17 L126.051,206.319 L126.174,206.464 L126.297,206.606 L126.42,206.744 L126.544,206.879 L126.667,207.011 L126.79,207.139 L126.913,207.264 L127.036,207.385 L127.159,207.503 L127.282,207.617 L127.406,207.728 L127.529,207.835 L127.652,207.938 L127.775,208.038 L127.898,208.134 L128.022,208.227 L128.145,208.316 L128.268,208.401 L128.391,208.482 L128.514,208.56 L128.637,208.633 L128.761,208.703 L128.884,208.769 L129.007,208.831 L129.13,208.89 L129.253,208.944 L129.376,208.994 L129.5,209.041 L129.623,209.083 L129.746,209.121 L129.869,209.156 L129.992,209.186 L130.116,209.212 L130.239,209.234 L130.362,209.251 L130.485,209.265 L130.608,209.274 L130.731,209.279 L130.854,209.28 L130.978,209.277 L131.101,209.269 L131.224,209.257 L131.347,209.24 L131.47,209.22 L131.594,209.194 L131.717,209.164 L131.84,209.13 L131.963,209.091 L132.086,209.048 L132.209,209 L132.333,208.948 L132.456,208.891 L132.579,208.83 L132.702,208.763 L132.825,208.693 L132.948,208.617 L133.072,208.537 L133.195,208.452 L133.318,208.362 L133.441,208.267 L133.564,208.168 L133.688,208.064 L133.811,207.954 L133.934,207.84 L134.057,207.721 L134.18,207.597 L134.303,207.469 L134.426,207.335 L134.55,207.196 L134.673,207.052 L134.796,206.903 L134.919,206.748 L135.042,206.589 L135.166,206.425 L135.289,206.255 L135.412,206.08 L135.535,205.9 L135.658,205.715 L135.781,205.524 L135.904,205.328 L136.028,205.127 L136.151,204.921 L136.274,204.709 L136.397,204.491 L136.52,204.269 L136.644,204.04 L136.767,203.807 L136.89,203.567 L137.013,203.323 L137.136,203.072 L137.259,202.816 L137.383,202.555 L137.506,202.288 L137.629,202.015 L137.752,201.736 L137.875,201.452 L137.998,201.162 L138.122,200.866 L138.245,200.565 L138.368,200.258 L138.491,199.945 L138.614,199.626 L138.738,199.301 L138.861,198.97 L138.984,198.633 L139.107,198.29 L139.23,197.942 L139.353,197.587 L139.476,197.226 L139.6,196.859 L139.723,196.486 L139.846,196.107 L139.969,195.722 L140.092,195.331 L140.216,194.933 L140.339,194.53 L140.462,194.12 L140.585,193.703 L140.708,193.281 L140.831,192.852 L140.955,192.417 L141.078,191.975 L141.201,191.527 L141.324,191.073 L141.447,190.612 L141.57,190.145 L141.694,189.671 L141.817,189.191 L141.94,188.704 L142.063,188.21 L142.186,187.71 L142.31,187.204 L142.433,186.69 L142.556,186.17 L142.679,185.644 L142.802,185.11 L142.925,184.57 L143.048,184.023 L143.172,183.469 L143.295,182.909 L143.418,182.341 L143.541,181.767 L143.664,181.186 L143.788,180.598 L143.911,180.003 L144.034,179.401 L144.157,178.792 L144.28,178.176 L144.403,177.553 L144.527,176.922 L144.65,176.285 L144.773,175.641 L144.896,174.989 L145.019,174.33 L145.142,173.664 L145.266,172.991 L145.389,172.311 L145.512,171.623 L145.635,170.928 L145.758,170.225 L145.881,169.516 L146.005,168.798 L146.128,168.074 L146.251,167.342 L146.374,166.603 L146.497,165.856 L146.62,165.101 L146.744,164.339 L146.867,163.57 L146.99,162.793 L147.113,162.008 L147.236,161.216 L147.36,160.416 L147.483,159.608 L147.606,158.792 L147.729,157.969 L147.852,157.138 L147.975,156.3 L148.098,155.453 L148.222,154.599 L148.345,153.737 L148.468,152.867 L148.591,151.988 L148.714,151.102 L148.838,150.209 L148.961,149.307 L149.084,148.397 L149.207,147.479 L149.33,146.553 L149.453,145.619 L149.577,144.676 L149.7,143.726 L149.823,142.767 L149.946,141.801 L150.069,140.826 L150.192,139.842 L150.316,138.851 L150.439,137.851 L150.562,136.843 L150.685,135.826 L150.808,134.802 L150.932,133.768 L151.055,132.727 L151.178,131.677 L151.301,130.618 L151.424,129.551 L151.547,128.475 L151.67,127.391 L151.794,126.299 L151.917,125.197 L152.04,124.087 L152.163,122.969 L152.286,121.841 L152.41,120.705 L152.533,119.561 L152.656,118.407 L152.779,117.245 L152.902,116.074 L153.025,114.894 L153.149,113.706 L153.272,112.508 L153.395,111.302 L153.518,110.086 L153.641,108.862 L153.764,107.628 L153.888,106.386 L154.011,105.135 L154.134,103.874 L154.257,102.605 L154.38,101.326 L154.504,100.038 L154.627,98.741 L154.75,97.435 L154.873,96.12 L154.996,94.795 L155.119,93.462 L155.242,92.119 L155.366,90.766 L155.489,89.404 L155.612,88.033 L155.735,86.653 L155.858,85.263 L155.982,83.864 L156.105,82.455 L156.228,81.037 L156.351,79.609 L156.474,78.172 L156.597,76.725 L156.721,75.268 L156.844,73.802 L156.967,72.326 L157.09,70.841 L157.213,69.346 L157.336,67.841 L157.46,66.327 L157.583,64.802 L157.706,63.268 L157.829,61.724 L157.952,60.171 L158.075,58.607 "/>
            </g>
            <g id="plot-2">
                <path clip-path="url(#plot-area)" d="M39.954,277.188 L40.077,276.687 L40.2,276.187 L40.323,275.688 L40.446,275.19 L40.57,274.693 L40.693,274.197 L40.816,273.702 L40.939,273.209 L41.062,272.716 L41.186,272.224 L41.309,271.733 L41.432,271.244 L41.555,270.755 L41.678,270.267 L41.801,269.781 L41.925,269.295 L42.048,268.81 L42.171,268.327 L42.294,267.844 L42.417,267.363 L42.54,266.883 L42.664,266.403 L42.787,265.925 L42.91,265.447 L43.033,264.971 L43.156,264.496 L43.279,264.021 L43.403,263.548 L43.526,263.076 L43.649,262.605 L43.772,262.135 L43.895,261.665 L44.018,261.197 L44.142,260.73 L44.265,260.264 L44.388,259.799 L44.511,259.335 L44.634,258.872 L44.757,258.41 L44.881,257.949 L45.004,257.49 L45.127,257.031 L45.25,256.573 L45.373,256.116 L45.496,255.66 L45.62,255.206 L45.743,254.752 L45.866,254.299 L45.989,253.848 L46.112,253.397 L46.236,252.947 L46.359,252.499 L46.482,252.051 L46.605,251.605 L46.728,251.159 L46.851,250.715 L46.975,250.271 L47.098,249.829 L47.221,249.388 L47.344,248.947 L47.467,248.508 L47.591,248.07 L47.714,247.633 L47.837,247.196 L47.96,246.761 L48.083,246.327 L48.206,245.894 L48.33,245.462 L48.453,245.031 L48.576,244.601 L48.699,244.172 L48.822,243.744 L48.945,243.317 L49.068,242.891 L49.192,242.466 L49.315,242.042 L49.438,241.619 L49.561,241.197 L49.684,240.777 L49.808,240.357 L49.931,239.938 L50.054,239.521 L50.177,239.104 L50.3,238.688 L50.423,238.274 L50.547,237.86 L50.67,237.447 L50.793,237.036 L50.916,236.626 L51.039,236.216 L51.162,235.808 L51.286,235.4 L51.409,234.994 L51.532,234.588 L51.655,234.184 L51.778,233.781 L51.902,233.379 L52.025,232.977 L52.148,232.577 L52.271,232.178 L52.394,231.78 L52.517,231.383 L52.64,230.987 L52.764,230.592 L52.887,230.198 L53.01,229.805 L53.133,229.413 L53.256,229.022 L53.38,228.632 L53.503,228.243 L53.626,227.855 L53.749,227.468 L53.872,227.082 L53.995,226.698 L54.119,226.314 L54.242,225.931 L54.365,225.549 L54.488,225.169 L54.611,224.789 L54.734,224.41 L54.858,224.033 L54.981,223.656 L55.104,223.281 L55.227,222.906 L55.35,222.533 L55.473,222.161 L55.597,221.789 L55.72,221.419 L55.843,221.049 L55.966,220.681 L56.089,220.314 L56.212,219.948 L56.336,219.582 L56.459,219.218 L56.582,218.855 L56.705,218.493 L56.828,218.132 L56.951,217.772 L57.075,217.413 L57.198,217.055 L57.321,216.698 L57.444,216.342 L57.567,215.987 L57.69,215.633 L57.814,215.28 L57.937,214.928 L58.06,214.577 L58.183,214.227 L58.306,213.879 L58.43,213.531 L58.553,213.184 L58.676,212.839 L58.799,212.494 L58.922,212.15 L59.045,211.808 L59.169,211.466 L59.292,211.126 L59.415,210.786 L59.538,210.448 L59.661,210.11 L59.784,209.774 L59.908,209.438 L60.031,209.104 L60.154,208.771 L60.277,208.438 L60.4,208.107 L60.524,207.777 L60.647,207.448 L60.77,207.119 L60.893,206.792 L61.016,206.466 L61.139,206.141 L61.262,205.817 L61.386,205.494 L61.509,205.172 L61.632,204.851 L61.755,204.531 L61.878,204.212 L62.002,203.894 L62.125,203.577 L62.248,203.262 L62.371,202.947 L62.494,202.633 L62.617,202.32 L62.741,202.008 L62.864,201.698 L62.987,201.388 L63.11,201.079 L63.233,200.772 L63.356,200.465 L63.48,200.16 L63.603,199.855 L63.726,199.552 L63.849,199.249 L63.972,198.948 L64.095,198.647 L64.219,198.348 L64.342,198.05 L64.465,197.752 L64.588,197.456 L64.711,197.161 L64.834,196.866 L64.958,196.573 L65.081,196.281 L65.204,195.99 L65.327,195.7 L65.45,195.411 L65.574,195.123 L65.697,194.836 L65.82,194.549 L65.943,194.265 L66.066,193.981 L66.189,193.698 L66.312,193.416 L66.436,193.135 L66.559,192.855 L66.682,192.576 L66.805,192.299 L66.928,192.022 L67.052,191.746 L67.175,191.471 L67.298,191.198 L67.421,190.925 L67.544,190.654 L67.667,190.383 L67.791,190.113 L67.914,189.845 L68.037,189.577 L68.16,189.311 L68.283,189.045 L68.406,188.781 L68.53,188.518 L68.653,188.255 L68.776,187.994 L68.899,187.734 L69.022,187.474 L69.146,187.216 L69.269,186.959 L69.392,186.703 L69.515,186.448 L69.638,186.194 L69.761,185.941 L69.884,185.688 L70.008,185.438 L70.131,185.187 L70.254,184.939 L70.377,184.691 L70.5,184.444 L70.624,184.198 L70.747,183.953 L70.87,183.709 L70.993,183.466 L71.116,183.225 L71.239,182.984 L71.363,182.744 L71.486,182.505 L71.609,182.268 L71.732,182.031 L71.855,181.796 L71.978,181.561 L72.102,181.327 L72.225,181.095 L72.348,180.863 L72.471,180.633 L72.594,180.404 L72.718,180.175 L72.841,179.948 L72.964,179.721 L73.087,179.496 L73.21,179.272 L73.333,179.049 L73.456,178.826 L73.58,178.605 L73.703,178.385 L73.826,178.166 L73.949,177.948 L74.072,177.731 L74.196,177.515 L74.319,177.3 L74.442,177.086 L74.565,176.873 L74.688,176.661 L74.811,176.45 L74.935,176.24 L75.058,176.031 L75.181,175.823 L75.304,175.617 L75.427,175.411 L75.55,175.206 L75.674,175.002 L75.797,174.8 L75.92,174.598 L76.043,174.397 L76.166,174.198 L76.29,173.999 L76.413,173.802 L76.536,173.605 L76.659,173.41 L76.782,173.215 L76.905,173.022 L77.028,172.83 L77.152,172.638 L77.275,172.448 L77.398,172.259 L77.521,172.07 L77.644,171.883 L77.768,171.697 L77.891,171.512 L78.014,171.327 L78.137,171.144 L78.26,170.962 L78.383,170.781 L78.506,170.601 L78.63,170.422 L78.753,170.244 L78.876,170.067 L78.999,169.891 L79.122,169.716 L79.246,169.542 L79.369,169.37 L79.492,169.198 L79.615,169.027 L79.738,168.857 L79.861,168.689 L79.985,168.521 L80.108,168.354 L80.231,168.189 L80.354,168.024 L80.477,167.86 L80.601,167.698 L80.724,167.536 L80.847,167.376 L80.97,167.216 L81.093,167.058 L81.216,166.901 L81.34,166.744 L81.463,166.589 L81.586,166.434 L81.709,166.281 L81.832,166.129 L81.955,165.978 L82.078,165.827 L82.202,165.678 L82.325,165.53 L82.448,165.383 L82.571,165.237 L82.694,165.092 L82.818,164.948 L82.941,164.805 L83.064,164.663 L83.187,164.522 L83.31,164.382 L83.433,164.243 L83.557,164.105 L83.68,163.968 L83.803,163.833 L83.926,163.698 L84.049,163.564 L84.172,163.431 L84.296,163.3 L84.419,163.169 L84.542,163.039 L84.665,162.911 L84.788,162.783 L84.912,162.657 L85.035,162.531 L85.158,162.407 L85.281,162.283 L85.404,162.161 L85.527,162.039 L85.651,161.919 L85.774,161.8 L85.897,161.681 L86.02,161.564 L86.143,161.448 L86.266,161.333 L86.39,161.218 L86.513,161.105 L86.636,160.993 L86.759,160.882 L86.882,160.772 L87.005,160.663 L87.129,160.555 L87.252,160.448 L87.375,160.342 L87.498,160.237 L87.621,160.133 L87.744,160.03 L87.868,159.928 L87.991,159.828 L88.114,159.728 L88.237,159.629 L88.36,159.531 L88.483,159.435 L88.607,159.339 L88.73,159.244 L88.853,159.151 L88.976,159.058 L89.099,158.966 L89.222,158.876 L89.346,158.786 L89.469,158.698 L89.592,158.61 L89.715,158.524 L89.838,158.439 L89.962,158.354 L90.085,158.271 L90.208,158.189 L90.331,158.107 L90.454,158.027 L90.577,157.948 L90.701,157.87 L90.824,157.793 L90.947,157.716 L91.07,157.641 L91.193,157.567 L91.316,157.494 L91.44,157.422 L91.563,157.351 L91.686,157.281 L91.809,157.212 L91.932,157.144 L92.055,157.078 L92.179,157.012 L92.302,156.947 L92.425,156.883 L92.548,156.82 L92.671,156.759 L92.794,156.698 L92.918,156.638 L93.041,156.58 L93.164,156.522 L93.287,156.465 L93.41,156.41 L93.533,156.355 L93.657,156.302 L93.78,156.249 L93.903,156.198 L94.026,156.147 L94.149,156.098 L94.273,156.05 L94.396,156.002 L94.519,155.956 L94.642,155.911 L94.765,155.867 L94.888,155.823 L95.012,155.781 L95.135,155.74 L95.258,155.7 L95.381,155.661 L95.504,155.623 L95.627,155.586 L95.751,155.55 L95.874,155.515 L95.997,155.481 L96.12,155.448 L96.243,155.416 L96.366,155.385 L96.49,155.355 L96.613,155.327 L96.736,155.299 L96.859,155.272 L96.982,155.246 L97.105,155.222 L97.229,155.198 L97.352,155.175 L97.475,155.154 L97.598,155.133 L97.721,155.114 L97.844,155.095 L97.968,155.078 L98.091,155.061 L98.214,155.046 L98.337,155.031 L98.46,155.018 L98.584,155.006 L98.707,154.994 L98.83,154.984 L98.953,154.975 L99.076,154.966 L99.199,154.959 L99.323,154.953 L99.446,154.948 L99.569,154.944 L99.692,154.941 L99.815,154.939 L99.938,154.938 L100.062,154.938 L100.185,154.939 L100.308,154.941 L100.431,154.944 L100.554,154.948 L100.677,154.953 L100.801,154.959 L100.924,154.966 L101.047,154.975 L101.17,154.984 L101.293,154.994 L101.416,155.006 L101.54,155.018 L101.663,155.031 L101.786,155.046 L101.909,155.061 L102.032,155.078 L102.156,155.095 L102.279,155.114 L102.402,155.133 L102.525,155.154 L102.648,155.175 L102.771,155.198 L102.895,155.222 L103.018,155.246 L103.141,155.272 L103.264,155.299 L103.387,155.327 L103.51,155.355 L103.634,155.385 L103.757,155.416 L103.88,155.448 L104.003,155.481 L104.126,155.515 L104.249,155.55 L104.373,155.586 L104.496,155.623 L104.619,155.661 L104.742,155.7 L104.865,155.74 L104.988,155.781 L105.112,155.823 L105.235,155.867 L105.358,155.911 L105.481,155.956 L105.604,156.002 L105.727,156.05 L105.851,156.098 L105.974,156.147 L106.097,156.198 L106.22,156.249 L106.343,156.302 L106.467,156.355 L106.59,156.41 L106.713,156.465 L106.836,156.522 L106.959,156.58 L107.082,156.638 L107.206,156.698 L107.329,156.759 L107.452,156.82 L107.575,156.883 L107.698,156.947 L107.821,157.012 L107.945,157.078 L108.068,157.144 L108.191,157.212 L108.314,157.281 L108.437,157.351 L108.56,157.422 L108.684,157.494 L108.807,157.567 L108.93,157.641 L109.053,157.716 L109.176,157.793 L109.299,157.87 L109.423,157.948 L109.546,158.027 L109.669,158.107 L109.792,158.189 L109.915,158.271 L110.038,158.354 L110.162,158.439 L110.285,158.524 L110.408,158.61 L110.531,158.698 L110.654,158.786 L110.778,158.876 L110.901,158.966 L111.024,159.058 L111.147,159.151 L111.27,159.244 L111.393,159.339 L111.517,159.435 L111.64,159.531 L111.763,159.629 L111.886,159.728 L112.009,159.828 L112.132,159.928 L112.256,160.03 L112.379,160.133 L112.502,160.237 L112.625,160.342 L112.748,160.448 L112.871,160.555 L112.995,160.663 L113.118,160.772 L113.241,160.882 L113.364,160.993 L113.487,161.105 L113.61,161.218 L113.734,161.333 L113.857,161.448 L113.98,161.564 L114.103,161.681 L114.226,161.8 L114.35,161.919 L114.473,162.039 L114.596,162.161 L114.719,162.283 L114.842,162.407 L114.965,162.531 L115.089,162.657 L115.212,162.783 L115.335,162.911 L115.458,163.039 L115.581,163.169 L115.704,163.3 L115.828,163.431 L115.951,163.564 L116.074,163.698 L116.197,163.833 L116.32,163.968 L116.443,164.105 L116.567,164.243 L116.69,164.382 L116.813,164.522 L116.936,164.663 L117.059,164.805 L117.182,164.948 L117.306,165.092 L117.429,165.237 L117.552,165.383 L117.675,165.53 L117.798,165.678 L117.922,165.827 L118.045,165.978 L118.168,166.129 L118.291,166.281 L118.414,166.434 L118.537,166.589 L118.66,166.744 L118.784,166.901 L118.907,167.058 L119.03,167.216 L119.153,167.376 L119.276,167.536 L119.399,167.698 L119.523,167.86 L119.646,168.024 L119.769,168.189 L119.892,168.354 L120.015,168.521 L120.139,168.689 L120.262,168.857 L120.385,169.027 L120.508,169.198 L120.631,169.37 L120.754,169.542 L120.878,169.716 L121.001,169.891 L121.124,170.067 L121.247,170.244 L121.37,170.422 L121.494,170.601 L121.617,170.781 L121.74,170.962 L121.863,171.144 L121.986,171.327 L122.109,171.512 L122.232,171.697 L122.356,171.883 L122.479,172.07 L122.602,172.259 L122.725,172.448 L122.848,172.638 L122.972,172.83 L123.095,173.022 L123.218,173.215 L123.341,173.41 L123.464,173.605 L123.587,173.802 L123.71,173.999 L123.834,174.198 L123.957,174.397 L124.08,174.598 L124.203,174.8 L124.326,175.002 L124.45,175.206 L124.573,175.411 L124.696,175.617 L124.819,175.823 L124.942,176.031 L125.065,176.24 L125.189,176.45 L125.312,176.661 L125.435,176.873 L125.558,177.086 L125.681,177.3 L125.804,177.515 L125.928,177.731 L126.051,177.948 L126.174,178.166 L126.297,178.385 L126.42,178.605 L126.544,178.826 L126.667,179.049 L126.79,179.272 L126.913,179.496 L127.036,179.721 L127.159,179.948 L127.282,180.175 L127.406,180.404 L127.529,180.633 L127.652,180.863 L127.775,181.095 L127.898,181.327 L128.022,181.561 L128.145,181.796 L128.268,182.031 L128.391,182.268 L128.514,182.505 L128.637,182.744 L128.761,182.984 L128.884,183.225 L129.007,183.466 L129.13,183.709 L129.253,183.953 L129.376,184.198 L129.5,184.444 L129.623,184.691 L129.746,184.939 L129.869,185.187 L129.992,185.438 L130.116,185.688 L130.239,185.941 L130.362,186.194 L130.485,186.448 L130.608,186.703 L130.731,186.959 L130.854,187.216 L130.978,187.474 L131.101,187.734 L131.224,187.994 L131.347,188.255 L131.47,188.518 L131.594,188.781 L131.717,189.045 L131.84,189.311 L131.963,189.577 L132.086,189.845 L132.209,190.113 L132.333,190.383 L132.456,190.654 L132.579,190.925 L132.702,191.198 L132.825,191.471 L132.948,191.746 L133.072,192.022 L133.195,192.299 L133.318,192.576 L133.441,192.855 L133.564,193.135 L133.688,193.416 L133.811,193.698 L133.934,193.981 L134.057,194.265 L134.18,194.549 L134.303,194.836 L134.426,195.123 L134.55,195.411 L134.673,195.7 L134.796,195.99 L134.919,196.281 L135.042,196.573 L135.166,196.866 L135.289,197.161 L135.412,197.456 L135.535,197.752 L135.658,198.05 L135.781,198.348 L135.904,198.647 L136.028,198.948 L136.151,199.249 L136.274,199.552 L136.397,199.855 L136.52,200.16 L136.644,200.465 L136.767,200.772 L136.89,201.079 L137.013,201.388 L137.136,201.698 L137.259,202.008 L137.383,202.32 L137.506,202.633 L137.629,202.947 L137.752,203.262 L137.875,203.577 L137.998,203.894 L138.122,204.212 L138.245,204.531 L138.368,204.851 L138.491,205.172 L138.614,205.494 L138.738,205.817 L138.861,206.141 L138.984,206.466 L139.107,206.792 L139.23,207.119 L139.353,207.448 L139.476,207.777 L139.6,208.107 L139.723,208.438 L139.846,208.771 L139.969,209.104 L140.092,209.438 L140.216,209.774 L140.339,210.11 L140.462,210.448 L140.585,210.786 L140.708,211.126 L140.831,211.466 L140.955,211.808 L141.078,212.15 L141.201,212.494 L141.324,212.839 L141.447,213.184 L141.57,213.531 L141.694,213.879 L141.817,214.227 L141.94,214.577 L142.063,214.928 L142.186,215.28 L142.31,215.633 L142.433,215.987 L142.556,216.342 L142.679,216.698 L142.802,217.055 L142.925,217.413 L143.048,217.772 L143.172,218.132 L143.295,218.493 L143.418,218.855 L143.541,219.218 L143.664,219.582 L143.788,219.948 L143.911,220.314 L144.034,220.681 L144.157,221.049 L144.28,221.419 L144.403,221.789 L144.527,222.161 L144.65,222.533 L144.773,222.906 L144.896,223.281 L145.019,223.656 L145.142,224.033 L145.266,224.41 L145.389,224.789 L145.512,225.169 L145.635,225.549 L145.758,225.931 L145.881,226.314 L146.005,226.698 L146.128,227.082 L146.251,227.468 L146.374,227.855 L146.497,228.243 L146.62,228.632 L146.744,229.022 L146.867,229.413 L146.99,229.805 L147.113,230.198 L147.236,230.592 L147.36,230.987 L147.483,231.383 L147.606,231.78 L147.729,232.178 L147.852,232.577 L147.975,232.977 L148.098,233.379 L148.222,233.781 L148.345,234.184 L148.468,234.588 L148.591,234.994 L148.714,235.4 L148.838,235.808 L148.961,236.216 L149.084,236.626 L149.207,237.036 L149.33,237.447 L149.453,237.86 L149.577,238.274 L149.7,238.688 L149.823,239.104 L149.946,239.521 L150.069,239.938 L150.192,240.357 L150.316,240.777 L150.439,241.197 L150.562,241.619 L150.685,242.042 L150.808,242.466 L150.932,242.891 L151.055,243.317 L151.178,243.744 L151.301,244.172 L151.424,244.601 L151.547,245.031 L151.67,245.462 L151.794,245.894 L151.917,246.327 L152.04,246.761 L152.163,247.196 L152.286,247.633 L152.41,248.07 L152.533,248.508 L152.656,248.947 L152.779,249.388 L152.902,249.829 L153.025,250.271 L153.149,250.715 L153.272,251.159 L153.395,251.605 L153.518,252.051 L153.641,252.499 L153.764,252.947 L153.888,253.397 L154.011,253.848 L154.134,254.299 L154.257,254.752 L154.38,255.206 L154.504,255.66 L154.627,256.116 L154.75,256.573 L154.873,257.031 L154.996,257.49 L155.119,257.949 L155.242,258.41 L155.366,258.872 L155.489,259.335 L155.612,259.799 L155.735,260.264 L155.858,260.73 L155.982,261.197 L156.105,261.665 L156.228,262.135 L156.351,262.605 L156.474,263.076 L156.597,263.548 L156.721,264.021 L156.844,264.496 L156.967,264.971 L157.09,265.447 L157.213,265.925 L157.336,266.403 L157.46,266.883 L157.583,267.363 L157.706,267.844 L157.829,268.327 L157.952,268.81 L158.075,269.295 L158.199,269.781 L158.322,270.267 L158.445,270.755 L158.568,271.244 L158.691,271.733 L158.814,272.224 L158.938,272.716 L159.061,273.209 L159.184,273.702 L159.307,274.197 L159.43,274.693 L159.553,275.19 L159.677,275.688 L159.8,276.187 L159.923,276.687 L160.046,277.188 "/>
            </g>
        </g>
        <g id="overlays">
            <circle cx="62.494" cy="271.244" r="2.9">
                <title>-3,75 / -7,58</title>
                <desc>(x^3-3x^2-10x+12)/6</desc>
            </circle>
            <circle cx="62.987" cy="265.229" r="2.9">
                <title>-3,7 / -7,13</title>
                <desc>(x^3-3x^2-10x+12)/6</desc>
            </circle>
            <circle cx="63.972" cy="253.663" r="2.9">
                <title>-3,6 / -6,28</title>
                <desc>(x^3-3x^2-10x+12)/6</desc>
            </circle>
            <circle cx="64.958" cy="242.704" r="2.9">
                <title>-3,5 / -5,47</title>
                <desc>(x^3-3x^2-10x+12)/6</desc>
            </circle>
            <circle cx="65.943" cy="232.337" r="2.9">
                <title>-3,41 / -4,71</title>
                <desc>(x^3-3x^2-10x+12)/6</desc>
            </circle>
            <circle cx="67.052" cy="221.367" r="2.9">
                <title>-3,29 / -3,9</title>
                <desc>(x^3-3x^2-10x+12)/6</desc>
            </circle>
            <circle cx="68.037" cy="212.218" r="2.9">
                <title>-3,2 / -3,22</title>
                <desc>(x^3-3x^2-10x+12)/6</desc>
            </circle>
            <circle cx="69.022" cy="203.621" r="2.9">
                <title>-3,1 / -2,59</title>
                <desc>(x^3-3x^2-10x+12)/6</desc>
            </circle>
            <circle cx="70.008" cy="195.564" r="2.9">
                <title>-3 / -2</title>
                <desc>(x^3-3x^2-10x+12)/6</desc>
            </circle>
            <circle cx="70.993" cy="188.034" r="2.9">
                <title>-2,9 / -1,44</title>
                <desc>(x^3-3x^2-10x+12)/6</desc>
            </circle>
            <circle cx="71.855" cy="181.866" r="2.9">
                <title>-2,81 / -0,99</title>
                <desc>(x^3-3x^2-10x+12)/6</desc>
            </circle>
            <circle cx="73.949" cy="168.472" r="2.9">
                <title>-2,61 / 0</title>
                <desc>(x^3-3x^2-10x+12)/6</desc>
            </circle>
            <circle cx="75.058" cy="162.257" r="2.9">
                <title>-2,49 / 0,46</title>
                <desc>(x^3-3x^2-10x+12)/6</desc>
            </circle>
            <circle cx="77.028" cy="152.634" r="2.9">
                <title>-2,3 / 1,17</title>
                <desc>(x^3-3x^2-10x+12)/6</desc>
            </circle>
            <circle cx="79.985" cy="141.424" r="2.9">
                <title>-2 / 2</title>
                <desc>(x^3-3x^2-10x+12)/6</desc>
            </circle>
            <circle cx="81.955" cy="135.948" r="2.9">
                <title>-1,8 / 2,4</title>
                <desc>(x^3-3x^2-10x+12)/6</desc>
            </circle>
            <circle cx="89.222" cy="127.72" r="2.9">
                <title>-1,08 / 3,01</title>
                <desc>(x^3-3x^2-10x+12)/6</desc>
            </circle>
            <circle cx="95.012" cy="132.067" r="2.9">
                <title>-0,5 / 2,69</title>
                <desc>(x^3-3x^2-10x+12)/6</desc>
            </circle>
            <circle cx="100.062" cy="141.514" r="2.9">
                <title>0,01 / 1,99</title>
                <desc>(x^3-3x^2-10x+12)/6</desc>
            </circle>
            <circle cx="103.018" cy="148.752" r="2.9">
                <title>0,3 / 1,46</title>
                <desc>(x^3-3x^2-10x+12)/6</desc>
            </circle>
            <circle cx="105.727" cy="156.121" r="2.9">
                <title>0,57 / 0,91</title>
                <desc>(x^3-3x^2-10x+12)/6</desc>
            </circle>
            <circle cx="107.945" cy="162.48" r="2.9">
                <title>0,79 / 0,44</title>
                <desc>(x^3-3x^2-10x+12)/6</desc>
            </circle>
            <circle cx="110.038" cy="168.613" r="2.9">
                <title>1 / -0,01</title>
                <desc>(x^3-3x^2-10x+12)/6</desc>
            </circle>
            <circle cx="112.009" cy="174.386" r="2.9">
                <title>1,2 / -0,43</title>
                <desc>(x^3-3x^2-10x+12)/6</desc>
            </circle>
            <circle cx="114.965" cy="182.814" r="2.9">
                <title>1,5 / -1,06</title>
                <desc>(x^3-3x^2-10x+12)/6</desc>
            </circle>
            <circle cx="117.059" cy="188.449" r="2.9">
                <title>1,71 / -1,47</title>
                <desc>(x^3-3x^2-10x+12)/6</desc>
            </circle>
            <circle cx="120.015" cy="195.66" r="2.9">
                <title>2 / -2</title>
                <desc>(x^3-3x^2-10x+12)/6</desc>
            </circle>
            <circle cx="124.942" cy="204.867" r="2.9">
                <title>2,49 / -2,68</title>
                <desc>(x^3-3x^2-10x+12)/6</desc>
            </circle>
            <circle cx="130.854" cy="209.28" r="2.9">
                <title>3,09 / -3,01</title>
                <desc>(x^3-3x^2-10x+12)/6</desc>
            </circle>
            <circle cx="137.383" cy="202.555" r="2.9">
                <title>3,74 / -2,51</title>
                <desc>(x^3-3x^2-10x+12)/6</desc>
            </circle>
            <circle cx="139.969" cy="195.722" r="2.9">
                <title>4 / -2,01</title>
                <desc>(x^3-3x^2-10x+12)/6</desc>
            </circle>
            <circle cx="141.94" cy="188.704" r="2.9">
                <title>4,19 / -1,49</title>
                <desc>(x^3-3x^2-10x+12)/6</desc>
            </circle>
            <circle cx="144.034" cy="179.401" r="2.9">
                <title>4,4 / -0,8</title>
                <desc>(x^3-3x^2-10x+12)/6</desc>
            </circle>
            <circle cx="146.005" cy="168.798" r="2.9">
                <title>4,6 / -0,02</title>
                <desc>(x^3-3x^2-10x+12)/6</desc>
            </circle>
            <circle cx="146.99" cy="162.793" r="2.9">
                <title>4,7 / 0,42</title>
                <desc>(x^3-3x^2-10x+12)/6</desc>
            </circle>
            <circle cx="147.975" cy="156.3" r="2.9">
                <title>4,8 / 0,9</title>
                <desc>(x^3-3x^2-10x+12)/6</desc>
            </circle>
            <circle cx="148.961" cy="149.307" r="2.9">
                <title>4,9 / 1,42</title>
                <desc>(x^3-3x^2-10x+12)/6</desc>
            </circle>
            <circle cx="149.946" cy="141.801" r="2.9">
                <title>4,99 / 1,97</title>
                <desc>(x^3-3x^2-10x+12)/6</desc>
            </circle>
            <circle cx="151.055" cy="132.727" r="2.9">
                <title>5,11 / 2,64</title>
                <desc>(x^3-3x^2-10x+12)/6</desc>
            </circle>
            <circle cx="152.04" cy="124.087" r="2.9">
                <title>5,2 / 3,27</title>
                <desc>(x^3-3x^2-10x+12)/6</desc>
            </circle>
            <circle cx="153.025" cy="114.894" r="2.9">
                <title>5,3 / 3,95</title>
                <desc>(x^3-3x^2-10x+12)/6</desc>
            </circle>
            <circle cx="154.011" cy="105.135" r="2.9">
                <title>5,4 / 4,67</title>
                <desc>(x^3-3x^2-10x+12)/6</desc>
            </circle>
            <circle cx="154.996" cy="94.795" r="2.9">
                <title>5,5 / 5,43</title>
                <desc>(x^3-3x^2-10x+12)/6</desc>
            </circle>
            <circle cx="155.982" cy="83.864" r="2.9">
                <title>5,6 / 6,24</title>
                <desc>(x^3-3x^2-10x+12)/6</desc>
            </circle>
            <circle cx="156.967" cy="72.326" r="2.9">
                <title>5,7 / 7,09</title>
                <desc>(x^3-3x^2-10x+12)/6</desc>
            </circle>
            <circle cx="157.46" cy="66.327" r="2.9">
                <title>5,75 / 7,53</title>
                <desc>(x^3-3x^2-10x+12)/6</desc>
            </circle>
            <circle cx="157.952" cy="60.171" r="2.9">
                <title>5,8 / 7,99</title>
                <desc>(x^3-3x^2-10x+12)/6</desc>
            </circle>
            <circle cx="40.939" cy="273.209" r="2.9">
                <title>-5,91 / -7,72</title>
                <desc>-0.25x^2+1</desc>
            </circle>
            <circle cx="43.033" cy="264.971" r="2.9">
                <title>-5,7 / -7,11</title>
                <desc>-0.25x^2+1</desc>
            </circle>
            <circle cx="45.004" cy="257.49" r="2.9">
                <title>-5,5 / -6,56</title>
                <desc>-0.25x^2+1</desc>
            </circle>
            <circle cx="46.975" cy="250.271" r="2.9">
                <title>-5,3 / -6,03</title>
                <desc>-0.25x^2+1</desc>
            </circle>
            <circle cx="50.054" cy="239.521" r="2.9">
                <title>-4,99 / -5,24</title>
                <desc>-0.25x^2+1</desc>
            </circle>
            <circle cx="52.025" cy="232.977" r="2.9">
                <title>-4,8 / -4,75</title>
                <desc>-0.25x^2+1</desc>
            </circle>
            <circle cx="54.981" cy="223.656" r="2.9">
                <title>-4,5 / -4,07</title>
                <desc>-0.25x^2+1</desc>
            </circle>
            <circle cx="56.951" cy="217.772" r="2.9">
                <title>-4,3 / -3,63</title>
                <desc>-0.25x^2+1</desc>
            </circle>
            <circle cx="60.031" cy="209.104" r="2.9">
                <title>-4 / -2,99</title>
                <desc>-0.25x^2+1</desc>
            </circle>
            <circle cx="62.987" cy="201.388" r="2.9">
                <title>-3,7 / -2,42</title>
                <desc>-0.25x^2+1</desc>
            </circle>
            <circle cx="75.058" cy="176.031" r="2.9">
                <title>-2,49 / -0,56</title>
                <desc>-0.25x^2+1</desc>
            </circle>
            <circle cx="79.985" cy="168.521" r="2.9">
                <title>-2 / 0</title>
                <desc>-0.25x^2+1</desc>
            </circle>
            <circle cx="85.035" cy="162.531" r="2.9">
                <title>-1,5 / 0,44</title>
                <desc>-0.25x^2+1</desc>
            </circle>
            <circle cx="89.962" cy="158.354" r="2.9">
                <title>-1 / 0,75</title>
                <desc>-0.25x^2+1</desc>
            </circle>
            <circle cx="95.997" cy="155.481" r="2.9">
                <title>-0,4 / 0,96</title>
                <desc>-0.25x^2+1</desc>
            </circle>
            <circle cx="114.965" cy="162.531" r="2.9">
                <title>1,5 / 0,44</title>
                <desc>-0.25x^2+1</desc>
            </circle>
            <circle cx="120.015" cy="168.521" r="2.9">
                <title>2 / 0</title>
                <desc>-0.25x^2+1</desc>
            </circle>
            <circle cx="124.942" cy="176.031" r="2.9">
                <title>2,49 / -0,56</title>
                <desc>-0.25x^2+1</desc>
            </circle>
            <circle cx="129.992" cy="185.438" r="2.9">
                <title>3 / -1,25</title>
                <desc>-0.25x^2+1</desc>
            </circle>
            <circle cx="132.948" cy="191.746" r="2.9">
                <title>3,29 / -1,71</title>
                <desc>-0.25x^2+1</desc>
            </circle>
            <circle cx="139.969" cy="209.104" r="2.9">
                <title>4 / -2,99</title>
                <desc>-0.25x^2+1</desc>
            </circle>
            <circle cx="141.94" cy="214.577" r="2.9">
                <title>4,19 / -3,4</title>
                <desc>-0.25x^2+1</desc>
            </circle>
            <circle cx="145.019" cy="223.656" r="2.9">
                <title>4,5 / -4,07</title>
                <desc>-0.25x^2+1</desc>
            </circle>
            <circle cx="146.99" cy="229.805" r="2.9">
                <title>4,7 / -4,52</title>
                <desc>-0.25x^2+1</desc>
            </circle>
            <circle cx="149.946" cy="239.521" r="2.9">
                <title>4,99 / -5,24</title>
                <desc>-0.25x^2+1</desc>
            </circle>
            <circle cx="152.04" cy="246.761" r="2.9">
                <title>5,2 / -5,77</title>
                <desc>-0.25x^2+1</desc>
            </circle>
            <circle cx="154.996" cy="257.49" r="2.9">
                <title>5,5 / -6,56</title>
                <desc>-0.25x^2+1</desc>
            </circle>
            <circle cx="156.967" cy="264.971" r="2.9">
                <title>5,7 / -7,11</title>
                <desc>-0.25x^2+1</desc>
            </circle>
            <circle cx="159.061" cy="273.209" r="2.9">
                <title>5,91 / -7,72</title>
                <desc>-0.25x^2+1</desc>
            </circle>
            <circle cx="20" cy="168.5" r="2.9">
                <title>-8 / 0</title>
            </circle>
            <circle cx="40" cy="168.5" r="2.9">
                <title>-6 / 0</title>
            </circle>
            <circle cx="60" cy="168.5" r="2.9">
                <title>-4 / 0</title>
            </circle>
            <circle cx="100" cy="168.5" r="2.9">
                <title>0 / 0</title>
            </circle>
            <circle cx="100" cy="277" r="2.9">
                <title>0 / -8</title>
            </circle>
            <circle cx="100" cy="249.875" r="2.9">
                <title>0 / -6</title>
            </circle>
            <circle cx="100" cy="222.75" r="2.9">
                <title>0 / -4</title>
            </circle>
            <circle cx="100" cy="195.625" r="2.9">
                <title>0 / -2</title>
            </circle>
            <circle cx="100" cy="114.25" r="2.9">
                <title>0 / 4</title>
            </circle>
            <circle cx="100" cy="87.125" r="2.9">
                <title>0 / 6</title>
            </circle>
            <circle cx="100" cy="60" r="2.9">
                <title>0 / 8</title>
            </circle>
            <circle cx="140" cy="168.5" r="2.9">
                <title>4 / 0</title>
            </circle>
            <circle cx="160" cy="168.5" r="2.9">
                <title>6 / 0</title>
            </circle>
            <circle cx="180" cy="168.5" r="2.9">
                <title>8 / 0</title>
            </circle>
        </g>
    </svg>
    <text class="label" id="x_label" x="190mm" y="184.5mm">x</text>
    <text class="label" id="y_label" x="88mm" y="50mm">y</text>
</svg>
