<?xml version="1.0" encoding="UTF-8"?>
<!DOCTYPE svg PUBLIC "-//W3C//DTD SVG 1.0//EN" "http://www.w3.org/TR/2001/REC-SVG-20010904/DTD/svg10.dtd">
<svg xmlns="http://www.w3.org/2000/svg" xmlns:xlink="http://www.w3.org/1999/xlink" height="297mm" version="1.1" width="210mm">
    <defs>
        <style type="text/css"><![CDATA[
            /* default */
            svg { fill: none; stroke: #000000; stroke-width: 0.5; }
            text { font-family: serif; font-size: 36pt; fill: black; stroke: none; }
            #grid { stroke: #777777; }
            #axes, #reference-lines, .box { stroke: #111111; fill: transparent; }
            #plots { stroke-width: 1.0; stroke-dasharray: 5.0, 5.0; }
            #plot-1 { stroke-dasharray: none; }
            #plot-2 { stroke-dasharray: 1.0, 3.0; }
            #overlays { stroke: none; stroke-dasharray: none; fill: transparent; }
            .poi_symbol { stroke: black; stroke-dasharray: none; stroke-width:0.75;  fill: black; }
            .poi_symbol_bg { stroke: white; stroke-dasharray: none; stroke-width:3.0;  fill: transparent; stroke-linecap: round; }
            .integral { stroke: white; stroke-dasharray: none; stroke-width:3.0; }
            .integral-1 { fill: url(#diagonal_line1_PD); }
            .integral-2 { fill: white; }
            @media print{
            text { font-family: 'Braille DE Computer'; font-size: 36pt; fill: black; stroke: none; }
             }
            
        ]]></style>
    </defs>
    <title>example 3</title>
    <rect height="100%" id="background" width="100%" x="0" y="0"/>
    <text id="title" x="10mm" y="30mm">example 3</text>
    <svg viewBox="0 0 210 297">
        <defs>
            <clipPath id="plot-area">
                <rect height="217" width="160" x="20" y="60"/>
            </clipPath>
        </defs>
        <g id="grid">
            <g id="x-grid" stroke-dasharray="0.5, 2.212">
                <line x1="20" x2="20" y1="59.75" y2="277.25"/>
                <line x1="30" x2="30" y1="59.75" y2="277.25"/>
                <line x1="40" x2="40" y1="59.75" y2="277.25"/>
                <line x1="50" x2="50" y1="59.75" y2="277.25"/>
                <line x1="60" x2="60" y1="59.75" y2="277.25"/>
                <line x1="70" x2="70" y1="59.75" y2="277.25"/>
                <line x1="90" x2="90" y1="59.75" y2="277.25"/>
                <line x1="100" x2="100" y1="59.75" y2="277.25"/>
                <line x1="110" x2="110" y1="59.75" y2="277.25"/>
                <line x1="120" x2="120" y1="59.75" y2="277.25"/>
                <line x1="130" x2="130" y1="59.75" y2="277.25"/>
                <line x1="140" x2="140" y1="59.75" y2="277.25"/>
                <line x1="150" x2="150" y1="59.75" y2="277.25"/>
                <line x1="160" x2="160" y1="59.75" y2="277.25"/>
                <line x1="170" x2="170" y1="59.75" y2="277.25"/>
                <line x1="180" x2="180" y1="59.75" y2="277.25"/>
            </g>
            <g id="y-grid" stroke-dasharray="0.5, 2">
                <line x1="19.75" x2="180.25" y1="277" y2="277"/>
                <line x1="19.75" x2="180.25" y1="263.438" y2="263.438"/>
                <line x1="19.75" x2="180.25" y1="249.875" y2="249.875"/>
                <line x1="19.75" x2="180.25" y1="236.312" y2="236.312"/>
                <line x1="19.75" x2="180.25" y1="222.75" y2="222.75"/>
                <line x1="19.75" x2="180.25" y1="209.188" y2="209.188"/>
                <line x1="19.75" x2="180.25" y1="182.062" y2="182.062"/>
                <line x1="19.75" x2="180.25" y1="168.5" y2="168.5"/>
                <line x1="19.75" x2="180.25" y1="154.938" y2="154.938"/>
                <line x1="19.75" x2="180.25" y1="141.375" y2="141.375"/>
                <line x1="19.75" x2="180.25" y1="127.812" y2="127.812"/>
                <line x1="19.75" x2="180.25" y1="114.25" y2="114.25"/>
                <line x1="19.75" x2="180.25" y1="100.688" y2="100.688"/>
                <line x1="19.75" x2="180.25" y1="87.125" y2="87.125"/>
                <line x1="19.75" x2="180.25" y1="73.562" y2="73.562"/>
                <line x1="19.75" x2="180.25" y1="60" y2="60"/>
            </g>
        </g>
        <g id="axes">
            <g class="poi_symbol_bg" id="axes_spacer">
                <line id="x-axis" x1="5" x2="190" y1="195.625" y2="195.625"/>
                <polyline id="x-axis-arrow" points="190,192.625 195.2,195.625 190,198.625">
                    <title>X-Achse</title>
                </polyline>
                <line id="y-axis" x1="80" x2="80" y1="292" y2="50"/>
                <polyline id="y-axis-arrow" points="77,50 80,44.8 83,50">
                    <title>Y-Achse</title>
                </polyline>
                <g id="x-tics">
                    <line x1="20" x2="20" y1="189.625" y2="201.625"/>
                    <line x1="40" x2="40" y1="189.625" y2="201.625"/>
                    <line x1="60" x2="60" y1="189.625" y2="201.625"/>
                    <line x1="100" x2="100" y1="189.625" y2="201.625"/>
                    <line x1="120" x2="120" y1="189.625" y2="201.625"/>
                    <line x1="140" x2="140" y1="189.625" y2="201.625"/>
                    <line x1="160" x2="160" y1="189.625" y2="201.625"/>
                    <line x1="180" x2="180" y1="189.625" y2="201.625"/>
                </g>
                <g id="y-tics">
                    <line x1="74" x2="86" y1="277" y2="277"/>
                    <line x1="74" x2="86" y1="249.875" y2="249.875"/>
                    <line x1="74" x2="86" y1="222.75" y2="222.75"/>
                    <line x1="74" x2="86" y1="168.5" y2="168.5"/>
                    <line x1="74" x2="86" y1="141.375" y2="141.375"/>
                    <line x1="74" x2="86" y1="114.25" y2="114.25"/>
                    <line x1="74" x2="86" y1="87.125" y2="87.125"/>
                    <line x1="74" x2="86" y1="60" y2="60"/>
                </g>
            </g>
            <line id="x-axis" x1="5" x2="190" y1="195.625" y2="195.625"/>
            <polyline id="x-axis-arrow" points="190,192.625 195.2,195.625 190,198.625">
                <title>X-Achse</title>
            </polyline>
            <line id="y-axis" x1="80" x2="80" y1="292" y2="50"/>
            <polyline id="y-axis-arrow" points="77,50 80,44.8 83,50">
                <title>Y-Achse</title>
            </polyline>
            <g id="x-tics">
                <line x1="20" x2="20" y1="189.625" y2="201.625"/>
                <line x1="40" x2="40" y1="189.625" y2="201.625"/>
                <line x1="60" x2="60" y1="189.625" y2="201.625"/>
                <line x1="100" x2="100" y1="189.625" y2="201.625"/>
                <line x1="120" x2="120" y1="189.625" y2="201.625"/>
                <line x1="140" x2="140" y1="189.625" y2="201.625"/>
                <line x1="160" x2="160" y1="189.625" y2="201.625"/>
                <line x1="180" x2="180" y1="189.625" y2="201.625"/>
            </g>
            <g id="y-tics">
                <line x1="74" x2="86" y1="277" y2="277"/>
                <line x1="74" x2="86" y1="249.875" y2="249.875"/>
                <line x1="74" x2="86" y1="222.75" y2="222.75"/>
                <line x1="74" x2="86" y1="168.5" y2="168.5"/>
                <line x1="74" x2="86" y1="141.375" y2="141.375"/>
                <line x1="74" x2="86" y1="114.25" y2="114.25"/>
                <line x1="74" x2="86" y1="87.125" y2="87.125"/>
                <line x1="74" x2="86" y1="60" y2="60"/>
            </g>
        </g>
        <g id="plots">
            <g id="plot-1">
                <path clip-path="url(#plot-area)" d="M20,170.195 L20.123,170.198 L20.246,170.201 L20.37,170.203 L20.493,170.206 L20.616,170.208 L20.739,170.211 L20.862,170.214 L20.985,170.216 L21.108,170.219 L21.232,170.222 L21.355,170.224 L21.478,170.227 L21.601,170.23 L21.724,170.233 L21.848,170.235 L21.971,170.238 L22.094,170.241 L22.217,170.244 L22.34,170.246 L22.463,170.249 L22.587,170.252 L22.71,170.255 L22.833,170.258 L22.956,170.26 L23.079,170.263 L23.202,170.266 L23.326,170.269 L23.449,170.272 L23.572,170.275 L23.695,170.277 L23.818,170.28 L23.941,170.283 L24.065,170.286 L24.188,170.289 L24.311,170.292 L24.434,170.295 L24.557,170.298 L24.68,170.301 L24.804,170.304 L24.927,170.307 L25.05,170.31 L25.173,170.312 L25.296,170.315 L25.42,170.318 L25.543,170.322 L25.666,170.325 L25.789,170.328 L25.912,170.331 L26.035,170.334 L26.159,170.337 L26.282,170.34 L26.405,170.343 L26.528,170.346 L26.651,170.349 L26.774,170.352 L26.898,170.355 L27.021,170.358 L27.144,170.362 L27.267,170.365 L27.39,170.368 L27.514,170.371 L27.637,170.374 L27.76,170.377 L27.883,170.381 L28.006,170.384 L28.129,170.387 L28.252,170.39 L28.376,170.394 L28.499,170.397 L28.622,170.4 L28.745,170.403 L28.868,170.407 L28.991,170.41 L29.115,170.413 L29.238,170.417 L29.361,170.42 L29.484,170.423 L29.607,170.427 L29.731,170.43 L29.854,170.433 L29.977,170.437 L30.1,170.44 L30.223,170.444 L30.346,170.447 L30.47,170.451 L30.593,170.454 L30.716,170.457 L30.839,170.461 L30.962,170.465 L31.086,170.468 L31.209,170.472 L31.332,170.475 L31.455,170.479 L31.578,170.482 L31.701,170.486 L31.824,170.489 L31.948,170.493 L32.071,170.497 L32.194,170.5 L32.317,170.504 L32.44,170.508 L32.564,170.511 L32.687,170.515 L32.81,170.519 L32.933,170.522 L33.056,170.526 L33.179,170.53 L33.302,170.533 L33.426,170.537 L33.549,170.541 L33.672,170.545 L33.795,170.549 L33.918,170.552 L34.042,170.556 L34.165,170.56 L34.288,170.564 L34.411,170.568 L34.534,170.572 L34.657,170.576 L34.781,170.58 L34.904,170.583 L35.027,170.587 L35.15,170.591 L35.273,170.595 L35.396,170.599 L35.52,170.603 L35.643,170.607 L35.766,170.611 L35.889,170.615 L36.012,170.62 L36.136,170.624 L36.259,170.628 L36.382,170.632 L36.505,170.636 L36.628,170.64 L36.751,170.644 L36.874,170.648 L36.998,170.653 L37.121,170.657 L37.244,170.661 L37.367,170.665 L37.49,170.67 L37.614,170.674 L37.737,170.678 L37.86,170.683 L37.983,170.687 L38.106,170.691 L38.229,170.696 L38.353,170.7 L38.476,170.704 L38.599,170.709 L38.722,170.713 L38.845,170.718 L38.968,170.722 L39.092,170.727 L39.215,170.731 L39.338,170.736 L39.461,170.74 L39.584,170.745 L39.707,170.749 L39.831,170.754 L39.954,170.759 L40.077,170.763 L40.2,170.768 L40.323,170.773 L40.446,170.777 L40.57,170.782 L40.693,170.787 L40.816,170.792 L40.939,170.796 L41.062,170.801 L41.186,170.806 L41.309,170.811 L41.432,170.816 L41.555,170.821 L41.678,170.825 L41.801,170.83 L41.925,170.835 L42.048,170.84 L42.171,170.845 L42.294,170.85 L42.417,170.855 L42.54,170.86 L42.664,170.865 L42.787,170.87 L42.91,170.876 L43.033,170.881 L43.156,170.886 L43.279,170.891 L43.403,170.896 L43.526,170.902 L43.649,170.907 L43.772,170.912 L43.895,170.917 L44.018,170.923 L44.142,170.928 L44.265,170.933 L44.388,170.939 L44.511,170.944 L44.634,170.95 L44.758,170.955 L44.881,170.961 L45.004,170.966 L45.127,170.972 L45.25,170.977 L45.373,170.983 L45.496,170.988 L45.62,170.994 L45.743,171 L45.866,171.005 L45.989,171.011 L46.112,171.017 L46.236,171.023 L46.359,171.028 L46.482,171.034 L46.605,171.04 L46.728,171.046 L46.851,171.052 L46.975,171.058 L47.098,171.064 L47.221,171.07 L47.344,171.076 L47.467,171.082 L47.59,171.088 L47.714,171.094 L47.837,171.1 L47.96,171.106 L48.083,171.112 L48.206,171.119 L48.329,171.125 L48.453,171.131 L48.576,171.137 L48.699,171.144 L48.822,171.15 L48.945,171.156 L49.068,171.163 L49.192,171.169 L49.315,171.176 L49.438,171.182 L49.561,171.189 L49.684,171.196 L49.808,171.202 L49.931,171.209 L50.054,171.215 L50.177,171.222 L50.3,171.229 L50.423,171.236 L50.547,171.242 L50.67,171.249 L50.793,171.256 L50.916,171.263 L51.039,171.27 L51.162,171.277 L51.286,171.284 L51.409,171.291 L51.532,171.298 L51.655,171.305 L51.778,171.313 L51.902,171.32 L52.025,171.327 L52.148,171.334 L52.271,171.342 L52.394,171.349 L52.517,171.356 L52.64,171.364 L52.764,171.371 L52.887,171.379 L53.01,171.386 L53.133,171.394 L53.256,171.401 L53.38,171.409 L53.503,171.417 L53.626,171.425 L53.749,171.432 L53.872,171.44 L53.995,171.448 L54.119,171.456 L54.242,171.464 L54.365,171.472 L54.488,171.48 L54.611,171.488 L54.734,171.496 L54.858,171.504 L54.981,171.513 L55.104,171.521 L55.227,171.529 L55.35,171.538 L55.473,171.546 L55.597,171.554 L55.72,171.563 L55.843,171.571 L55.966,171.58 L56.089,171.589 L56.212,171.597 L56.336,171.606 L56.459,171.615 L56.582,171.624 L56.705,171.633 L56.828,171.641 L56.951,171.651 L57.075,171.66 L57.198,171.669 L57.321,171.678 L57.444,171.687 L57.567,171.696 L57.69,171.705 L57.814,171.715 L57.937,171.724 L58.06,171.734 L58.183,171.743 L58.306,171.753 L58.43,171.763 L58.553,171.772 L58.676,171.782 L58.799,171.792 L58.922,171.802 L59.045,171.812 L59.169,171.822 L59.292,171.832 L59.415,171.842 L59.538,171.852 L59.661,171.862 L59.784,171.872 L59.908,171.883 L60.031,171.893 L60.154,171.904 L60.277,171.914 L60.4,171.925 L60.524,171.936 L60.647,171.946 L60.77,171.957 L60.893,171.968 L61.016,171.979 L61.139,171.99 L61.262,172.001 L61.386,172.012 L61.509,172.024 L61.632,172.035 L61.755,172.046 L61.878,172.058 L62.002,172.069 L62.125,172.081 L62.248,172.093 L62.371,172.104 L62.494,172.116 L62.617,172.128 L62.741,172.14 L62.864,172.152 L62.987,172.164 L63.11,172.177 L63.233,172.189 L63.356,172.201 L63.48,172.214 L63.603,172.226 L63.726,172.239 L63.849,172.252 L63.972,172.264 L64.096,172.277 L64.219,172.29 L64.342,172.303 L64.465,172.317 L64.588,172.33 L64.711,172.343 L64.834,172.357 L64.958,172.37 L65.081,172.384 L65.204,172.398 L65.327,172.412 L65.45,172.426 L65.574,172.439 L65.697,172.454 L65.82,172.468 L65.943,172.482 L66.066,172.497 L66.189,172.511 L66.312,172.526 L66.436,172.541 L66.559,172.556 L66.682,172.571 L66.805,172.586 L66.928,172.601 L67.052,172.616 L67.175,172.632 L67.298,172.647 L67.421,172.663 L67.544,172.679 L67.667,172.695 L67.791,172.711 L67.914,172.727 L68.037,172.743 L68.16,172.76 L68.283,172.776 L68.406,172.793 L68.53,172.81 L68.653,172.827 L68.776,172.844 L68.899,172.861 L69.022,172.878 L69.146,172.896 L69.269,172.913 L69.392,172.931 L69.515,172.949 L69.638,172.967 L69.761,172.985 L69.884,173.004 L70.008,173.022 L70.131,173.041 L70.254,173.059 L70.377,173.078 L70.5,173.098 L70.624,173.117 L70.747,173.136 L70.87,173.156 L70.993,173.176 L71.116,173.196 L71.239,173.216 L71.363,173.236 L71.486,173.256 L71.609,173.277 L71.732,173.298 L71.855,173.319 L71.978,173.34 L72.102,173.361 L72.225,173.383 L72.348,173.405 L72.471,173.427 L72.594,173.449 L72.717,173.471 L72.841,173.494 L72.964,173.516 L73.087,173.539 L73.21,173.563 L73.333,173.586 L73.457,173.61 L73.58,173.633 L73.703,173.657 L73.826,173.682 L73.949,173.706 L74.072,173.731 L74.196,173.756 L74.319,173.781 L74.442,173.807 L74.565,173.832 L74.688,173.858 L74.811,173.884 L74.935,173.911 L75.058,173.938 L75.181,173.965 L75.304,173.992 L75.427,174.019 L75.55,174.047 L75.674,174.075 L75.797,174.104 L75.92,174.132 L76.043,174.161 L76.166,174.19 L76.289,174.22 L76.413,174.25 L76.536,174.28 L76.659,174.311 L76.782,174.341 L76.905,174.373 L77.028,174.404 L77.152,174.436 L77.275,174.468 L77.398,174.501 L77.521,174.533 L77.644,174.567 L77.768,174.6 L77.891,174.634 L78.014,174.669 L78.137,174.703 L78.26,174.739 L78.383,174.774 L78.507,174.81 L78.63,174.846 L78.753,174.883 L78.876,174.92 L78.999,174.958 L79.122,174.996 L79.246,175.035 L79.369,175.074 L79.492,175.113 L79.615,175.153 L79.738,175.194 L79.861,175.235 L79.985,175.276 L80.108,175.318 L80.231,175.36 L80.354,175.403 L80.477,175.447 L80.6,175.491 L80.724,175.536 L80.847,175.581 L80.97,175.627 L81.093,175.673 L81.216,175.72 L81.339,175.768 L81.463,175.816 L81.586,175.865 L81.709,175.915 L81.832,175.965 L81.955,176.016 L82.079,176.068 L82.202,176.12 L82.325,176.173 L82.448,176.227 L82.571,176.282 L82.694,176.337 L82.818,176.393 L82.941,176.45 L83.064,176.508 L83.187,176.567 L83.31,176.626 L83.433,176.687 L83.557,176.748 L83.68,176.81 L83.803,176.873 L83.926,176.938 L84.049,177.003 L84.172,177.069 L84.296,177.136 L84.419,177.204 L84.542,177.274 L84.665,177.344 L84.788,177.416 L84.911,177.489 L85.035,177.563 L85.158,177.638 L85.281,177.714 L85.404,177.792 L85.527,177.871 L85.651,177.952 L85.774,178.033 L85.897,178.117 L86.02,178.201 L86.143,178.288 L86.266,178.375 L86.39,178.465 L86.513,178.556 L86.636,178.648 L86.759,178.743 L86.882,178.839 L87.005,178.937 L87.129,179.037 L87.252,179.139 L87.375,179.242 L87.498,179.348 L87.621,179.456 L87.744,179.566 L87.868,179.679 L87.991,179.793 L88.114,179.91 L88.237,180.03 L88.36,180.152 L88.483,180.277 L88.607,180.404 L88.73,180.534 L88.853,180.667 L88.976,180.803 L89.099,180.942 L89.222,181.084 L89.346,181.229 L89.469,181.378 L89.592,181.531 L89.715,181.687 L89.838,181.847 L89.962,182.011 L90.085,182.178 L90.208,182.35 L90.331,182.527 L90.454,182.708 L90.577,182.894 L90.7,183.084 L90.824,183.28 L90.947,183.481 L91.07,183.688 L91.193,183.9 L91.316,184.119 L91.44,184.343 L91.563,184.575 L91.686,184.813 L91.809,185.058 L91.932,185.311 L92.055,185.571 L92.179,185.84 L92.302,186.118 L92.425,186.404 L92.548,186.7 L92.671,187.006 L92.794,187.322 L92.918,187.65 L93.041,187.989 L93.164,188.34 L93.287,188.704 L93.41,189.081 L93.534,189.473 L93.657,189.881 L93.78,190.304 L93.903,190.745 L94.026,191.203 L94.149,191.681 L94.272,192.18 L94.396,192.7 L94.519,193.244 L94.642,193.813 L94.765,194.408 L94.888,195.033 L95.012,195.688 L95.135,196.376 L95.258,197.1 L95.381,197.863 L95.504,198.667 L95.627,199.517 L95.751,200.416 L95.874,201.369 L95.997,202.38 L96.12,203.456 L96.243,204.602 L96.366,205.826 L96.49,207.135 L96.613,208.54 L96.736,210.051 L96.859,211.681 L96.982,213.443 L97.105,215.356 L97.229,217.438 L97.352,219.714 L97.475,222.213 L97.598,224.967 L97.721,228.019 L97.844,231.42 L97.968,235.234 L98.091,239.539 L98.214,244.438 L98.337,250.063 L98.46,256.588 L98.584,264.248 L98.707,273.367 L98.83,284.406 M101.17,52.594 L101.293,63.633 L101.416,72.752 L101.54,80.412 L101.663,86.937 L101.786,92.562 L101.909,97.461 L102.032,101.766 L102.156,105.58 L102.279,108.981 L102.402,112.033 L102.525,114.787 L102.648,117.286 L102.771,119.562 L102.895,121.644 L103.018,123.557 L103.141,125.319 L103.264,126.949 L103.387,128.46 L103.51,129.865 L103.634,131.174 L103.757,132.398 L103.88,133.544 L104.003,134.62 L104.126,135.631 L104.249,136.584 L104.373,137.483 L104.496,138.333 L104.619,139.137 L104.742,139.9 L104.865,140.624 L104.989,141.312 L105.112,141.967 L105.235,142.592 L105.358,143.187 L105.481,143.756 L105.604,144.3 L105.727,144.82 L105.851,145.319 L105.974,145.797 L106.097,146.255 L106.22,146.696 L106.343,147.119 L106.467,147.527 L106.59,147.919 L106.713,148.296 L106.836,148.66 L106.959,149.011 L107.082,149.35 L107.206,149.678 L107.329,149.994 L107.452,150.3 L107.575,150.596 L107.698,150.882 L107.821,151.16 L107.945,151.429 L108.068,151.689 L108.191,151.942 L108.314,152.187 L108.437,152.425 L108.56,152.657 L108.684,152.881 L108.807,153.1 L108.93,153.312 L109.053,153.519 L109.176,153.72 L109.3,153.916 L109.423,154.107 L109.546,154.292 L109.669,154.473 L109.792,154.65 L109.915,154.822 L110.038,154.989 L110.162,155.153 L110.285,155.313 L110.408,155.469 L110.531,155.622 L110.654,155.771 L110.778,155.916 L110.901,156.058 L111.024,156.197 L111.147,156.333 L111.27,156.466 L111.393,156.596 L111.517,156.723 L111.64,156.848 L111.763,156.97 L111.886,157.09 L112.009,157.207 L112.132,157.321 L112.256,157.434 L112.379,157.544 L112.502,157.652 L112.625,157.758 L112.748,157.861 L112.871,157.963 L112.995,158.063 L113.118,158.161 L113.241,158.257 L113.364,158.352 L113.487,158.444 L113.61,158.535 L113.734,158.625 L113.857,158.712 L113.98,158.799 L114.103,158.883 L114.226,158.967 L114.35,159.048 L114.473,159.129 L114.596,159.208 L114.719,159.286 L114.842,159.362 L114.965,159.437 L115.088,159.511 L115.212,159.584 L115.335,159.656 L115.458,159.726 L115.581,159.796 L115.704,159.864 L115.828,159.931 L115.951,159.997 L116.074,160.062 L116.197,160.127 L116.32,160.19 L116.443,160.252 L116.567,160.313 L116.69,160.374 L116.813,160.433 L116.936,160.492 L117.059,160.55 L117.182,160.607 L117.306,160.663 L117.429,160.718 L117.552,160.773 L117.675,160.827 L117.798,160.88 L117.922,160.932 L118.045,160.984 L118.168,161.035 L118.291,161.085 L118.414,161.135 L118.537,161.184 L118.66,161.232 L118.784,161.28 L118.907,161.327 L119.03,161.373 L119.153,161.419 L119.276,161.464 L119.399,161.509 L119.523,161.553 L119.646,161.597 L119.769,161.64 L119.892,161.682 L120.015,161.724 L120.139,161.765 L120.262,161.806 L120.385,161.847 L120.508,161.887 L120.631,161.926 L120.754,161.965 L120.878,162.004 L121.001,162.042 L121.124,162.08 L121.247,162.117 L121.37,162.154 L121.494,162.19 L121.617,162.226 L121.74,162.261 L121.863,162.297 L121.986,162.331 L122.109,162.366 L122.232,162.4 L122.356,162.433 L122.479,162.467 L122.602,162.499 L122.725,162.532 L122.848,162.564 L122.972,162.596 L123.095,162.627 L123.218,162.659 L123.341,162.689 L123.464,162.72 L123.587,162.75 L123.71,162.78 L123.834,162.81 L123.957,162.839 L124.08,162.868 L124.203,162.896 L124.326,162.925 L124.45,162.953 L124.573,162.981 L124.696,163.008 L124.819,163.035 L124.942,163.062 L125.065,163.089 L125.189,163.116 L125.312,163.142 L125.435,163.168 L125.558,163.193 L125.681,163.219 L125.804,163.244 L125.928,163.269 L126.051,163.294 L126.174,163.318 L126.297,163.343 L126.42,163.367 L126.544,163.39 L126.667,163.414 L126.79,163.437 L126.913,163.461 L127.036,163.484 L127.159,163.506 L127.282,163.529 L127.406,163.551 L127.529,163.573 L127.652,163.595 L127.775,163.617 L127.898,163.639 L128.022,163.66 L128.145,163.681 L128.268,163.702 L128.391,163.723 L128.514,163.744 L128.637,163.764 L128.761,163.784 L128.884,163.804 L129.007,163.824 L129.13,163.844 L129.253,163.864 L129.376,163.883 L129.5,163.902 L129.623,163.922 L129.746,163.941 L129.869,163.959 L129.992,163.978 L130.116,163.996 L130.239,164.015 L130.362,164.033 L130.485,164.051 L130.608,164.069 L130.731,164.087 L130.854,164.104 L130.978,164.122 L131.101,164.139 L131.224,164.156 L131.347,164.173 L131.47,164.19 L131.594,164.207 L131.717,164.224 L131.84,164.24 L131.963,164.257 L132.086,164.273 L132.209,164.289 L132.333,164.305 L132.456,164.321 L132.579,164.337 L132.702,164.353 L132.825,164.368 L132.948,164.384 L133.072,164.399 L133.195,164.414 L133.318,164.429 L133.441,164.444 L133.564,164.459 L133.688,164.474 L133.811,164.489 L133.934,164.503 L134.057,164.518 L134.18,164.532 L134.303,164.546 L134.426,164.561 L134.55,164.574 L134.673,164.588 L134.796,164.602 L134.919,164.616 L135.042,164.63 L135.165,164.643 L135.289,164.657 L135.412,164.67 L135.535,164.683 L135.658,164.697 L135.781,164.71 L135.904,164.723 L136.028,164.736 L136.151,164.748 L136.274,164.761 L136.397,164.774 L136.52,164.786 L136.644,164.799 L136.767,164.811 L136.89,164.823 L137.013,164.836 L137.136,164.848 L137.259,164.86 L137.383,164.872 L137.506,164.884 L137.629,164.896 L137.752,164.907 L137.875,164.919 L137.998,164.931 L138.122,164.942 L138.245,164.954 L138.368,164.965 L138.491,164.976 L138.614,164.988 L138.738,164.999 L138.861,165.01 L138.984,165.021 L139.107,165.032 L139.23,165.043 L139.353,165.054 L139.476,165.064 L139.6,165.075 L139.723,165.086 L139.846,165.096 L139.969,165.107 L140.092,165.117 L140.216,165.128 L140.339,165.138 L140.462,165.148 L140.585,165.158 L140.708,165.168 L140.831,165.178 L140.955,165.188 L141.078,165.198 L141.201,165.208 L141.324,165.218 L141.447,165.228 L141.57,165.237 L141.694,165.247 L141.817,165.257 L141.94,165.266 L142.063,165.276 L142.186,165.285 L142.31,165.295 L142.433,165.304 L142.556,165.313 L142.679,165.322 L142.802,165.331 L142.925,165.34 L143.048,165.349 L143.172,165.359 L143.295,165.367 L143.418,165.376 L143.541,165.385 L143.664,165.394 L143.788,165.403 L143.911,165.411 L144.034,165.42 L144.157,165.429 L144.28,165.437 L144.403,165.446 L144.527,165.454 L144.65,165.462 L144.773,165.471 L144.896,165.479 L145.019,165.487 L145.142,165.496 L145.266,165.504 L145.389,165.512 L145.512,165.52 L145.635,165.528 L145.758,165.536 L145.881,165.544 L146.005,165.552 L146.128,165.56 L146.251,165.568 L146.374,165.575 L146.497,165.583 L146.62,165.591 L146.744,165.599 L146.867,165.606 L146.99,165.614 L147.113,165.621 L147.236,165.629 L147.36,165.636 L147.483,165.644 L147.606,165.651 L147.729,165.658 L147.852,165.666 L147.975,165.673 L148.098,165.68 L148.222,165.687 L148.345,165.695 L148.468,165.702 L148.591,165.709 L148.714,165.716 L148.838,165.723 L148.961,165.73 L149.084,165.737 L149.207,165.744 L149.33,165.751 L149.453,165.758 L149.577,165.764 L149.7,165.771 L149.823,165.778 L149.946,165.785 L150.069,165.791 L150.192,165.798 L150.316,165.804 L150.439,165.811 L150.562,165.818 L150.685,165.824 L150.808,165.831 L150.932,165.837 L151.055,165.844 L151.178,165.85 L151.301,165.856 L151.424,165.863 L151.547,165.869 L151.67,165.875 L151.794,165.881 L151.917,165.888 L152.04,165.894 L152.163,165.9 L152.286,165.906 L152.41,165.912 L152.533,165.918 L152.656,165.924 L152.779,165.93 L152.902,165.936 L153.025,165.942 L153.149,165.948 L153.272,165.954 L153.395,165.96 L153.518,165.966 L153.641,165.972 L153.764,165.977 L153.888,165.983 L154.011,165.989 L154.134,165.995 L154.257,166 L154.38,166.006 L154.504,166.012 L154.627,166.017 L154.75,166.023 L154.873,166.028 L154.996,166.034 L155.119,166.039 L155.242,166.045 L155.366,166.05 L155.489,166.056 L155.612,166.061 L155.735,166.067 L155.858,166.072 L155.982,166.077 L156.105,166.083 L156.228,166.088 L156.351,166.093 L156.474,166.098 L156.597,166.104 L156.721,166.109 L156.844,166.114 L156.967,166.119 L157.09,166.124 L157.213,166.13 L157.336,166.135 L157.46,166.14 L157.583,166.145 L157.706,166.15 L157.829,166.155 L157.952,166.16 L158.075,166.165 L158.199,166.17 L158.322,166.175 L158.445,166.179 L158.568,166.184 L158.691,166.189 L158.814,166.194 L158.938,166.199 L159.061,166.204 L159.184,166.208 L159.307,166.213 L159.43,166.218 L159.553,166.223 L159.677,166.227 L159.8,166.232 L159.923,166.237 L160.046,166.241 L160.169,166.246 L160.292,166.251 L160.416,166.255 L160.539,166.26 L160.662,166.264 L160.785,166.269 L160.908,166.273 L161.032,166.278 L161.155,166.282 L161.278,166.287 L161.401,166.291 L161.524,166.296 L161.647,166.3 L161.771,166.304 L161.894,166.309 L162.017,166.313 L162.14,166.317 L162.263,166.322 L162.386,166.326 L162.51,166.33 L162.633,166.335 L162.756,166.339 L162.879,166.343 L163.002,166.347 L163.126,166.352 L163.249,166.356 L163.372,166.36 L163.495,166.364 L163.618,166.368 L163.741,166.372 L163.864,166.376 L163.988,166.38 L164.111,166.385 L164.234,166.389 L164.357,166.393 L164.48,166.397 L164.604,166.401 L164.727,166.405 L164.85,166.409 L164.973,166.413 L165.096,166.417 L165.219,166.42 L165.343,166.424 L165.466,166.428 L165.589,166.432 L165.712,166.436 L165.835,166.44 L165.958,166.444 L166.082,166.448 L166.205,166.451 L166.328,166.455 L166.451,166.459 L166.574,166.463 L166.698,166.467 L166.821,166.47 L166.944,166.474 L167.067,166.478 L167.19,166.481 L167.313,166.485 L167.436,166.489 L167.56,166.492 L167.683,166.496 L167.806,166.5 L167.929,166.503 L168.052,166.507 L168.176,166.511 L168.299,166.514 L168.422,166.518 L168.545,166.521 L168.668,166.525 L168.791,166.528 L168.914,166.532 L169.038,166.535 L169.161,166.539 L169.284,166.543 L169.407,166.546 L169.53,166.549 L169.654,166.553 L169.777,166.556 L169.9,166.56 L170.023,166.563 L170.146,166.567 L170.269,166.57 L170.393,166.573 L170.516,166.577 L170.639,166.58 L170.762,166.583 L170.885,166.587 L171.008,166.59 L171.132,166.593 L171.255,166.597 L171.378,166.6 L171.501,166.603 L171.624,166.606 L171.748,166.61 L171.871,166.613 L171.994,166.616 L172.117,166.619 L172.24,166.623 L172.363,166.626 L172.486,166.629 L172.61,166.632 L172.733,166.635 L172.856,166.638 L172.979,166.642 L173.102,166.645 L173.226,166.648 L173.349,166.651 L173.472,166.654 L173.595,166.657 L173.718,166.66 L173.841,166.663 L173.965,166.666 L174.088,166.669 L174.211,166.672 L174.334,166.675 L174.457,166.678 L174.58,166.682 L174.704,166.685 L174.827,166.688 L174.95,166.69 L175.073,166.693 L175.196,166.696 L175.32,166.699 L175.443,166.702 L175.566,166.705 L175.689,166.708 L175.812,166.711 L175.935,166.714 L176.058,166.717 L176.182,166.72 L176.305,166.723 L176.428,166.725 L176.551,166.728 L176.674,166.731 L176.798,166.734 L176.921,166.737 L177.044,166.74 L177.167,166.742 L177.29,166.745 L177.413,166.748 L177.537,166.751 L177.66,166.754 L177.783,166.756 L177.906,166.759 L178.029,166.762 L178.152,166.765 L178.276,166.767 L178.399,166.77 L178.522,166.773 L178.645,166.776 L178.768,166.778 L178.892,166.781 L179.015,166.784 L179.138,166.786 L179.261,166.789 L179.384,166.792 L179.507,166.794 L179.63,166.797 L179.754,166.799 L179.877,166.802 L180,166.805 "/>
            </g>
            <g id="plot-2">
                <path clip-path="url(#plot-area)" d="M46.728,277.135 L46.851,276.501 L46.975,275.869 L47.098,275.238 L47.221,274.608 L47.344,273.979 L47.467,273.352 L47.59,272.726 L47.714,272.101 L47.837,271.477 L47.96,270.855 L48.083,270.234 L48.206,269.614 L48.329,268.995 L48.453,268.377 L48.576,267.761 L48.699,267.146 L48.822,266.532 L48.945,265.92 L49.068,265.308 L49.192,264.698 L49.315,264.089 L49.438,263.482 L49.561,262.875 L49.684,262.27 L49.808,261.666 L49.931,261.064 L50.054,260.462 L50.177,259.862 L50.3,259.263 L50.423,258.665 L50.547,258.069 L50.67,257.473 L50.793,256.879 L50.916,256.286 L51.039,255.695 L51.162,255.104 L51.286,254.515 L51.409,253.927 L51.532,253.341 L51.655,252.755 L51.778,252.171 L51.902,251.588 L52.025,251.007 L52.148,250.426 L52.271,249.847 L52.394,249.269 L52.517,248.692 L52.64,248.116 L52.764,247.542 L52.887,246.969 L53.01,246.397 L53.133,245.827 L53.256,245.257 L53.38,244.689 L53.503,244.122 L53.626,243.557 L53.749,242.992 L53.872,242.429 L53.995,241.867 L54.119,241.306 L54.242,240.747 L54.365,240.189 L54.488,239.632 L54.611,239.076 L54.734,238.521 L54.858,237.968 L54.981,237.416 L55.104,236.865 L55.227,236.315 L55.35,235.767 L55.473,235.22 L55.597,234.674 L55.72,234.129 L55.843,233.586 L55.966,233.044 L56.089,232.503 L56.212,231.963 L56.336,231.424 L56.459,230.887 L56.582,230.351 L56.705,229.816 L56.828,229.283 L56.951,228.75 L57.075,228.219 L57.198,227.689 L57.321,227.161 L57.444,226.633 L57.567,226.107 L57.69,225.582 L57.814,225.059 L57.937,224.536 L58.06,224.015 L58.183,223.495 L58.306,222.976 L58.43,222.459 L58.553,221.942 L58.676,221.428 L58.799,220.914 L58.922,220.401 L59.045,219.89 L59.169,219.38 L59.292,218.871 L59.415,218.363 L59.538,217.857 L59.661,217.352 L59.784,216.848 L59.908,216.345 L60.031,215.843 L60.154,215.343 L60.277,214.844 L60.4,214.347 L60.524,213.85 L60.647,213.355 L60.77,212.861 L60.893,212.368 L61.016,211.876 L61.139,211.386 L61.262,210.897 L61.386,210.409 L61.509,209.922 L61.632,209.437 L61.755,208.953 L61.878,208.47 L62.002,207.988 L62.125,207.508 L62.248,207.028 L62.371,206.55 L62.494,206.073 L62.617,205.598 L62.741,205.124 L62.864,204.651 L62.987,204.179 L63.11,203.708 L63.233,203.239 L63.356,202.771 L63.48,202.304 L63.603,201.838 L63.726,201.374 L63.849,200.91 L63.972,200.449 L64.096,199.988 L64.219,199.528 L64.342,199.07 L64.465,198.613 L64.588,198.157 L64.711,197.703 L64.834,197.249 L64.958,196.797 L65.081,196.346 L65.204,195.897 L65.327,195.448 L65.45,195.001 L65.574,194.555 L65.697,194.111 L65.82,193.667 L65.943,193.225 L66.066,192.784 L66.189,192.344 L66.312,191.906 L66.436,191.469 L66.559,191.033 L66.682,190.598 L66.805,190.164 L66.928,189.732 L67.052,189.301 L67.175,188.871 L67.298,188.442 L67.421,188.015 L67.544,187.589 L67.667,187.164 L67.791,186.74 L67.914,186.318 L68.037,185.897 L68.16,185.477 L68.283,185.058 L68.406,184.64 L68.53,184.224 L68.653,183.809 L68.776,183.395 L68.899,182.983 L69.022,182.571 L69.146,182.161 L69.269,181.752 L69.392,181.345 L69.515,180.938 L69.638,180.533 L69.761,180.129 L69.884,179.726 L70.008,179.325 L70.131,178.925 L70.254,178.526 L70.377,178.128 L70.5,177.731 L70.624,177.336 L70.747,176.942 L70.87,176.549 L70.993,176.158 L71.116,175.767 L71.239,175.378 L71.363,174.99 L71.486,174.604 L71.609,174.218 L71.732,173.834 L71.855,173.451 L71.978,173.069 L72.102,172.689 L72.225,172.31 L72.348,171.932 L72.471,171.555 L72.594,171.179 L72.717,170.805 L72.841,170.432 L72.964,170.06 L73.087,169.69 L73.21,169.32 L73.333,168.952 L73.457,168.585 L73.58,168.22 L73.703,167.855 L73.826,167.492 L73.949,167.13 L74.072,166.769 L74.196,166.41 L74.319,166.051 L74.442,165.694 L74.565,165.339 L74.688,164.984 L74.811,164.631 L74.935,164.279 L75.058,163.928 L75.181,163.578 L75.304,163.23 L75.427,162.883 L75.55,162.537 L75.674,162.192 L75.797,161.849 L75.92,161.506 L76.043,161.166 L76.166,160.826 L76.289,160.487 L76.413,160.15 L76.536,159.814 L76.659,159.479 L76.782,159.146 L76.905,158.813 L77.028,158.482 L77.152,158.152 L77.275,157.824 L77.398,157.496 L77.521,157.17 L77.644,156.845 L77.768,156.522 L77.891,156.199 L78.014,155.878 L78.137,155.558 L78.26,155.239 L78.383,154.922 L78.507,154.605 L78.63,154.29 L78.753,153.977 L78.876,153.664 L78.999,153.353 L79.122,153.043 L79.246,152.734 L79.369,152.426 L79.492,152.12 L79.615,151.814 L79.738,151.511 L79.861,151.208 L79.985,150.906 L80.108,150.606 L80.231,150.307 L80.354,150.009 L80.477,149.713 L80.6,149.418 L80.724,149.124 L80.847,148.831 L80.97,148.539 L81.093,148.249 L81.216,147.96 L81.339,147.672 L81.463,147.385 L81.586,147.1 L81.709,146.815 L81.832,146.533 L81.955,146.251 L82.079,145.97 L82.202,145.691 L82.325,145.413 L82.448,145.136 L82.571,144.861 L82.694,144.586 L82.818,144.313 L82.941,144.042 L83.064,143.771 L83.187,143.502 L83.31,143.233 L83.433,142.967 L83.557,142.701 L83.68,142.437 L83.803,142.173 L83.926,141.911 L84.049,141.651 L84.172,141.391 L84.296,141.133 L84.419,140.876 L84.542,140.62 L84.665,140.366 L84.788,140.112 L84.911,139.86 L85.035,139.609 L85.158,139.36 L85.281,139.111 L85.404,138.864 L85.527,138.618 L85.651,138.373 L85.774,138.13 L85.897,137.888 L86.02,137.647 L86.143,137.407 L86.266,137.169 L86.39,136.931 L86.513,136.695 L86.636,136.461 L86.759,136.227 L86.882,135.995 L87.005,135.764 L87.129,135.534 L87.252,135.305 L87.375,135.078 L87.498,134.852 L87.621,134.627 L87.744,134.403 L87.868,134.181 L87.991,133.959 L88.114,133.739 L88.237,133.521 L88.36,133.303 L88.483,133.087 L88.607,132.872 L88.73,132.658 L88.853,132.445 L88.976,132.234 L89.099,132.024 L89.222,131.815 L89.346,131.607 L89.469,131.401 L89.592,131.196 L89.715,130.992 L89.838,130.789 L89.962,130.588 L90.085,130.387 L90.208,130.189 L90.331,129.991 L90.454,129.794 L90.577,129.599 L90.7,129.405 L90.824,129.212 L90.947,129.02 L91.07,128.83 L91.193,128.641 L91.316,128.453 L91.44,128.266 L91.563,128.081 L91.686,127.897 L91.809,127.714 L91.932,127.532 L92.055,127.352 L92.179,127.172 L92.302,126.994 L92.425,126.818 L92.548,126.642 L92.671,126.468 L92.794,126.295 L92.918,126.123 L93.041,125.952 L93.164,125.783 L93.287,125.615 L93.41,125.448 L93.534,125.282 L93.657,125.118 L93.78,124.955 L93.903,124.793 L94.026,124.632 L94.149,124.472 L94.272,124.314 L94.396,124.157 L94.519,124.001 L94.642,123.847 L94.765,123.694 L94.888,123.541 L95.012,123.391 L95.135,123.241 L95.258,123.093 L95.381,122.945 L95.504,122.8 L95.627,122.655 L95.751,122.511 L95.874,122.369 L95.997,122.228 L96.12,122.089 L96.243,121.95 L96.366,121.813 L96.49,121.677 L96.613,121.542 L96.736,121.408 L96.859,121.276 L96.982,121.145 L97.105,121.015 L97.229,120.886 L97.352,120.759 L97.475,120.633 L97.598,120.508 L97.721,120.384 L97.844,120.262 L97.968,120.141 L98.091,120.021 L98.214,119.902 L98.337,119.784 L98.46,119.668 L98.584,119.553 L98.707,119.439 L98.83,119.327 L98.953,119.215 L99.076,119.105 L99.199,118.996 L99.323,118.889 L99.446,118.782 L99.569,118.677 L99.692,118.573 L99.815,118.471 L99.938,118.369 L100.062,118.269 L100.185,118.17 L100.308,118.072 L100.431,117.975 L100.554,117.88 L100.677,117.786 L100.801,117.693 L100.924,117.602 L101.047,117.511 L101.17,117.422 L101.293,117.334 L101.416,117.248 L101.54,117.162 L101.663,117.078 L101.786,116.995 L101.909,116.914 L102.032,116.833 L102.156,116.754 L102.279,116.676 L102.402,116.599 L102.525,116.523 L102.648,116.449 L102.771,116.376 L102.895,116.304 L103.018,116.234 L103.141,116.164 L103.264,116.096 L103.387,116.029 L103.51,115.964 L103.634,115.899 L103.757,115.836 L103.88,115.774 L104.003,115.713 L104.126,115.654 L104.249,115.596 L104.373,115.538 L104.496,115.483 L104.619,115.428 L104.742,115.375 L104.865,115.323 L104.989,115.272 L105.112,115.222 L105.235,115.174 L105.358,115.127 L105.481,115.081 L105.604,115.036 L105.727,114.993 L105.851,114.951 L105.974,114.91 L106.097,114.87 L106.22,114.831 L106.343,114.794 L106.467,114.758 L106.59,114.723 L106.713,114.69 L106.836,114.657 L106.959,114.626 L107.082,114.596 L107.206,114.568 L107.329,114.54 L107.452,114.514 L107.575,114.489 L107.698,114.466 L107.821,114.443 L107.945,114.422 L108.068,114.402 L108.191,114.383 L108.314,114.366 L108.437,114.349 L108.56,114.334 L108.684,114.321 L108.807,114.308 L108.93,114.297 L109.053,114.286 L109.176,114.278 L109.3,114.27 L109.423,114.264 L109.546,114.258 L109.669,114.254 L109.792,114.252 L109.915,114.25 L110.038,114.25 L110.162,114.251 L110.285,114.253 L110.408,114.257 L110.531,114.262 L110.654,114.267 L110.778,114.275 L110.901,114.283 L111.024,114.293 L111.147,114.304 L111.27,114.316 L111.393,114.329 L111.517,114.344 L111.64,114.359 L111.763,114.376 L111.886,114.395 L112.009,114.414 L112.132,114.435 L112.256,114.457 L112.379,114.48 L112.502,114.505 L112.625,114.53 L112.748,114.557 L112.871,114.586 L112.995,114.615 L113.118,114.645 L113.241,114.677 L113.364,114.71 L113.487,114.745 L113.61,114.78 L113.734,114.817 L113.857,114.855 L113.98,114.894 L114.103,114.935 L114.226,114.977 L114.35,115.02 L114.473,115.064 L114.596,115.109 L114.719,115.156 L114.842,115.204 L114.965,115.253 L115.088,115.304 L115.212,115.355 L115.335,115.408 L115.458,115.462 L115.581,115.517 L115.704,115.574 L115.828,115.632 L115.951,115.691 L116.074,115.751 L116.197,115.813 L116.32,115.875 L116.443,115.939 L116.567,116.004 L116.69,116.071 L116.813,116.139 L116.936,116.207 L117.059,116.278 L117.182,116.349 L117.306,116.422 L117.429,116.495 L117.552,116.571 L117.675,116.647 L117.798,116.724 L117.922,116.803 L118.045,116.883 L118.168,116.964 L118.291,117.047 L118.414,117.131 L118.537,117.216 L118.66,117.302 L118.784,117.389 L118.907,117.478 L119.03,117.568 L119.153,117.659 L119.276,117.751 L119.399,117.845 L119.523,117.94 L119.646,118.036 L119.769,118.133 L119.892,118.232 L120.015,118.331 L120.139,118.432 L120.262,118.535 L120.385,118.638 L120.508,118.743 L120.631,118.849 L120.754,118.956 L120.878,119.064 L121.001,119.174 L121.124,119.285 L121.247,119.397 L121.37,119.51 L121.494,119.625 L121.617,119.741 L121.74,119.858 L121.863,119.976 L121.986,120.095 L122.109,120.216 L122.232,120.338 L122.356,120.461 L122.479,120.586 L122.602,120.712 L122.725,120.839 L122.848,120.967 L122.972,121.096 L123.095,121.227 L123.218,121.359 L123.341,121.492 L123.464,121.626 L123.587,121.762 L123.71,121.898 L123.834,122.037 L123.957,122.176 L124.08,122.316 L124.203,122.458 L124.326,122.601 L124.45,122.745 L124.573,122.891 L124.696,123.037 L124.819,123.185 L124.942,123.334 L125.065,123.485 L125.189,123.636 L125.312,123.789 L125.435,123.943 L125.558,124.099 L125.681,124.255 L125.804,124.413 L125.928,124.572 L126.051,124.732 L126.174,124.894 L126.297,125.056 L126.42,125.22 L126.544,125.386 L126.667,125.552 L126.79,125.72 L126.913,125.889 L127.036,126.059 L127.159,126.23 L127.282,126.403 L127.406,126.577 L127.529,126.752 L127.652,126.928 L127.775,127.105 L127.898,127.284 L128.022,127.464 L128.145,127.646 L128.268,127.828 L128.391,128.012 L128.514,128.197 L128.637,128.383 L128.761,128.57 L128.884,128.759 L129.007,128.949 L129.13,129.14 L129.253,129.332 L129.376,129.526 L129.5,129.721 L129.623,129.917 L129.746,130.114 L129.869,130.313 L129.992,130.513 L130.116,130.714 L130.239,130.916 L130.362,131.119 L130.485,131.324 L130.608,131.53 L130.731,131.737 L130.854,131.945 L130.978,132.155 L131.101,132.366 L131.224,132.578 L131.347,132.791 L131.47,133.006 L131.594,133.222 L131.717,133.439 L131.84,133.657 L131.963,133.877 L132.086,134.097 L132.209,134.319 L132.333,134.543 L132.456,134.767 L132.579,134.993 L132.702,135.22 L132.825,135.448 L132.948,135.677 L133.072,135.908 L133.195,136.14 L133.318,136.373 L133.441,136.607 L133.564,136.843 L133.688,137.08 L133.811,137.318 L133.934,137.557 L134.057,137.797 L134.18,138.039 L134.303,138.282 L134.426,138.526 L134.55,138.772 L134.673,139.018 L134.796,139.266 L134.919,139.515 L135.042,139.766 L135.165,140.018 L135.289,140.27 L135.412,140.524 L135.535,140.78 L135.658,141.036 L135.781,141.294 L135.904,141.553 L136.028,141.813 L136.151,142.075 L136.274,142.338 L136.397,142.602 L136.52,142.867 L136.644,143.133 L136.767,143.401 L136.89,143.67 L137.013,143.94 L137.136,144.211 L137.259,144.484 L137.383,144.758 L137.506,145.033 L137.629,145.309 L137.752,145.587 L137.875,145.866 L137.998,146.145 L138.122,146.427 L138.245,146.709 L138.368,146.993 L138.491,147.278 L138.614,147.564 L138.738,147.852 L138.861,148.14 L138.984,148.43 L139.107,148.721 L139.23,149.014 L139.353,149.307 L139.476,149.602 L139.6,149.898 L139.723,150.195 L139.846,150.494 L139.969,150.794 L140.092,151.095 L140.216,151.397 L140.339,151.7 L140.462,152.005 L140.585,152.311 L140.708,152.618 L140.831,152.927 L140.955,153.236 L141.078,153.547 L141.201,153.859 L141.324,154.173 L141.447,154.487 L141.57,154.803 L141.694,155.12 L141.817,155.438 L141.94,155.758 L142.063,156.079 L142.186,156.4 L142.31,156.724 L142.433,157.048 L142.556,157.374 L142.679,157.701 L142.802,158.029 L142.925,158.358 L143.048,158.689 L143.172,159.021 L143.295,159.354 L143.418,159.688 L143.541,160.024 L143.664,160.361 L143.788,160.699 L143.911,161.038 L144.034,161.378 L144.157,161.72 L144.28,162.063 L144.403,162.407 L144.527,162.753 L144.65,163.1 L144.773,163.447 L144.896,163.797 L145.019,164.147 L145.142,164.499 L145.266,164.852 L145.389,165.206 L145.512,165.561 L145.635,165.917 L145.758,166.275 L145.881,166.634 L146.005,166.995 L146.128,167.356 L146.251,167.719 L146.374,168.083 L146.497,168.448 L146.62,168.814 L146.744,169.182 L146.867,169.551 L146.99,169.921 L147.113,170.292 L147.236,170.665 L147.36,171.039 L147.483,171.414 L147.606,171.79 L147.729,172.168 L147.852,172.547 L147.975,172.927 L148.098,173.308 L148.222,173.69 L148.345,174.074 L148.468,174.459 L148.591,174.845 L148.714,175.233 L148.838,175.621 L148.961,176.011 L149.084,176.402 L149.207,176.795 L149.33,177.188 L149.453,177.583 L149.577,177.979 L149.7,178.376 L149.823,178.775 L149.946,179.175 L150.069,179.576 L150.192,179.978 L150.316,180.381 L150.439,180.786 L150.562,181.192 L150.685,181.599 L150.808,182.008 L150.932,182.417 L151.055,182.828 L151.178,183.24 L151.301,183.654 L151.424,184.068 L151.547,184.484 L151.67,184.901 L151.794,185.319 L151.917,185.739 L152.04,186.16 L152.163,186.582 L152.286,187.005 L152.41,187.429 L152.533,187.855 L152.656,188.282 L152.779,188.71 L152.902,189.139 L153.025,189.57 L153.149,190.002 L153.272,190.435 L153.395,190.869 L153.518,191.305 L153.641,191.742 L153.764,192.18 L153.888,192.619 L154.011,193.06 L154.134,193.501 L154.257,193.944 L154.38,194.389 L154.504,194.834 L154.627,195.281 L154.75,195.729 L154.873,196.178 L154.996,196.628 L155.119,197.08 L155.242,197.533 L155.366,197.987 L155.489,198.442 L155.612,198.899 L155.735,199.356 L155.858,199.815 L155.982,200.276 L156.105,200.737 L156.228,201.2 L156.351,201.664 L156.474,202.129 L156.597,202.595 L156.721,203.063 L156.844,203.532 L156.967,204.002 L157.09,204.474 L157.213,204.946 L157.336,205.42 L157.46,205.895 L157.583,206.371 L157.706,206.849 L157.829,207.328 L157.952,207.808 L158.075,208.289 L158.199,208.771 L158.322,209.255 L158.445,209.74 L158.568,210.226 L158.691,210.714 L158.814,211.202 L158.938,211.692 L159.061,212.183 L159.184,212.676 L159.307,213.169 L159.43,213.664 L159.553,214.16 L159.677,214.658 L159.8,215.156 L159.923,215.656 L160.046,216.157 L160.169,216.659 L160.292,217.163 L160.416,217.667 L160.539,218.173 L160.662,218.68 L160.785,219.189 L160.908,219.698 L161.032,220.209 L161.155,220.721 L161.278,221.235 L161.401,221.749 L161.524,222.265 L161.647,222.782 L161.771,223.3 L161.894,223.82 L162.017,224.341 L162.14,224.863 L162.263,225.386 L162.386,225.91 L162.51,226.436 L162.633,226.963 L162.756,227.491 L162.879,228.021 L163.002,228.551 L163.126,229.083 L163.249,229.616 L163.372,230.15 L163.495,230.686 L163.618,231.223 L163.741,231.761 L163.864,232.3 L163.988,232.841 L164.111,233.382 L164.234,233.925 L164.357,234.469 L164.48,235.015 L164.604,235.562 L164.727,236.11 L164.85,236.659 L164.973,237.209 L165.096,237.761 L165.219,238.314 L165.343,238.868 L165.466,239.423 L165.589,239.98 L165.712,240.537 L165.835,241.096 L165.958,241.657 L166.082,242.218 L166.205,242.781 L166.328,243.345 L166.451,243.91 L166.574,244.476 L166.698,245.044 L166.821,245.613 L166.944,246.183 L167.067,246.755 L167.19,247.327 L167.313,247.901 L167.436,248.476 L167.56,249.052 L167.683,249.63 L167.806,250.209 L167.929,250.789 L168.052,251.37 L168.176,251.952 L168.299,252.536 L168.422,253.121 L168.545,253.707 L168.668,254.295 L168.791,254.883 L168.914,255.473 L169.038,256.064 L169.161,256.657 L169.284,257.25 L169.407,257.845 L169.53,258.441 L169.654,259.039 L169.777,259.637 L169.9,260.237 L170.023,260.838 L170.146,261.44 L170.269,262.044 L170.393,262.648 L170.516,263.254 L170.639,263.861 L170.762,264.47 L170.885,265.079 L171.008,265.69 L171.132,266.302 L171.255,266.916 L171.378,267.53 L171.501,268.146 L171.624,268.763 L171.748,269.381 L171.871,270.001 L171.994,270.622 L172.117,271.244 L172.24,271.867 L172.363,272.491 L172.486,273.117 L172.61,273.744 L172.733,274.372 L172.856,275.002 L172.979,275.632 L173.102,276.264 L173.226,276.897 L173.349,277.531 "/>
            </g>
        </g>
        <g id="overlays">
            <circle cx="20" cy="170.195" r="2.9">
                <title>-6 / 1,88</title>
                <desc>1/(x-2)+2</desc>
            </circle>
            <circle cx="29.977" cy="170.437" r="2.9">
                <title>-5 / 1,86</title>
                <desc>1/(x-2)+2</desc>
            </circle>
            <circle cx="39.954" cy="170.759" r="2.9">
                <title>-4 / 1,83</title>
                <desc>1/(x-2)+2</desc>
            </circle>
            <circle cx="50.054" cy="171.215" r="2.9">
                <title>-2,99 / 1,8</title>
                <desc>1/(x-2)+2</desc>
            </circle>
            <circle cx="60.031" cy="171.893" r="2.9">
                <title>-2 / 1,75</title>
                <desc>1/(x-2)+2</desc>
            </circle>
            <circle cx="65.943" cy="172.482" r="2.9">
                <title>-1,41 / 1,71</title>
                <desc>1/(x-2)+2</desc>
            </circle>
            <circle cx="71.855" cy="173.319" r="2.9">
                <title>-0,81 / 1,64</title>
                <desc>1/(x-2)+2</desc>
            </circle>
            <circle cx="79.985" cy="175.276" r="2.9">
                <title>0 / 1,5</title>
                <desc>1/(x-2)+2</desc>
            </circle>
            <circle cx="85.527" cy="177.871" r="2.9">
                <title>0,55 / 1,31</title>
                <desc>1/(x-2)+2</desc>
            </circle>
            <circle cx="89.962" cy="182.011" r="2.9">
                <title>1 / 1</title>
                <desc>1/(x-2)+2</desc>
            </circle>
            <circle cx="93.041" cy="187.989" r="2.9">
                <title>1,3 / 0,56</title>
                <desc>1/(x-2)+2</desc>
            </circle>
            <circle cx="95.012" cy="195.688" r="2.9">
                <title>1,5 / 0</title>
                <desc>1/(x-2)+2</desc>
            </circle>
            <circle cx="95.997" cy="202.38" r="2.9">
                <title>1,6 / -0,5</title>
                <desc>1/(x-2)+2</desc>
            </circle>
            <circle cx="96.982" cy="213.443" r="2.9">
                <title>1,7 / -1,31</title>
                <desc>1/(x-2)+2</desc>
            </circle>
            <circle cx="97.475" cy="222.213" r="2.9">
                <title>1,75 / -1,96</title>
                <desc>1/(x-2)+2</desc>
            </circle>
            <circle cx="97.721" cy="228.019" r="2.9">
                <title>1,77 / -2,39</title>
                <desc>1/(x-2)+2</desc>
            </circle>
            <circle cx="97.968" cy="235.234" r="2.9">
                <title>1,8 / -2,92</title>
                <desc>1/(x-2)+2</desc>
            </circle>
            <circle cx="98.214" cy="244.438" r="2.9">
                <title>1,82 / -3,6</title>
                <desc>1/(x-2)+2</desc>
            </circle>
            <circle cx="98.46" cy="256.588" r="2.9">
                <title>1,85 / -4,5</title>
                <desc>1/(x-2)+2</desc>
            </circle>
            <circle cx="98.584" cy="264.248" r="2.9">
                <title>1,86 / -5,06</title>
                <desc>1/(x-2)+2</desc>
            </circle>
            <circle cx="98.707" cy="273.367" r="2.9">
                <title>1,87 / -5,73</title>
                <desc>1/(x-2)+2</desc>
            </circle>
            <circle cx="101.293" cy="63.633" r="2.9">
                <title>2,13 / 9,73</title>
                <desc>1/(x-2)+2</desc>
            </circle>
            <circle cx="101.416" cy="72.752" r="2.9">
                <title>2,14 / 9,06</title>
                <desc>1/(x-2)+2</desc>
            </circle>
            <circle cx="101.54" cy="80.412" r="2.9">
                <title>2,15 / 8,5</title>
                <desc>1/(x-2)+2</desc>
            </circle>
            <circle cx="101.663" cy="86.937" r="2.9">
                <title>2,17 / 8,01</title>
                <desc>1/(x-2)+2</desc>
            </circle>
            <circle cx="102.032" cy="101.766" r="2.9">
                <title>2,2 / 6,92</title>
                <desc>1/(x-2)+2</desc>
            </circle>
            <circle cx="102.279" cy="108.981" r="2.9">
                <title>2,23 / 6,39</title>
                <desc>1/(x-2)+2</desc>
            </circle>
            <circle cx="102.648" cy="117.286" r="2.9">
                <title>2,26 / 5,78</title>
                <desc>1/(x-2)+2</desc>
            </circle>
            <circle cx="103.018" cy="123.557" r="2.9">
                <title>2,3 / 5,31</title>
                <desc>1/(x-2)+2</desc>
            </circle>
            <circle cx="104.003" cy="134.62" r="2.9">
                <title>2,4 / 4,5</title>
                <desc>1/(x-2)+2</desc>
            </circle>
            <circle cx="104.989" cy="141.312" r="2.9">
                <title>2,5 / 4</title>
                <desc>1/(x-2)+2</desc>
            </circle>
            <circle cx="106.959" cy="149.011" r="2.9">
                <title>2,7 / 3,44</title>
                <desc>1/(x-2)+2</desc>
            </circle>
            <circle cx="110.038" cy="154.989" r="2.9">
                <title>3 / 3</title>
                <desc>1/(x-2)+2</desc>
            </circle>
            <circle cx="114.473" cy="159.129" r="2.9">
                <title>3,45 / 2,69</title>
                <desc>1/(x-2)+2</desc>
            </circle>
            <circle cx="120.015" cy="161.724" r="2.9">
                <title>4 / 2,5</title>
                <desc>1/(x-2)+2</desc>
            </circle>
            <circle cx="129.992" cy="163.978" r="2.9">
                <title>5 / 2,33</title>
                <desc>1/(x-2)+2</desc>
            </circle>
            <circle cx="136.028" cy="164.736" r="2.9">
                <title>5,6 / 2,28</title>
                <desc>1/(x-2)+2</desc>
            </circle>
            <circle cx="145.512" cy="165.52" r="2.9">
                <title>6,55 / 2,22</title>
                <desc>1/(x-2)+2</desc>
            </circle>
            <circle cx="152.04" cy="165.894" r="2.9">
                <title>7,2 / 2,19</title>
                <desc>1/(x-2)+2</desc>
            </circle>
            <circle cx="160.046" cy="166.241" r="2.9">
                <title>8 / 2,17</title>
                <desc>1/(x-2)+2</desc>
            </circle>
            <circle cx="170.023" cy="166.563" r="2.9">
                <title>9 / 2,14</title>
                <desc>1/(x-2)+2</desc>
            </circle>
            <circle cx="180" cy="166.805" r="2.9">
                <title>10 / 2,12</title>
                <desc>1/(x-2)+2</desc>
            </circle>
            <circle cx="46.975" cy="275.869" r="2.9">
                <title>-3,3 / -5,92</title>
                <desc>-0.3(x-3)^2+6</desc>
            </circle>
            <circle cx="48.453" cy="268.377" r="2.9">
                <title>-3,15 / -5,36</title>
                <desc>-0.3(x-3)^2+6</desc>
            </circle>
            <circle cx="50.054" cy="260.462" r="2.9">
                <title>-2,99 / -4,78</title>
                <desc>-0.3(x-3)^2+6</desc>
            </circle>
            <circle cx="52.025" cy="251.007" r="2.9">
                <title>-2,8 / -4,08</title>
                <desc>-0.3(x-3)^2+6</desc>
            </circle>
            <circle cx="53.503" cy="244.122" r="2.9">
                <title>-2,65 / -3,58</title>
                <desc>-0.3(x-3)^2+6</desc>
            </circle>
            <circle cx="54.981" cy="237.416" r="2.9">
                <title>-2,5 / -3,08</title>
                <desc>-0.3(x-3)^2+6</desc>
            </circle>
            <circle cx="56.951" cy="228.75" r="2.9">
                <title>-2,3 / -2,44</title>
                <desc>-0.3(x-3)^2+6</desc>
            </circle>
            <circle cx="58.553" cy="221.942" r="2.9">
                <title>-2,14 / -1,94</title>
                <desc>-0.3(x-3)^2+6</desc>
            </circle>
            <circle cx="60.031" cy="215.843" r="2.9">
                <title>-2 / -1,49</title>
                <desc>-0.3(x-3)^2+6</desc>
            </circle>
            <circle cx="62.002" cy="207.988" r="2.9">
                <title>-1,8 / -0,91</title>
                <desc>-0.3(x-3)^2+6</desc>
            </circle>
            <circle cx="63.48" cy="202.304" r="2.9">
                <title>-1,65 / -0,49</title>
                <desc>-0.3(x-3)^2+6</desc>
            </circle>
            <circle cx="65.327" cy="195.448" r="2.9">
                <title>-1,47 / 0,01</title>
                <desc>-0.3(x-3)^2+6</desc>
            </circle>
            <circle cx="67.052" cy="189.301" r="2.9">
                <title>-1,29 / 0,47</title>
                <desc>-0.3(x-3)^2+6</desc>
            </circle>
            <circle cx="70.008" cy="179.325" r="2.9">
                <title>-1 / 1,2</title>
                <desc>-0.3(x-3)^2+6</desc>
            </circle>
            <circle cx="75.058" cy="163.928" r="2.9">
                <title>-0,49 / 2,34</title>
                <desc>-0.3(x-3)^2+6</desc>
            </circle>
            <circle cx="77.521" cy="157.17" r="2.9">
                <title>-0,25 / 2,84</title>
                <desc>-0.3(x-3)^2+6</desc>
            </circle>
            <circle cx="79.985" cy="150.906" r="2.9">
                <title>0 / 3,3</title>
                <desc>-0.3(x-3)^2+6</desc>
            </circle>
            <circle cx="82.448" cy="145.136" r="2.9">
                <title>0,24 / 3,72</title>
                <desc>-0.3(x-3)^2+6</desc>
            </circle>
            <circle cx="85.035" cy="139.609" r="2.9">
                <title>0,5 / 4,13</title>
                <desc>-0.3(x-3)^2+6</desc>
            </circle>
            <circle cx="89.962" cy="130.588" r="2.9">
                <title>1 / 4,8</title>
                <desc>-0.3(x-3)^2+6</desc>
            </circle>
            <circle cx="95.012" cy="123.391" r="2.9">
                <title>1,5 / 5,33</title>
                <desc>-0.3(x-3)^2+6</desc>
            </circle>
            <circle cx="110.038" cy="114.25" r="2.9">
                <title>3 / 6</title>
                <desc>-0.3(x-3)^2+6</desc>
            </circle>
            <circle cx="120.015" cy="118.331" r="2.9">
                <title>4 / 5,7</title>
                <desc>-0.3(x-3)^2+6</desc>
            </circle>
            <circle cx="124.942" cy="123.334" r="2.9">
                <title>4,49 / 5,33</title>
                <desc>-0.3(x-3)^2+6</desc>
            </circle>
            <circle cx="129.992" cy="130.513" r="2.9">
                <title>5 / 4,8</title>
                <desc>-0.3(x-3)^2+6</desc>
            </circle>
            <circle cx="135.042" cy="139.766" r="2.9">
                <title>5,5 / 4,12</title>
                <desc>-0.3(x-3)^2+6</desc>
            </circle>
            <circle cx="137.506" cy="145.033" r="2.9">
                <title>5,75 / 3,73</title>
                <desc>-0.3(x-3)^2+6</desc>
            </circle>
            <circle cx="139.969" cy="150.794" r="2.9">
                <title>6 / 3,31</title>
                <desc>-0.3(x-3)^2+6</desc>
            </circle>
            <circle cx="143.048" cy="158.689" r="2.9">
                <title>6,3 / 2,72</title>
                <desc>-0.3(x-3)^2+6</desc>
            </circle>
            <circle cx="147.975" cy="172.927" r="2.9">
                <title>6,8 / 1,67</title>
                <desc>-0.3(x-3)^2+6</desc>
            </circle>
            <circle cx="149.946" cy="179.175" r="2.9">
                <title>6,99 / 1,21</title>
                <desc>-0.3(x-3)^2+6</desc>
            </circle>
            <circle cx="152.04" cy="186.16" r="2.9">
                <title>7,2 / 0,7</title>
                <desc>-0.3(x-3)^2+6</desc>
            </circle>
            <circle cx="154.75" cy="195.729" r="2.9">
                <title>7,47 / -0,01</title>
                <desc>-0.3(x-3)^2+6</desc>
            </circle>
            <circle cx="156.967" cy="204.002" r="2.9">
                <title>7,7 / -0,62</title>
                <desc>-0.3(x-3)^2+6</desc>
            </circle>
            <circle cx="158.445" cy="209.74" r="2.9">
                <title>7,84 / -1,04</title>
                <desc>-0.3(x-3)^2+6</desc>
            </circle>
            <circle cx="160.046" cy="216.157" r="2.9">
                <title>8 / -1,51</title>
                <desc>-0.3(x-3)^2+6</desc>
            </circle>
            <circle cx="162.017" cy="224.341" r="2.9">
                <title>8,2 / -2,12</title>
                <desc>-0.3(x-3)^2+6</desc>
            </circle>
            <circle cx="163.495" cy="230.686" r="2.9">
                <title>8,35 / -2,59</title>
                <desc>-0.3(x-3)^2+6</desc>
            </circle>
            <circle cx="164.973" cy="237.209" r="2.9">
                <title>8,5 / -3,07</title>
                <desc>-0.3(x-3)^2+6</desc>
            </circle>
            <circle cx="166.944" cy="246.183" r="2.9">
                <title>8,69 / -3,73</title>
                <desc>-0.3(x-3)^2+6</desc>
            </circle>
            <circle cx="168.545" cy="253.707" r="2.9">
                <title>8,85 / -4,28</title>
                <desc>-0.3(x-3)^2+6</desc>
            </circle>
            <circle cx="170.023" cy="260.838" r="2.9">
                <title>9 / -4,81</title>
                <desc>-0.3(x-3)^2+6</desc>
            </circle>
            <circle cx="171.994" cy="270.622" r="2.9">
                <title>9,2 / -5,53</title>
                <desc>-0.3(x-3)^2+6</desc>
            </circle>
            <circle cx="173.226" cy="276.897" r="2.9">
                <title>9,32 / -5,99</title>
                <desc>-0.3(x-3)^2+6</desc>
            </circle>
            <circle cx="20" cy="195.625" r="2.9">
                <title>-6 / 0</title>
            </circle>
            <circle cx="40" cy="195.625" r="2.9">
                <title>-4 / 0</title>
            </circle>
            <circle cx="80" cy="195.625" r="2.9">
                <title>0 / 0</title>
            </circle>
            <circle cx="80" cy="277" r="2.9">
                <title>0 / -6</title>
            </circle>
            <circle cx="80" cy="249.875" r="2.9">
                <title>0 / -4</title>
            </circle>
            <circle cx="80" cy="222.75" r="2.9">
                <title>0 / -2</title>
            </circle>
            <circle cx="80" cy="168.5" r="2.9">
                <title>0 / 2</title>
            </circle>
            <circle cx="80" cy="114.25" r="2.9">
                <title>0 / 6</title>
            </circle>
            <circle cx="80" cy="87.125" r="2.9">
                <title>0 / 8</title>
            </circle>
            <circle cx="80" cy="60" r="2.9">
                <title>0 / 10</title>
            </circle>
            <circle cx="120" cy="195.625" r="2.9">
                <title>4 / 0</title>
            </circle>
            <circle cx="140" cy="195.625" r="2.9">
                <title>6 / 0</title>
            </circle>
            <circle cx="180" cy="195.625" r="2.9">
                <title>10 / 0</title>
            </circle>
        </g>
    </svg>
    <text class="label" id="x_label" x="190mm" y="211.625mm">x</text>
    <text class="label" id="y_label" x="68mm" y="50mm">y</text>
</svg>
